<svg width="753" height="409" viewBox="0 0 753 409" fill="none" xmlns="http://www.w3.org/2000/svg">
<rect x="16.9997" width="717" height="409" fill="white"/>
<path opacity="0.2" fill-rule="evenodd" clip-rule="evenodd" d="M752.692 389.079C752.65 400.044 743.784 408.928 732.827 409H436C448.567 373.992 501.062 303.974 610.504 303.974C719.946 303.974 750.897 249.517 752.692 222.288V389.079Z" fill="#79A4E2"/>
<path opacity="0.2" fill-rule="evenodd" clip-rule="evenodd" d="M211.324 0C208.649 18.1119 192.257 69.0439 124.729 92.1467C59.2112 114.562 16.0501 106.853 8.04366e-06 99.6083L1.61944e-06 20C7.28074e-07 8.95433 8.95432 1.9166e-05 20 1.81199e-05L211.324 0Z" fill="#89AFFF"/>
<path d="M489.124 118.279V106.362H491.098C491.771 105.879 492.386 105.197 492.945 104.316C493.504 103.426 493.982 102.2 494.38 100.637C494.777 99.0651 495.062 97.0102 495.232 94.4723L496.056 82.1712H515.303V106.362H518.485V118.251H512.576V111.262H495.033V118.279H489.124ZM498.201 106.362H509.394V87.2422H501.596L501.141 94.4723C501.018 96.3946 500.814 98.0992 500.53 99.5859C500.256 101.073 499.919 102.375 499.522 103.492C499.133 104.6 498.693 105.557 498.201 106.362ZM531.968 111.688C529.762 111.688 527.854 111.219 526.244 110.282C524.644 109.335 523.408 108.019 522.537 106.333C521.665 104.638 521.23 102.673 521.23 100.438C521.23 98.1844 521.665 96.2147 522.537 94.5291C523.408 92.834 524.644 91.5178 526.244 90.5802C527.854 89.6333 529.762 89.1598 531.968 89.1598C534.175 89.1598 536.078 89.6333 537.679 90.5802C539.289 91.5178 540.529 92.834 541.4 94.5291C542.271 96.2147 542.707 98.1844 542.707 100.438C542.707 102.673 542.271 104.638 541.4 106.333C540.529 108.019 539.289 109.335 537.679 110.282C536.078 111.219 534.175 111.688 531.968 111.688ZM531.997 107.001C533.001 107.001 533.839 106.717 534.511 106.148C535.183 105.571 535.69 104.785 536.031 103.79C536.381 102.796 536.557 101.665 536.557 100.396C536.557 99.1267 536.381 97.995 536.031 97.0007C535.69 96.0064 535.183 95.2204 534.511 94.6428C533.839 94.0651 533.001 93.7763 531.997 93.7763C530.984 93.7763 530.131 94.0651 529.44 94.6428C528.758 95.2204 528.242 96.0064 527.892 97.0007C527.551 97.995 527.38 99.1267 527.38 100.396C527.38 101.665 527.551 102.796 527.892 103.79C528.242 104.785 528.758 105.571 529.44 106.148C530.131 106.717 530.984 107.001 531.997 107.001ZM564.781 81.4325L566.628 85.3814C566.012 85.8928 565.33 86.2715 564.582 86.5177C563.834 86.7545 562.939 86.9107 561.897 86.9865C560.865 87.0623 559.606 87.1143 558.119 87.1427C556.433 87.1617 555.06 87.4316 554 87.9524C552.939 88.4732 552.134 89.2924 551.585 90.4098C551.036 91.5178 550.676 92.9666 550.505 94.7564H550.718C551.372 93.4212 552.29 92.389 553.474 91.6598C554.667 90.9306 556.14 90.566 557.892 90.566C559.748 90.566 561.372 90.9732 562.764 91.7876C564.165 92.602 565.254 93.7715 566.031 95.2962C566.807 96.8208 567.196 98.6484 567.196 100.779C567.196 102.995 566.76 104.922 565.889 106.56C565.027 108.189 563.801 109.453 562.21 110.353C560.619 111.243 558.725 111.688 556.528 111.688C554.322 111.688 552.418 111.224 550.818 110.296C549.227 109.368 547.996 108 547.125 106.191C546.263 104.382 545.832 102.157 545.832 99.5149V97.7251C545.832 92.4695 546.855 88.5727 548.9 86.0348C550.946 83.4969 553.952 82.209 557.92 82.1712C559 82.1522 559.975 82.1475 560.846 82.157C561.718 82.1664 562.48 82.1238 563.133 82.0291C563.796 81.9344 564.345 81.7356 564.781 81.4325ZM556.557 107.001C557.485 107.001 558.28 106.759 558.943 106.276C559.615 105.793 560.131 105.102 560.491 104.202C560.861 103.303 561.045 102.228 561.045 100.978C561.045 99.7374 560.861 98.6863 560.491 97.8246C560.131 96.9534 559.615 96.2905 558.943 95.8359C558.271 95.3814 557.466 95.1541 556.528 95.1541C555.827 95.1541 555.198 95.282 554.639 95.5376C554.08 95.7933 553.602 96.1721 553.204 96.674C552.816 97.1664 552.513 97.7772 552.295 98.5064C552.087 99.2261 551.983 100.05 551.983 100.978C551.983 102.844 552.385 104.316 553.19 105.396C554.004 106.466 555.127 107.001 556.557 107.001ZM571.212 119.444V89.4439H577.178V93.1087H577.448C577.713 92.5215 578.097 91.9249 578.598 91.3189C579.11 90.7034 579.773 90.192 580.587 89.7848C581.411 89.3681 582.434 89.1598 583.655 89.1598C585.246 89.1598 586.714 89.5765 588.059 90.4098C589.403 91.2337 590.478 92.4789 591.283 94.1456C592.088 95.8028 592.49 97.8814 592.49 100.381C592.49 102.815 592.097 104.87 591.312 106.546C590.535 108.213 589.474 109.477 588.13 110.339C586.794 111.191 585.298 111.617 583.641 111.617C582.467 111.617 581.468 111.423 580.644 111.035C579.829 110.647 579.162 110.159 578.641 109.572C578.12 108.975 577.722 108.374 577.448 107.768H577.263V119.444H571.212ZM577.135 100.353C577.135 101.65 577.315 102.782 577.675 103.748C578.035 104.714 578.556 105.467 579.238 106.006C579.919 106.537 580.748 106.802 581.723 106.802C582.708 106.802 583.542 106.532 584.223 105.992C584.905 105.443 585.421 104.685 585.772 103.719C586.132 102.744 586.312 101.622 586.312 100.353C586.312 99.0935 586.136 97.9856 585.786 97.0291C585.436 96.0727 584.919 95.3246 584.238 94.7848C583.556 94.245 582.718 93.9751 581.723 93.9751C580.739 93.9751 579.905 94.2356 579.223 94.7564C578.551 95.2772 578.035 96.0159 577.675 96.9723C577.315 97.9287 577.135 99.0556 577.135 100.353ZM606.383 111.688C604.176 111.688 602.268 111.219 600.658 110.282C599.058 109.335 597.822 108.019 596.951 106.333C596.079 104.638 595.644 102.673 595.644 100.438C595.644 98.1844 596.079 96.2147 596.951 94.5291C597.822 92.834 599.058 91.5178 600.658 90.5802C602.268 89.6333 604.176 89.1598 606.383 89.1598C608.589 89.1598 610.492 89.6333 612.093 90.5802C613.703 91.5178 614.943 92.834 615.814 94.5291C616.686 96.2147 617.121 98.1844 617.121 100.438C617.121 102.673 616.686 104.638 615.814 106.333C614.943 108.019 613.703 109.335 612.093 110.282C610.492 111.219 608.589 111.688 606.383 111.688ZM606.411 107.001C607.415 107.001 608.253 106.717 608.925 106.148C609.597 105.571 610.104 104.785 610.445 103.79C610.795 102.796 610.971 101.665 610.971 100.396C610.971 99.1267 610.795 97.995 610.445 97.0007C610.104 96.0064 609.597 95.2204 608.925 94.6428C608.253 94.0651 607.415 93.7763 606.411 93.7763C605.398 93.7763 604.545 94.0651 603.854 94.6428C603.172 95.2204 602.656 96.0064 602.306 97.0007C601.965 97.995 601.794 99.1267 601.794 100.396C601.794 101.665 601.965 102.796 602.306 103.79C602.656 104.785 603.172 105.571 603.854 106.148C604.545 106.717 605.398 107.001 606.411 107.001ZM426.544 160.262V138.444H445.621V160.262H439.84V143.202H432.254V160.262H426.544ZM460.308 160.688C458.102 160.688 456.194 160.219 454.584 159.282C452.984 158.335 451.748 157.019 450.876 155.333C450.005 153.638 449.57 151.673 449.57 149.438C449.57 147.184 450.005 145.215 450.876 143.529C451.748 141.834 452.984 140.518 454.584 139.58C456.194 138.633 458.102 138.16 460.308 138.16C462.515 138.16 464.418 138.633 466.019 139.58C467.628 140.518 468.869 141.834 469.74 143.529C470.611 145.215 471.047 147.184 471.047 149.438C471.047 151.673 470.611 153.638 469.74 155.333C468.869 157.019 467.628 158.335 466.019 159.282C464.418 160.219 462.515 160.688 460.308 160.688ZM460.337 156.001C461.341 156.001 462.179 155.717 462.851 155.148C463.523 154.571 464.03 153.785 464.371 152.79C464.721 151.796 464.896 150.665 464.896 149.396C464.896 148.127 464.721 146.995 464.371 146.001C464.03 145.006 463.523 144.22 462.851 143.643C462.179 143.065 461.341 142.776 460.337 142.776C459.323 142.776 458.471 143.065 457.78 143.643C457.098 144.22 456.582 145.006 456.232 146.001C455.891 146.995 455.72 148.127 455.72 149.396C455.72 150.665 455.891 151.796 456.232 152.79C456.582 153.785 457.098 154.571 457.78 155.148C458.471 155.717 459.323 156.001 460.337 156.001ZM472.78 160.262L480.408 148.913L472.823 138.444H479.726L485.394 146.981H486.331V138.444H492.382V146.981H493.291L498.959 138.444H505.862L498.291 148.913L505.905 160.262H498.845L493.234 151.739H492.382V160.262H486.331V151.739H485.479L479.84 160.262H472.78ZM515.422 160.674C514.03 160.674 512.789 160.433 511.7 159.95C510.611 159.457 509.75 158.733 509.115 157.776C508.49 156.81 508.178 155.608 508.178 154.168C508.178 152.956 508.4 151.938 508.845 151.114C509.29 150.29 509.896 149.628 510.663 149.126C511.43 148.624 512.302 148.245 513.277 147.989C514.262 147.734 515.294 147.554 516.374 147.45C517.643 147.317 518.665 147.194 519.442 147.08C520.218 146.957 520.782 146.777 521.132 146.54C521.483 146.304 521.658 145.953 521.658 145.489V145.404C521.658 144.504 521.374 143.808 520.805 143.316C520.247 142.824 519.451 142.577 518.419 142.577C517.33 142.577 516.464 142.819 515.82 143.302C515.176 143.775 514.75 144.372 514.541 145.092L508.945 144.637C509.229 143.311 509.787 142.165 510.621 141.2C511.454 140.224 512.529 139.476 513.845 138.955C515.171 138.425 516.705 138.16 518.448 138.16C519.66 138.16 520.82 138.302 521.928 138.586C523.045 138.87 524.035 139.31 524.896 139.907C525.768 140.504 526.454 141.271 526.956 142.208C527.458 143.136 527.709 144.249 527.709 145.546V160.262H521.97V157.237H521.8C521.449 157.918 520.981 158.52 520.394 159.04C519.806 159.552 519.101 159.954 518.277 160.248C517.453 160.532 516.501 160.674 515.422 160.674ZM517.155 156.498C518.045 156.498 518.831 156.323 519.513 155.972C520.195 155.612 520.73 155.129 521.118 154.523C521.506 153.917 521.7 153.231 521.7 152.464V150.148C521.511 150.272 521.251 150.385 520.919 150.489C520.597 150.584 520.233 150.674 519.825 150.759C519.418 150.835 519.011 150.906 518.604 150.972C518.197 151.029 517.827 151.081 517.496 151.129C516.786 151.233 516.165 151.398 515.635 151.626C515.105 151.853 514.693 152.161 514.399 152.549C514.106 152.928 513.959 153.401 513.959 153.969C513.959 154.793 514.257 155.423 514.854 155.859C515.46 156.285 516.227 156.498 517.155 156.498ZM531.125 160.262L531.097 155.461H531.821C532.332 155.461 532.773 155.338 533.142 155.092C533.521 154.836 533.833 154.424 534.08 153.856C534.326 153.288 534.52 152.535 534.662 151.597C534.804 150.65 534.899 149.486 534.946 148.103L535.301 138.444H551.892V160.262H546.125V143.202H540.742L540.401 149.864C540.315 151.692 540.093 153.264 539.733 154.58C539.383 155.897 538.895 156.976 538.27 157.819C537.645 158.652 536.892 159.268 536.011 159.665C535.131 160.063 534.108 160.262 532.943 160.262H531.125ZM566.441 160.688C564.235 160.688 562.327 160.219 560.717 159.282C559.116 158.335 557.881 157.019 557.009 155.333C556.138 153.638 555.702 151.673 555.702 149.438C555.702 147.184 556.138 145.215 557.009 143.529C557.881 141.834 559.116 140.518 560.717 139.58C562.327 138.633 564.235 138.16 566.441 138.16C568.648 138.16 570.551 138.633 572.151 139.58C573.761 140.518 575.002 141.834 575.873 143.529C576.744 145.215 577.18 147.184 577.18 149.438C577.18 151.673 576.744 153.638 575.873 155.333C575.002 157.019 573.761 158.335 572.151 159.282C570.551 160.219 568.648 160.688 566.441 160.688ZM566.47 156.001C567.473 156.001 568.311 155.717 568.984 155.148C569.656 154.571 570.163 153.785 570.504 152.79C570.854 151.796 571.029 150.665 571.029 149.396C571.029 148.127 570.854 146.995 570.504 146.001C570.163 145.006 569.656 144.22 568.984 143.643C568.311 143.065 567.473 142.776 566.47 142.776C565.456 142.776 564.604 143.065 563.913 143.643C563.231 144.22 562.715 145.006 562.364 146.001C562.024 146.995 561.853 148.127 561.853 149.396C561.853 150.665 562.024 151.796 562.364 152.79C562.715 153.785 563.231 154.571 563.913 155.148C564.604 155.717 565.456 156.001 566.47 156.001ZM581.114 160.262V138.444H590.418C593.108 138.444 595.234 138.955 596.796 139.978C598.359 141.001 599.14 142.454 599.14 144.339C599.14 145.522 598.7 146.507 597.819 147.293C596.938 148.079 595.717 148.61 594.154 148.884C595.461 148.979 596.574 149.277 597.492 149.779C598.42 150.272 599.126 150.911 599.609 151.697C600.101 152.483 600.347 153.354 600.347 154.31C600.347 155.551 600.016 156.616 599.353 157.506C598.7 158.397 597.738 159.078 596.47 159.552C595.21 160.025 593.671 160.262 591.853 160.262H581.114ZM586.754 155.731H591.853C592.696 155.731 593.354 155.532 593.827 155.134C594.31 154.727 594.552 154.173 594.552 153.472C594.552 152.696 594.31 152.085 593.827 151.64C593.354 151.195 592.696 150.972 591.853 150.972H586.754V155.731ZM586.754 147.421H590.546C591.152 147.421 591.668 147.336 592.095 147.165C592.53 146.986 592.862 146.73 593.089 146.398C593.326 146.067 593.444 145.674 593.444 145.219C593.444 144.547 593.174 144.022 592.634 143.643C592.095 143.264 591.356 143.075 590.418 143.075H586.754V147.421ZM610.383 160.674C608.991 160.674 607.75 160.433 606.661 159.95C605.572 159.457 604.711 158.733 604.076 157.776C603.451 156.81 603.139 155.608 603.139 154.168C603.139 152.956 603.361 151.938 603.806 151.114C604.251 150.29 604.857 149.628 605.624 149.126C606.391 148.624 607.263 148.245 608.238 147.989C609.223 147.734 610.255 147.554 611.335 147.45C612.604 147.317 613.626 147.194 614.403 147.08C615.179 146.957 615.743 146.777 616.093 146.54C616.443 146.304 616.619 145.953 616.619 145.489V145.404C616.619 144.504 616.335 143.808 615.766 143.316C615.208 142.824 614.412 142.577 613.38 142.577C612.291 142.577 611.425 142.819 610.781 143.302C610.137 143.775 609.711 144.372 609.502 145.092L603.906 144.637C604.19 143.311 604.748 142.165 605.582 141.2C606.415 140.224 607.49 139.476 608.806 138.955C610.132 138.425 611.666 138.16 613.408 138.16C614.621 138.16 615.781 138.302 616.889 138.586C618.006 138.87 618.996 139.31 619.857 139.907C620.729 140.504 621.415 141.271 621.917 142.208C622.419 143.136 622.67 144.249 622.67 145.546V160.262H616.931V157.237H616.761C616.41 157.918 615.942 158.52 615.354 159.04C614.767 159.552 614.062 159.954 613.238 160.248C612.414 160.532 611.462 160.674 610.383 160.674ZM612.116 156.498C613.006 156.498 613.792 156.323 614.474 155.972C615.156 155.612 615.691 155.129 616.079 154.523C616.467 153.917 616.661 153.231 616.661 152.464V150.148C616.472 150.272 616.211 150.385 615.88 150.489C615.558 150.584 615.193 150.674 614.786 150.759C614.379 150.835 613.972 150.906 613.565 150.972C613.158 151.029 612.788 151.081 612.457 151.129C611.747 151.233 611.126 151.398 610.596 151.626C610.066 151.853 609.654 152.161 609.36 152.549C609.067 152.928 608.92 153.401 608.92 153.969C608.92 154.793 609.218 155.423 609.815 155.859C610.421 156.285 611.188 156.498 612.116 156.498ZM625.173 143.202V138.444H644.946V143.202H637.915V160.262H632.148V143.202H625.173ZM652.407 145.148H658.927C661.815 145.148 664.069 145.84 665.688 147.222C667.308 148.595 668.117 150.433 668.117 152.734C668.117 154.23 667.753 155.546 667.024 156.683C666.294 157.809 665.243 158.69 663.87 159.325C662.497 159.95 660.849 160.262 658.927 160.262H648.614V138.444H654.396V155.504H658.927C659.94 155.504 660.774 155.248 661.427 154.737C662.08 154.225 662.412 153.572 662.421 152.776C662.412 151.933 662.08 151.247 661.427 150.717C660.774 150.177 659.94 149.907 658.927 149.907H652.407V145.148ZM679.36 131.171L678.806 151.54H673.607L673.039 131.171H679.36ZM676.207 160.631C675.269 160.631 674.464 160.3 673.792 159.637C673.12 158.965 672.788 158.16 672.798 157.222C672.788 156.294 673.12 155.499 673.792 154.836C674.464 154.173 675.269 153.842 676.207 153.842C677.106 153.842 677.897 154.173 678.579 154.836C679.261 155.499 679.606 156.294 679.616 157.222C679.606 157.847 679.441 158.42 679.119 158.941C678.806 159.452 678.394 159.864 677.883 160.177C677.372 160.48 676.813 160.631 676.207 160.631Z" fill="url(#paint0_linear_1_5)"/>
<path d="M445.698 190.504V202.14H443.948V192.004H438.471V202.14H436.721V190.504H445.698ZM452.008 202.316C451.148 202.316 450.407 202.133 449.786 201.765C449.169 201.394 448.691 200.873 448.354 200.203C448.021 199.528 447.854 198.739 447.854 197.833C447.854 196.939 448.021 196.152 448.354 195.47C448.691 194.788 449.161 194.256 449.763 193.873C450.369 193.491 451.078 193.299 451.888 193.299C452.381 193.299 452.858 193.381 453.32 193.544C453.782 193.706 454.197 193.962 454.565 194.311C454.932 194.659 455.222 195.112 455.434 195.669C455.646 196.222 455.752 196.894 455.752 197.686V198.288H448.815V197.015H454.087C454.087 196.568 453.996 196.172 453.815 195.828C453.633 195.479 453.377 195.205 453.047 195.004C452.722 194.803 452.339 194.703 451.9 194.703C451.422 194.703 451.006 194.82 450.65 195.055C450.297 195.286 450.025 195.589 449.832 195.964C449.642 196.335 449.547 196.739 449.547 197.174V198.169C449.547 198.752 449.65 199.248 449.854 199.657C450.063 200.066 450.352 200.379 450.724 200.595C451.095 200.807 451.529 200.913 452.025 200.913C452.347 200.913 452.64 200.867 452.905 200.777C453.171 200.682 453.4 200.542 453.593 200.356C453.786 200.171 453.934 199.941 454.036 199.669L455.644 199.958C455.515 200.432 455.284 200.847 454.951 201.203C454.621 201.555 454.207 201.83 453.707 202.027C453.21 202.22 452.644 202.316 452.008 202.316ZM457.637 205.413V193.413H459.296V194.828H459.438C459.537 194.646 459.679 194.436 459.864 194.197C460.05 193.958 460.307 193.75 460.637 193.572C460.966 193.39 461.402 193.299 461.944 193.299C462.648 193.299 463.277 193.477 463.83 193.833C464.383 194.189 464.817 194.703 465.131 195.373C465.449 196.044 465.609 196.85 465.609 197.794C465.609 198.737 465.451 199.546 465.137 200.22C464.823 200.89 464.391 201.407 463.841 201.771C463.292 202.131 462.665 202.311 461.961 202.311C461.431 202.311 460.997 202.222 460.66 202.044C460.326 201.866 460.065 201.657 459.876 201.419C459.686 201.18 459.54 200.968 459.438 200.782H459.336V205.413H457.637ZM459.302 197.777C459.302 198.39 459.391 198.928 459.569 199.39C459.747 199.852 460.004 200.214 460.341 200.475C460.679 200.733 461.091 200.862 461.58 200.862C462.088 200.862 462.512 200.727 462.853 200.458C463.194 200.186 463.451 199.816 463.626 199.35C463.804 198.885 463.893 198.36 463.893 197.777C463.893 197.201 463.806 196.684 463.631 196.225C463.461 195.767 463.203 195.405 462.859 195.14C462.518 194.875 462.091 194.742 461.58 194.742C461.088 194.742 460.671 194.869 460.33 195.123C459.993 195.377 459.737 195.731 459.563 196.186C459.389 196.64 459.302 197.171 459.302 197.777ZM471.273 202.316C470.413 202.316 469.673 202.133 469.052 201.765C468.434 201.394 467.957 200.873 467.62 200.203C467.287 199.528 467.12 198.739 467.12 197.833C467.12 196.939 467.287 196.152 467.62 195.47C467.957 194.788 468.427 194.256 469.029 193.873C469.635 193.491 470.343 193.299 471.154 193.299C471.646 193.299 472.124 193.381 472.586 193.544C473.048 193.706 473.463 193.962 473.83 194.311C474.198 194.659 474.487 195.112 474.699 195.669C474.912 196.222 475.018 196.894 475.018 197.686V198.288H468.08V197.015H473.353C473.353 196.568 473.262 196.172 473.08 195.828C472.898 195.479 472.643 195.205 472.313 195.004C471.987 194.803 471.605 194.703 471.165 194.703C470.688 194.703 470.271 194.82 469.915 195.055C469.563 195.286 469.29 195.589 469.097 195.964C468.908 196.335 468.813 196.739 468.813 197.174V198.169C468.813 198.752 468.915 199.248 469.12 199.657C469.328 200.066 469.618 200.379 469.989 200.595C470.36 200.807 470.794 200.913 471.29 200.913C471.612 200.913 471.906 200.867 472.171 200.777C472.436 200.682 472.665 200.542 472.859 200.356C473.052 200.171 473.199 199.941 473.302 199.669L474.91 199.958C474.781 200.432 474.55 200.847 474.216 201.203C473.887 201.555 473.472 201.83 472.972 202.027C472.476 202.22 471.91 202.316 471.273 202.316ZM476.05 204.657V200.669H476.761C476.942 200.502 477.096 200.303 477.221 200.072C477.35 199.841 477.457 199.566 477.545 199.248C477.636 198.93 477.711 198.559 477.772 198.135C477.832 197.706 477.886 197.218 477.931 196.669L478.204 193.413H484.136V200.669H485.476V204.657H483.817V202.14H477.732V204.657H476.05ZM478.579 200.669H482.476V194.867H479.726L479.545 196.669C479.457 197.585 479.348 198.381 479.215 199.055C479.082 199.725 478.87 200.263 478.579 200.669ZM491.371 202.14V193.413H494.991C495.975 193.413 496.756 193.623 497.332 194.044C497.907 194.46 498.195 195.027 498.195 195.742C498.195 196.254 498.032 196.659 497.707 196.958C497.381 197.258 496.949 197.458 496.411 197.561C496.801 197.606 497.159 197.724 497.485 197.913C497.811 198.099 498.072 198.349 498.269 198.663C498.47 198.977 498.57 199.352 498.57 199.788C498.57 200.25 498.451 200.659 498.212 201.015C497.974 201.367 497.627 201.644 497.172 201.845C496.722 202.042 496.178 202.14 495.542 202.14H491.371ZM492.968 200.72H495.542C495.962 200.72 496.292 200.619 496.53 200.419C496.769 200.218 496.888 199.945 496.888 199.6C496.888 199.195 496.769 198.877 496.53 198.646C496.292 198.411 495.962 198.294 495.542 198.294H492.968V200.72ZM492.968 197.049H495.008C495.326 197.049 495.599 197.004 495.826 196.913C496.057 196.822 496.233 196.693 496.354 196.527C496.479 196.356 496.542 196.155 496.542 195.924C496.542 195.587 496.404 195.324 496.127 195.135C495.85 194.945 495.472 194.85 494.991 194.85H492.968V197.049ZM502.974 202.333C502.421 202.333 501.921 202.231 501.474 202.027C501.027 201.818 500.672 201.517 500.411 201.123C500.154 200.729 500.025 200.246 500.025 199.674C500.025 199.182 500.119 198.777 500.309 198.458C500.498 198.14 500.754 197.888 501.076 197.703C501.398 197.517 501.758 197.377 502.155 197.282C502.553 197.188 502.958 197.116 503.371 197.066C503.894 197.006 504.318 196.956 504.644 196.919C504.97 196.877 505.207 196.811 505.354 196.72C505.502 196.629 505.576 196.481 505.576 196.277V196.237C505.576 195.741 505.436 195.356 505.155 195.083C504.879 194.811 504.466 194.674 503.917 194.674C503.345 194.674 502.894 194.801 502.565 195.055C502.239 195.305 502.013 195.583 501.888 195.89L500.292 195.527C500.481 194.996 500.758 194.568 501.121 194.242C501.489 193.913 501.911 193.674 502.388 193.527C502.866 193.375 503.368 193.299 503.894 193.299C504.243 193.299 504.612 193.341 505.002 193.424C505.396 193.504 505.763 193.652 506.104 193.867C506.449 194.083 506.731 194.392 506.951 194.794C507.171 195.191 507.28 195.708 507.28 196.345V202.14H505.621V200.947H505.553C505.443 201.167 505.279 201.383 505.059 201.595C504.839 201.807 504.557 201.983 504.212 202.123C503.868 202.263 503.455 202.333 502.974 202.333ZM503.343 200.97C503.813 200.97 504.214 200.877 504.547 200.691C504.885 200.506 505.14 200.263 505.315 199.964C505.493 199.661 505.582 199.337 505.582 198.992V197.867C505.521 197.928 505.404 197.985 505.229 198.038C505.059 198.087 504.864 198.131 504.644 198.169C504.424 198.203 504.21 198.235 504.002 198.265C503.794 198.292 503.619 198.314 503.479 198.333C503.15 198.375 502.849 198.445 502.576 198.544C502.307 198.642 502.091 198.784 501.928 198.97C501.769 199.152 501.69 199.394 501.69 199.697C501.69 200.117 501.845 200.436 502.155 200.652C502.466 200.864 502.862 200.97 503.343 200.97ZM514.441 200.038L517.259 193.413H518.725L515.072 202.14H513.81L510.231 193.413H511.68L514.441 200.038ZM511.208 193.413V202.14H509.543V193.413H511.208ZM517.719 202.14V193.413H519.373V202.14H517.719ZM523.302 199.76L527.148 193.413H528.978V202.14H527.313V195.788L523.484 202.14H521.637V193.413H523.302V199.76ZM643.894 204.657V200.669H644.604C644.786 200.502 644.94 200.303 645.065 200.072C645.193 199.841 645.301 199.566 645.388 199.248C645.479 198.93 645.555 198.559 645.616 198.135C645.676 197.706 645.729 197.218 645.775 196.669L646.047 193.413H651.979V200.669H653.32V204.657H651.661V202.14H645.576V204.657H643.894ZM646.422 200.669H650.32V194.867H647.57L647.388 196.669C647.301 197.585 647.191 198.381 647.059 199.055C646.926 199.725 646.714 200.263 646.422 200.669ZM654.293 202.14L654.288 200.669H654.6C654.842 200.669 655.045 200.617 655.208 200.515C655.375 200.409 655.511 200.231 655.617 199.981C655.723 199.731 655.805 199.386 655.861 198.947C655.918 198.504 655.96 197.947 655.986 197.277L656.14 193.413H662.231V202.14H660.566V194.879H657.714L657.577 197.845C657.543 198.564 657.469 199.193 657.356 199.731C657.246 200.269 657.085 200.718 656.873 201.078C656.661 201.434 656.388 201.701 656.055 201.879C655.721 202.053 655.316 202.14 654.839 202.14H654.293ZM669.701 202.14V194.862H667.61C667.114 194.862 666.727 194.977 666.451 195.208C666.174 195.439 666.036 195.742 666.036 196.117C666.036 196.489 666.163 196.788 666.417 197.015C666.674 197.239 667.034 197.35 667.496 197.35H670.195V198.725H667.496C666.852 198.725 666.296 198.619 665.826 198.407C665.36 198.191 665 197.886 664.746 197.492C664.496 197.099 664.371 196.633 664.371 196.095C664.371 195.546 664.5 195.072 664.758 194.674C665.019 194.273 665.392 193.962 665.877 193.742C666.366 193.523 666.943 193.413 667.61 193.413H671.297V202.14H669.701ZM663.974 202.14L666.434 197.731H668.172L665.712 202.14H663.974ZM430.137 221.14V212.413H437.256V221.14H435.591V213.879H431.79V221.14H430.137ZM443.204 221.316C442.386 221.316 441.672 221.129 441.062 220.754C440.452 220.379 439.978 219.854 439.641 219.18C439.304 218.506 439.136 217.718 439.136 216.816C439.136 215.911 439.304 215.119 439.641 214.441C439.978 213.763 440.452 213.237 441.062 212.862C441.672 212.487 442.386 212.299 443.204 212.299C444.022 212.299 444.736 212.487 445.346 212.862C445.956 213.237 446.429 213.763 446.766 214.441C447.103 215.119 447.272 215.911 447.272 216.816C447.272 217.718 447.103 218.506 446.766 219.18C446.429 219.854 445.956 220.379 445.346 220.754C444.736 221.129 444.022 221.316 443.204 221.316ZM443.209 219.89C443.74 219.89 444.179 219.75 444.528 219.47C444.876 219.189 445.134 218.816 445.3 218.35C445.471 217.885 445.556 217.371 445.556 216.811C445.556 216.254 445.471 215.742 445.3 215.277C445.134 214.807 444.876 214.43 444.528 214.146C444.179 213.862 443.74 213.72 443.209 213.72C442.675 213.72 442.232 213.862 441.88 214.146C441.531 214.43 441.272 214.807 441.101 215.277C440.935 215.742 440.851 216.254 440.851 216.811C440.851 217.371 440.935 217.885 441.101 218.35C441.272 218.816 441.531 219.189 441.88 219.47C442.232 219.75 442.675 219.89 443.209 219.89ZM454.066 219.038L456.884 212.413H458.35L454.697 221.14H453.435L449.856 212.413H451.305L454.066 219.038ZM450.833 212.413V221.14H449.168V212.413H450.833ZM457.344 221.14V212.413H458.998V221.14H457.344ZM464.938 221.316C464.12 221.316 463.406 221.129 462.796 220.754C462.186 220.379 461.713 219.854 461.376 219.18C461.038 218.506 460.87 217.718 460.87 216.816C460.87 215.911 461.038 215.119 461.376 214.441C461.713 213.763 462.186 213.237 462.796 212.862C463.406 212.487 464.12 212.299 464.938 212.299C465.756 212.299 466.47 212.487 467.08 212.862C467.69 213.237 468.163 213.763 468.501 214.441C468.838 215.119 469.006 215.911 469.006 216.816C469.006 217.718 468.838 218.506 468.501 219.18C468.163 219.854 467.69 220.379 467.08 220.754C466.47 221.129 465.756 221.316 464.938 221.316ZM464.944 219.89C465.474 219.89 465.913 219.75 466.262 219.47C466.61 219.189 466.868 218.816 467.035 218.35C467.205 217.885 467.29 217.371 467.29 216.811C467.29 216.254 467.205 215.742 467.035 215.277C466.868 214.807 466.61 214.43 466.262 214.146C465.913 213.862 465.474 213.72 464.944 213.72C464.41 213.72 463.966 213.862 463.614 214.146C463.266 214.43 463.006 214.807 462.836 215.277C462.669 215.742 462.586 216.254 462.586 216.811C462.586 217.371 462.669 217.885 462.836 218.35C463.006 218.816 463.266 219.189 463.614 219.47C463.966 219.75 464.41 219.89 464.944 219.89ZM483.408 219.674L483.249 223.64H481.584V221.14H480.499V219.674H483.408ZM470.903 212.413H472.567V219.669H475.584V212.413H477.249V219.669H480.266V212.413H481.931V221.14H470.903V212.413ZM486.864 218.76L490.711 212.413H492.54V221.14H490.876V214.788L487.046 221.14H485.199V212.413H486.864V218.76ZM502.735 221.316C501.89 221.316 501.163 221.125 500.553 220.742C499.947 220.356 499.481 219.824 499.155 219.146C498.83 218.468 498.667 217.691 498.667 216.816C498.667 215.93 498.833 215.148 499.167 214.47C499.5 213.788 499.97 213.256 500.576 212.873C501.182 212.491 501.896 212.299 502.718 212.299C503.381 212.299 503.972 212.422 504.491 212.669C505.01 212.911 505.428 213.252 505.746 213.691C506.068 214.131 506.26 214.644 506.32 215.231H504.667C504.576 214.822 504.368 214.47 504.042 214.174C503.72 213.879 503.288 213.731 502.746 213.731C502.273 213.731 501.858 213.856 501.502 214.106C501.15 214.352 500.875 214.705 500.678 215.163C500.481 215.617 500.383 216.155 500.383 216.777C500.383 217.413 500.479 217.962 500.672 218.424C500.866 218.886 501.138 219.244 501.491 219.498C501.847 219.752 502.265 219.879 502.746 219.879C503.068 219.879 503.36 219.82 503.621 219.703C503.886 219.581 504.108 219.409 504.286 219.186C504.468 218.962 504.595 218.693 504.667 218.379H506.32C506.26 218.943 506.076 219.447 505.769 219.89C505.462 220.333 505.051 220.682 504.536 220.936C504.025 221.189 503.424 221.316 502.735 221.316ZM507.476 213.879V212.413H514.84V213.879H511.993V221.14H510.334V213.879H507.476ZM517.711 224.413C517.457 224.413 517.226 224.392 517.018 224.35C516.809 224.313 516.654 224.271 516.552 224.225L516.961 222.833C517.271 222.917 517.548 222.953 517.79 222.941C518.033 222.93 518.247 222.839 518.432 222.669C518.622 222.498 518.788 222.22 518.932 221.833L519.143 221.254L515.949 212.413H517.768L519.978 219.186H520.069L522.279 212.413H524.103L520.506 222.305C520.34 222.76 520.127 223.144 519.87 223.458C519.612 223.777 519.306 224.015 518.949 224.174C518.593 224.333 518.181 224.413 517.711 224.413ZM524.128 223.657V219.669H524.839C525.02 219.502 525.174 219.303 525.299 219.072C525.428 218.841 525.536 218.566 525.623 218.248C525.714 217.93 525.789 217.559 525.85 217.135C525.911 216.706 525.964 216.218 526.009 215.669L526.282 212.413H532.214V219.669H533.555V223.657H531.895V221.14H525.81V223.657H524.128ZM526.657 219.669H530.555V213.867H527.805L527.623 215.669C527.536 216.585 527.426 217.381 527.293 218.055C527.161 218.725 526.949 219.263 526.657 219.669ZM538.976 221.316C538.117 221.316 537.376 221.133 536.755 220.765C536.137 220.394 535.66 219.873 535.323 219.203C534.99 218.528 534.823 217.739 534.823 216.833C534.823 215.939 534.99 215.152 535.323 214.47C535.66 213.788 536.13 213.256 536.732 212.873C537.338 212.491 538.047 212.299 538.857 212.299C539.35 212.299 539.827 212.381 540.289 212.544C540.751 212.706 541.166 212.962 541.533 213.311C541.901 213.659 542.19 214.112 542.403 214.669C542.615 215.222 542.721 215.894 542.721 216.686V217.288H535.783V216.015H541.056C541.056 215.568 540.965 215.172 540.783 214.828C540.601 214.479 540.346 214.205 540.016 214.004C539.69 213.803 539.308 213.703 538.868 213.703C538.391 213.703 537.975 213.82 537.618 214.055C537.266 214.286 536.993 214.589 536.8 214.964C536.611 215.335 536.516 215.739 536.516 216.174V217.169C536.516 217.752 536.618 218.248 536.823 218.657C537.031 219.066 537.321 219.379 537.692 219.595C538.064 219.807 538.497 219.913 538.993 219.913C539.315 219.913 539.609 219.867 539.874 219.777C540.139 219.682 540.368 219.542 540.562 219.356C540.755 219.171 540.903 218.941 541.005 218.669L542.613 218.958C542.484 219.432 542.253 219.847 541.92 220.203C541.59 220.555 541.175 220.83 540.675 221.027C540.179 221.22 539.613 221.316 538.976 221.316ZM550.52 216.044V217.515H545.793V216.044H550.52ZM546.27 212.413V221.14H544.606V212.413H546.27ZM551.708 212.413V221.14H550.049V212.413H551.708ZM552.898 213.879V212.413H560.262V213.879H557.415V221.14H555.756V213.879H552.898ZM564.192 221.333C563.639 221.333 563.139 221.231 562.692 221.027C562.245 220.818 561.891 220.517 561.63 220.123C561.372 219.729 561.243 219.246 561.243 218.674C561.243 218.182 561.338 217.777 561.528 217.458C561.717 217.14 561.973 216.888 562.295 216.703C562.617 216.517 562.976 216.377 563.374 216.282C563.772 216.188 564.177 216.116 564.59 216.066C565.113 216.006 565.537 215.956 565.863 215.919C566.189 215.877 566.425 215.811 566.573 215.72C566.721 215.629 566.795 215.481 566.795 215.277V215.237C566.795 214.741 566.654 214.356 566.374 214.083C566.098 213.811 565.685 213.674 565.136 213.674C564.564 213.674 564.113 213.801 563.783 214.055C563.457 214.305 563.232 214.583 563.107 214.89L561.511 214.527C561.7 213.996 561.976 213.568 562.34 213.242C562.707 212.913 563.13 212.674 563.607 212.527C564.084 212.375 564.586 212.299 565.113 212.299C565.461 212.299 565.831 212.341 566.221 212.424C566.615 212.504 566.982 212.652 567.323 212.867C567.668 213.083 567.95 213.392 568.17 213.794C568.389 214.191 568.499 214.708 568.499 215.345V221.14H566.84V219.947H566.772C566.662 220.167 566.497 220.383 566.278 220.595C566.058 220.807 565.776 220.983 565.431 221.123C565.086 221.263 564.673 221.333 564.192 221.333ZM564.562 219.97C565.031 219.97 565.433 219.877 565.766 219.691C566.103 219.506 566.359 219.263 566.533 218.964C566.711 218.661 566.8 218.337 566.8 217.992V216.867C566.74 216.928 566.622 216.985 566.448 217.038C566.278 217.087 566.082 217.131 565.863 217.169C565.643 217.203 565.429 217.235 565.221 217.265C565.012 217.292 564.838 217.314 564.698 217.333C564.368 217.375 564.067 217.445 563.795 217.544C563.526 217.642 563.31 217.784 563.147 217.97C562.988 218.152 562.908 218.394 562.908 218.697C562.908 219.117 563.064 219.436 563.374 219.652C563.685 219.864 564.081 219.97 564.562 219.97ZM575.66 219.038L578.478 212.413H579.944L576.29 221.14H575.029L571.449 212.413H572.898L575.66 219.038ZM572.427 212.413V221.14H570.762V212.413H572.427ZM578.938 221.14V212.413H580.591V221.14H578.938ZM585.066 219.549L584.981 220.169C584.924 220.623 584.827 221.097 584.691 221.589C584.558 222.085 584.42 222.546 584.276 222.97C584.136 223.394 584.02 223.731 583.93 223.981H582.725C582.774 223.746 582.842 223.428 582.93 223.027C583.017 222.629 583.102 222.184 583.185 221.691C583.269 221.199 583.331 220.697 583.373 220.186L583.43 219.549H585.066ZM593.177 218.76L597.023 212.413H598.853V221.14H597.188V214.788L593.359 221.14H591.512V212.413H593.177V218.76ZM610.269 219.038L613.087 212.413H614.553L610.9 221.14H609.638L606.059 212.413H607.508L610.269 219.038ZM607.036 212.413V221.14H605.371V212.413H607.036ZM613.547 221.14V212.413H615.201V221.14H613.547ZM618.743 215.413H621.278C622.346 215.413 623.168 215.678 623.743 216.208C624.319 216.739 624.607 217.422 624.607 218.26C624.607 218.805 624.478 219.296 624.221 219.731C623.963 220.167 623.586 220.511 623.09 220.765C622.594 221.015 621.99 221.14 621.278 221.14H617.465V212.413H619.13V219.674H621.278C621.766 219.674 622.168 219.547 622.482 219.294C622.797 219.036 622.954 218.708 622.954 218.311C622.954 217.89 622.797 217.547 622.482 217.282C622.168 217.013 621.766 216.879 621.278 216.879H618.743V215.413ZM625.846 221.14V212.413H627.545V221.14H625.846ZM633.542 218.833H635.28C635.303 219.189 635.464 219.464 635.763 219.657C636.066 219.85 636.458 219.947 636.94 219.947C637.428 219.947 637.845 219.843 638.19 219.635C638.534 219.422 638.707 219.095 638.707 218.652C638.707 218.386 638.64 218.155 638.508 217.958C638.379 217.758 638.195 217.602 637.957 217.492C637.722 217.383 637.443 217.328 637.121 217.328H635.701V215.992H637.121C637.602 215.992 637.962 215.883 638.201 215.663C638.44 215.443 638.559 215.169 638.559 214.839C638.559 214.483 638.43 214.197 638.172 213.981C637.919 213.761 637.565 213.652 637.11 213.652C636.648 213.652 636.263 213.756 635.957 213.964C635.65 214.169 635.489 214.434 635.474 214.76H633.758C633.769 214.271 633.917 213.843 634.201 213.475C634.489 213.104 634.875 212.816 635.36 212.612C635.849 212.403 636.404 212.299 637.025 212.299C637.672 212.299 638.233 212.403 638.707 212.612C639.18 212.82 639.546 213.108 639.803 213.475C640.065 213.843 640.195 214.265 640.195 214.742C640.195 215.224 640.051 215.617 639.763 215.924C639.479 216.227 639.108 216.445 638.65 216.578V216.669C638.987 216.691 639.286 216.794 639.547 216.975C639.809 217.157 640.013 217.398 640.161 217.697C640.309 217.996 640.383 218.335 640.383 218.714C640.383 219.248 640.235 219.71 639.94 220.1C639.648 220.491 639.243 220.792 638.724 221.004C638.208 221.212 637.619 221.316 636.957 221.316C636.313 221.316 635.735 221.216 635.224 221.015C634.716 220.811 634.313 220.523 634.013 220.152C633.718 219.78 633.561 219.341 633.542 218.833ZM641.285 223.657V219.669H641.995C642.177 219.502 642.33 219.303 642.455 219.072C642.584 218.841 642.692 218.566 642.779 218.248C642.87 217.93 642.946 217.559 643.006 217.135C643.067 216.706 643.12 216.218 643.165 215.669L643.438 212.413H649.37V219.669H650.711V223.657H649.052V221.14H642.966V223.657H641.285ZM643.813 219.669H647.711V213.867H644.961L644.779 215.669C644.692 216.585 644.582 217.381 644.449 218.055C644.317 218.725 644.105 219.263 643.813 219.669ZM656.133 221.316C655.273 221.316 654.532 221.133 653.911 220.765C653.294 220.394 652.816 219.873 652.479 219.203C652.146 218.528 651.979 217.739 651.979 216.833C651.979 215.939 652.146 215.152 652.479 214.47C652.816 213.788 653.286 213.256 653.888 212.873C654.494 212.491 655.203 212.299 656.013 212.299C656.506 212.299 656.983 212.381 657.445 212.544C657.907 212.706 658.322 212.962 658.69 213.311C659.057 213.659 659.347 214.112 659.559 214.669C659.771 215.222 659.877 215.894 659.877 216.686V217.288H652.94V216.015H658.212C658.212 215.568 658.121 215.172 657.94 214.828C657.758 214.479 657.502 214.205 657.172 214.004C656.847 213.803 656.464 213.703 656.025 213.703C655.547 213.703 655.131 213.82 654.775 214.055C654.422 214.286 654.15 214.589 653.957 214.964C653.767 215.335 653.672 215.739 653.672 216.174V217.169C653.672 217.752 653.775 218.248 653.979 218.657C654.188 219.066 654.477 219.379 654.849 219.595C655.22 219.807 655.654 219.913 656.15 219.913C656.472 219.913 656.765 219.867 657.03 219.777C657.296 219.682 657.525 219.542 657.718 219.356C657.911 219.171 658.059 218.941 658.161 218.669L659.769 218.958C659.64 219.432 659.409 219.847 659.076 220.203C658.746 220.555 658.332 220.83 657.832 221.027C657.335 221.22 656.769 221.316 656.133 221.316ZM665.438 221.316C664.593 221.316 663.866 221.125 663.256 220.742C662.65 220.356 662.184 219.824 661.859 219.146C661.533 218.468 661.37 217.691 661.37 216.816C661.37 215.93 661.537 215.148 661.87 214.47C662.203 213.788 662.673 213.256 663.279 212.873C663.885 212.491 664.599 212.299 665.421 212.299C666.084 212.299 666.675 212.422 667.194 212.669C667.713 212.911 668.131 213.252 668.449 213.691C668.771 214.131 668.963 214.644 669.023 215.231H667.37C667.279 214.822 667.071 214.47 666.745 214.174C666.423 213.879 665.991 213.731 665.449 213.731C664.976 213.731 664.561 213.856 664.205 214.106C663.853 214.352 663.578 214.705 663.381 215.163C663.184 215.617 663.086 216.155 663.086 216.777C663.086 217.413 663.182 217.962 663.376 218.424C663.569 218.886 663.841 219.244 664.194 219.498C664.55 219.752 664.968 219.879 665.449 219.879C665.771 219.879 666.063 219.82 666.324 219.703C666.59 219.581 666.811 219.409 666.989 219.186C667.171 218.962 667.298 218.693 667.37 218.379H669.023C668.963 218.943 668.779 219.447 668.472 219.89C668.165 220.333 667.754 220.682 667.239 220.936C666.728 221.189 666.127 221.316 665.438 221.316ZM672.118 215.413H674.653C675.721 215.413 676.543 215.678 677.118 216.208C677.694 216.739 677.982 217.422 677.982 218.26C677.982 218.805 677.853 219.296 677.596 219.731C677.338 220.167 676.961 220.511 676.465 220.765C675.969 221.015 675.365 221.14 674.653 221.14H670.84V212.413H672.505V219.674H674.653C675.141 219.674 675.543 219.547 675.857 219.294C676.172 219.036 676.329 218.708 676.329 218.311C676.329 217.89 676.172 217.547 675.857 217.282C675.543 217.013 675.141 216.879 674.653 216.879H672.118V215.413ZM442.894 242.657V238.669H443.604C443.786 238.502 443.94 238.303 444.065 238.072C444.193 237.841 444.301 237.566 444.388 237.248C444.479 236.93 444.555 236.559 444.616 236.135C444.676 235.706 444.729 235.218 444.775 234.669L445.047 231.413H450.979V238.669H452.32V242.657H450.661V240.14H444.576V242.657H442.894ZM445.422 238.669H449.32V232.867H446.57L446.388 234.669C446.301 235.585 446.191 236.381 446.059 237.055C445.926 237.725 445.714 238.263 445.422 238.669ZM453.293 240.14L453.288 238.669H453.6C453.842 238.669 454.045 238.617 454.208 238.515C454.375 238.409 454.511 238.231 454.617 237.981C454.723 237.731 454.805 237.386 454.861 236.947C454.918 236.504 454.96 235.947 454.986 235.277L455.14 231.413H461.231V240.14H459.566V232.879H456.714L456.577 235.845C456.543 236.564 456.469 237.193 456.356 237.731C456.246 238.269 456.085 238.718 455.873 239.078C455.661 239.434 455.388 239.701 455.055 239.879C454.721 240.053 454.316 240.14 453.839 240.14H453.293ZM468.701 240.14V232.862H466.61C466.114 232.862 465.727 232.977 465.451 233.208C465.174 233.439 465.036 233.742 465.036 234.117C465.036 234.489 465.163 234.788 465.417 235.015C465.674 235.239 466.034 235.35 466.496 235.35H469.195V236.725H466.496C465.852 236.725 465.296 236.619 464.826 236.407C464.36 236.191 464 235.886 463.746 235.492C463.496 235.099 463.371 234.633 463.371 234.095C463.371 233.546 463.5 233.072 463.758 232.674C464.019 232.273 464.392 231.962 464.877 231.742C465.366 231.523 465.943 231.413 466.61 231.413H470.297V240.14H468.701ZM462.974 240.14L465.434 235.731H467.172L464.712 240.14H462.974ZM476.305 232.879V231.413H483.668V232.879H480.822V240.14H479.163V232.879H476.305ZM488.735 240.316C487.917 240.316 487.203 240.129 486.593 239.754C485.983 239.379 485.51 238.854 485.172 238.18C484.835 237.506 484.667 236.718 484.667 235.816C484.667 234.911 484.835 234.119 485.172 233.441C485.51 232.763 485.983 232.237 486.593 231.862C487.203 231.487 487.917 231.299 488.735 231.299C489.553 231.299 490.267 231.487 490.877 231.862C491.487 232.237 491.96 232.763 492.297 233.441C492.635 234.119 492.803 234.911 492.803 235.816C492.803 236.718 492.635 237.506 492.297 238.18C491.96 238.854 491.487 239.379 490.877 239.754C490.267 240.129 489.553 240.316 488.735 240.316ZM488.741 238.89C489.271 238.89 489.71 238.75 490.059 238.47C490.407 238.189 490.665 237.816 490.832 237.35C491.002 236.885 491.087 236.371 491.087 235.811C491.087 235.254 491.002 234.742 490.832 234.277C490.665 233.807 490.407 233.43 490.059 233.146C489.71 232.862 489.271 232.72 488.741 232.72C488.207 232.72 487.763 232.862 487.411 233.146C487.063 233.43 486.803 233.807 486.633 234.277C486.466 234.742 486.383 235.254 486.383 235.811C486.383 236.371 486.466 236.885 486.633 237.35C486.803 237.816 487.063 238.189 487.411 238.47C487.763 238.75 488.207 238.89 488.741 238.89ZM500.279 231.413V232.879H496.376V240.14H494.699V231.413H500.279ZM505.344 240.316C504.526 240.316 503.812 240.129 503.202 239.754C502.592 239.379 502.119 238.854 501.782 238.18C501.445 237.506 501.276 236.718 501.276 235.816C501.276 234.911 501.445 234.119 501.782 233.441C502.119 232.763 502.592 232.237 503.202 231.862C503.812 231.487 504.526 231.299 505.344 231.299C506.163 231.299 506.877 231.487 507.486 231.862C508.096 232.237 508.57 232.763 508.907 233.441C509.244 234.119 509.413 234.911 509.413 235.816C509.413 236.718 509.244 237.506 508.907 238.18C508.57 238.854 508.096 239.379 507.486 239.754C506.877 240.129 506.163 240.316 505.344 240.316ZM505.35 238.89C505.88 238.89 506.32 238.75 506.668 238.47C507.017 238.189 507.274 237.816 507.441 237.35C507.611 236.885 507.697 236.371 507.697 235.811C507.697 235.254 507.611 234.742 507.441 234.277C507.274 233.807 507.017 233.43 506.668 233.146C506.32 232.862 505.88 232.72 505.35 232.72C504.816 232.72 504.373 232.862 504.02 233.146C503.672 233.43 503.413 233.807 503.242 234.277C503.075 234.742 502.992 235.254 502.992 235.811C502.992 236.371 503.075 236.885 503.242 237.35C503.413 237.816 503.672 238.189 504.02 238.47C504.373 238.75 504.816 238.89 505.35 238.89ZM513.519 238.549L513.434 239.169C513.377 239.623 513.28 240.097 513.144 240.589C513.011 241.085 512.873 241.546 512.729 241.97C512.589 242.394 512.474 242.731 512.383 242.981H511.178C511.227 242.746 511.296 242.428 511.383 242.027C511.47 241.629 511.555 241.184 511.638 240.691C511.722 240.199 511.784 239.697 511.826 239.186L511.883 238.549H513.519ZM526.971 231.413V240.14H525.312V231.413H526.971ZM526.249 235.464V236.93C525.988 237.036 525.711 237.131 525.42 237.214C525.128 237.294 524.821 237.356 524.499 237.402C524.177 237.447 523.842 237.47 523.493 237.47C522.414 237.47 521.556 237.206 520.92 236.68C520.283 236.15 519.965 235.339 519.965 234.248V231.396H521.618V234.248C521.618 234.661 521.694 234.996 521.846 235.254C521.997 235.511 522.213 235.701 522.493 235.822C522.774 235.943 523.107 236.004 523.493 236.004C524.005 236.004 524.476 235.956 524.908 235.862C525.344 235.763 525.791 235.631 526.249 235.464ZM528.148 232.879V231.413H535.512V232.879H532.665V240.14H531.006V232.879H528.148ZM540.579 240.316C539.761 240.316 539.047 240.129 538.437 239.754C537.827 239.379 537.353 238.854 537.016 238.18C536.679 237.506 536.511 236.718 536.511 235.816C536.511 234.911 536.679 234.119 537.016 233.441C537.353 232.763 537.827 232.237 538.437 231.862C539.047 231.487 539.761 231.299 540.579 231.299C541.397 231.299 542.111 231.487 542.721 231.862C543.331 232.237 543.804 232.763 544.141 233.441C544.478 234.119 544.647 234.911 544.647 235.816C544.647 236.718 544.478 237.506 544.141 238.18C543.804 238.854 543.331 239.379 542.721 239.754C542.111 240.129 541.397 240.316 540.579 240.316ZM540.584 238.89C541.115 238.89 541.554 238.75 541.903 238.47C542.251 238.189 542.509 237.816 542.675 237.35C542.846 236.885 542.931 236.371 542.931 235.811C542.931 235.254 542.846 234.742 542.675 234.277C542.509 233.807 542.251 233.43 541.903 233.146C541.554 232.862 541.115 232.72 540.584 232.72C540.05 232.72 539.607 232.862 539.255 233.146C538.906 233.43 538.647 233.807 538.476 234.277C538.31 234.742 538.226 235.254 538.226 235.811C538.226 236.371 538.31 236.885 538.476 237.35C538.647 237.816 538.906 238.189 539.255 238.47C539.607 238.75 540.05 238.89 540.584 238.89ZM553.276 228.163L553.981 229.237C553.719 229.475 553.422 229.646 553.089 229.748C552.759 229.847 552.378 229.909 551.947 229.936C551.515 229.958 551.02 229.979 550.464 229.998C549.835 230.017 549.318 230.153 548.913 230.407C548.507 230.657 548.195 231.028 547.975 231.521C547.759 232.01 547.619 232.623 547.555 233.362H547.663C547.947 232.82 548.341 232.415 548.844 232.146C549.352 231.877 549.922 231.742 550.555 231.742C551.259 231.742 551.886 231.903 552.435 232.225C552.984 232.547 553.416 233.019 553.731 233.64C554.049 234.258 554.208 235.013 554.208 235.907C554.208 236.813 554.041 237.595 553.708 238.254C553.378 238.913 552.913 239.422 552.31 239.782C551.712 240.138 551.005 240.316 550.191 240.316C549.377 240.316 548.666 240.133 548.06 239.765C547.458 239.394 546.99 238.845 546.657 238.117C546.327 237.39 546.163 236.492 546.163 235.424V234.561C546.163 232.564 546.519 231.063 547.231 230.055C547.943 229.047 549.007 228.53 550.424 228.504C550.882 228.492 551.291 228.491 551.651 228.498C552.011 228.502 552.325 228.485 552.594 228.447C552.867 228.405 553.094 228.311 553.276 228.163ZM550.197 238.89C550.67 238.89 551.077 238.771 551.418 238.532C551.763 238.29 552.028 237.947 552.214 237.504C552.399 237.061 552.492 236.538 552.492 235.936C552.492 235.345 552.399 234.843 552.214 234.43C552.028 234.017 551.763 233.703 551.418 233.487C551.074 233.267 550.661 233.157 550.18 233.157C549.824 233.157 549.505 233.22 549.225 233.345C548.945 233.466 548.704 233.646 548.503 233.885C548.306 234.123 548.153 234.415 548.043 234.76C547.937 235.1 547.88 235.492 547.873 235.936C547.873 236.837 548.079 237.555 548.492 238.089C548.909 238.623 549.477 238.89 550.197 238.89ZM557.384 234.413H559.918C560.986 234.413 561.808 234.678 562.384 235.208C562.96 235.739 563.248 236.422 563.248 237.26C563.248 237.805 563.119 238.296 562.861 238.731C562.604 239.167 562.227 239.511 561.731 239.765C561.234 240.015 560.63 240.14 559.918 240.14H556.106V231.413H557.77V238.674H559.918C560.407 238.674 560.808 238.547 561.123 238.294C561.437 238.036 561.594 237.708 561.594 237.311C561.594 236.89 561.437 236.547 561.123 236.282C560.808 236.013 560.407 235.879 559.918 235.879H557.384V234.413ZM564.486 240.14V231.413H566.185V240.14H564.486ZM572.699 240.14V231.413H579.819V240.14H578.154V232.879H574.353V240.14H572.699ZM585.766 240.316C584.948 240.316 584.234 240.129 583.624 239.754C583.014 239.379 582.541 238.854 582.204 238.18C581.867 237.506 581.698 236.718 581.698 235.816C581.698 234.911 581.867 234.119 582.204 233.441C582.541 232.763 583.014 232.237 583.624 231.862C584.234 231.487 584.948 231.299 585.766 231.299C586.584 231.299 587.298 231.487 587.908 231.862C588.518 232.237 588.992 232.763 589.329 233.441C589.666 234.119 589.834 234.911 589.834 235.816C589.834 236.718 589.666 237.506 589.329 238.18C588.992 238.854 588.518 239.379 587.908 239.754C587.298 240.129 586.584 240.316 585.766 240.316ZM585.772 238.89C586.302 238.89 586.742 238.75 587.09 238.47C587.439 238.189 587.696 237.816 587.863 237.35C588.033 236.885 588.118 236.371 588.118 235.811C588.118 235.254 588.033 234.742 587.863 234.277C587.696 233.807 587.439 233.43 587.09 233.146C586.742 232.862 586.302 232.72 585.772 232.72C585.238 232.72 584.795 232.862 584.442 233.146C584.094 233.43 583.834 233.807 583.664 234.277C583.497 234.742 583.414 235.254 583.414 235.811C583.414 236.371 583.497 236.885 583.664 237.35C583.834 237.816 584.094 238.189 584.442 238.47C584.795 238.75 585.238 238.89 585.772 238.89ZM596.628 238.038L599.447 231.413H600.913L597.259 240.14H595.998L592.418 231.413H593.867L596.628 238.038ZM593.395 231.413V240.14H591.731V231.413H593.395ZM599.907 240.14V231.413H601.56V240.14H599.907ZM607.501 240.316C606.682 240.316 605.968 240.129 605.359 239.754C604.749 239.379 604.275 238.854 603.938 238.18C603.601 237.506 603.432 236.718 603.432 235.816C603.432 234.911 603.601 234.119 603.938 233.441C604.275 232.763 604.749 232.237 605.359 231.862C605.968 231.487 606.682 231.299 607.501 231.299C608.319 231.299 609.033 231.487 609.643 231.862C610.252 232.237 610.726 232.763 611.063 233.441C611.4 234.119 611.569 234.911 611.569 235.816C611.569 236.718 611.4 237.506 611.063 238.18C610.726 238.854 610.252 239.379 609.643 239.754C609.033 240.129 608.319 240.316 607.501 240.316ZM607.506 238.89C608.037 238.89 608.476 238.75 608.824 238.47C609.173 238.189 609.431 237.816 609.597 237.35C609.768 236.885 609.853 236.371 609.853 235.811C609.853 235.254 609.768 234.742 609.597 234.277C609.431 233.807 609.173 233.43 608.824 233.146C608.476 232.862 608.037 232.72 607.506 232.72C606.972 232.72 606.529 232.862 606.177 233.146C605.828 233.43 605.569 233.807 605.398 234.277C605.232 234.742 605.148 235.254 605.148 235.811C605.148 236.371 605.232 236.885 605.398 237.35C605.569 237.816 605.828 238.189 606.177 238.47C606.529 238.75 606.972 238.89 607.506 238.89ZM620.471 231.413V240.14H618.812V231.413H620.471ZM619.749 235.464V236.93C619.488 237.036 619.211 237.131 618.92 237.214C618.628 237.294 618.321 237.356 617.999 237.402C617.677 237.447 617.342 237.47 616.993 237.47C615.914 237.47 615.056 237.206 614.42 236.68C613.783 236.15 613.465 235.339 613.465 234.248V231.396H615.118V234.248C615.118 234.661 615.194 234.996 615.346 235.254C615.497 235.511 615.713 235.701 615.993 235.822C616.274 235.943 616.607 236.004 616.993 236.004C617.505 236.004 617.976 235.956 618.408 235.862C618.844 235.763 619.291 235.631 619.749 235.464ZM624.009 234.413H626.543C627.611 234.413 628.433 234.678 629.009 235.208C629.585 235.739 629.873 236.422 629.873 237.26C629.873 237.805 629.744 238.296 629.486 238.731C629.229 239.167 628.852 239.511 628.356 239.765C627.859 240.015 627.255 240.14 626.543 240.14H622.731V231.413H624.395V238.674H626.543C627.032 238.674 627.433 238.547 627.748 238.294C628.062 238.036 628.219 237.708 628.219 237.311C628.219 236.89 628.062 236.547 627.748 236.282C627.433 236.013 627.032 235.879 626.543 235.879H624.009V234.413ZM636.012 240.14V231.413H639.631C640.616 231.413 641.396 231.623 641.972 232.044C642.548 232.46 642.836 233.027 642.836 233.742C642.836 234.254 642.673 234.659 642.347 234.958C642.021 235.258 641.59 235.458 641.052 235.561C641.442 235.606 641.8 235.724 642.126 235.913C642.451 236.099 642.713 236.349 642.91 236.663C643.11 236.977 643.211 237.352 643.211 237.788C643.211 238.25 643.091 238.659 642.853 239.015C642.614 239.367 642.268 239.644 641.813 239.845C641.362 240.042 640.819 240.14 640.182 240.14H636.012ZM637.609 238.72H640.182C640.603 238.72 640.932 238.619 641.171 238.419C641.41 238.218 641.529 237.945 641.529 237.6C641.529 237.195 641.41 236.877 641.171 236.646C640.932 236.411 640.603 236.294 640.182 236.294H637.609V238.72ZM637.609 235.049H639.648C639.966 235.049 640.239 235.004 640.466 234.913C640.698 234.822 640.874 234.693 640.995 234.527C641.12 234.356 641.182 234.155 641.182 233.924C641.182 233.587 641.044 233.324 640.768 233.135C640.491 232.945 640.112 232.85 639.631 232.85H637.609V235.049ZM647.614 240.333C647.061 240.333 646.561 240.231 646.114 240.027C645.667 239.818 645.313 239.517 645.052 239.123C644.794 238.729 644.665 238.246 644.665 237.674C644.665 237.182 644.76 236.777 644.949 236.458C645.139 236.14 645.395 235.888 645.716 235.703C646.038 235.517 646.398 235.377 646.796 235.282C647.194 235.188 647.599 235.116 648.012 235.066C648.535 235.006 648.959 234.956 649.285 234.919C649.61 234.877 649.847 234.811 649.995 234.72C650.143 234.629 650.216 234.481 650.216 234.277V234.237C650.216 233.741 650.076 233.356 649.796 233.083C649.52 232.811 649.107 232.674 648.557 232.674C647.985 232.674 647.535 232.801 647.205 233.055C646.879 233.305 646.654 233.583 646.529 233.89L644.932 233.527C645.122 232.996 645.398 232.568 645.762 232.242C646.129 231.913 646.552 231.674 647.029 231.527C647.506 231.375 648.008 231.299 648.535 231.299C648.883 231.299 649.252 231.341 649.643 231.424C650.037 231.504 650.404 231.652 650.745 231.867C651.09 232.083 651.372 232.392 651.591 232.794C651.811 233.191 651.921 233.708 651.921 234.345V240.14H650.262V238.947H650.194C650.084 239.167 649.919 239.383 649.699 239.595C649.48 239.807 649.198 239.983 648.853 240.123C648.508 240.263 648.095 240.333 647.614 240.333ZM647.984 238.97C648.453 238.97 648.855 238.877 649.188 238.691C649.525 238.506 649.781 238.263 649.955 237.964C650.133 237.661 650.222 237.337 650.222 236.992V235.867C650.162 235.928 650.044 235.985 649.87 236.038C649.699 236.087 649.504 236.131 649.285 236.169C649.065 236.203 648.851 236.235 648.643 236.265C648.434 236.292 648.26 236.314 648.12 236.333C647.79 236.375 647.489 236.445 647.216 236.544C646.948 236.642 646.732 236.784 646.569 236.97C646.41 237.152 646.33 237.394 646.33 237.697C646.33 238.117 646.485 238.436 646.796 238.652C647.107 238.864 647.502 238.97 647.984 238.97ZM659.082 238.038L661.9 231.413H663.366L659.712 240.14H658.451L654.871 231.413H656.32L659.082 238.038ZM655.849 231.413V240.14H654.184V231.413H655.849ZM662.36 240.14V231.413H664.013V240.14H662.36ZM452.731 254.044V255.515H448.004V254.044H452.731ZM448.481 250.413V259.14H446.817V250.413H448.481ZM453.919 250.413V259.14H452.26V250.413H453.919ZM458.731 259.333C458.178 259.333 457.678 259.231 457.231 259.027C456.784 258.818 456.43 258.517 456.169 258.123C455.911 257.729 455.783 257.246 455.783 256.674C455.783 256.182 455.877 255.777 456.067 255.458C456.256 255.14 456.512 254.888 456.834 254.703C457.156 254.517 457.516 254.377 457.913 254.282C458.311 254.188 458.716 254.116 459.129 254.066C459.652 254.006 460.076 253.956 460.402 253.919C460.728 253.877 460.964 253.811 461.112 253.72C461.26 253.629 461.334 253.481 461.334 253.277V253.237C461.334 252.741 461.194 252.356 460.913 252.083C460.637 251.811 460.224 251.674 459.675 251.674C459.103 251.674 458.652 251.801 458.322 252.055C457.997 252.305 457.771 252.583 457.646 252.89L456.05 252.527C456.239 251.996 456.516 251.568 456.879 251.242C457.247 250.913 457.669 250.674 458.146 250.527C458.623 250.375 459.125 250.299 459.652 250.299C460 250.299 460.37 250.341 460.76 250.424C461.154 250.504 461.521 250.652 461.862 250.867C462.207 251.083 462.489 251.392 462.709 251.794C462.928 252.191 463.038 252.708 463.038 253.345V259.14H461.379V257.947H461.311C461.201 258.167 461.036 258.383 460.817 258.595C460.597 258.807 460.315 258.983 459.97 259.123C459.625 259.263 459.212 259.333 458.731 259.333ZM459.101 257.97C459.57 257.97 459.972 257.877 460.305 257.691C460.642 257.506 460.898 257.263 461.072 256.964C461.25 256.661 461.339 256.337 461.339 255.992V254.867C461.279 254.928 461.161 254.985 460.987 255.038C460.817 255.087 460.622 255.131 460.402 255.169C460.182 255.203 459.968 255.235 459.76 255.265C459.551 255.292 459.377 255.314 459.237 255.333C458.908 255.375 458.606 255.445 458.334 255.544C458.065 255.642 457.849 255.784 457.686 255.97C457.527 256.152 457.447 256.394 457.447 256.697C457.447 257.117 457.603 257.436 457.913 257.652C458.224 257.864 458.62 257.97 459.101 257.97ZM472.307 250.413V259.14H470.648V250.413H472.307ZM471.585 254.464V255.93C471.324 256.036 471.047 256.131 470.756 256.214C470.464 256.294 470.157 256.356 469.835 256.402C469.513 256.447 469.178 256.47 468.829 256.47C467.75 256.47 466.892 256.206 466.256 255.68C465.619 255.15 465.301 254.339 465.301 253.248V250.396H466.954V253.248C466.954 253.661 467.03 253.996 467.182 254.254C467.333 254.511 467.549 254.701 467.829 254.822C468.11 254.943 468.443 255.004 468.829 255.004C469.341 255.004 469.812 254.956 470.244 254.862C470.68 254.763 471.127 254.631 471.585 254.464ZM477.106 259.333C476.553 259.333 476.053 259.231 475.606 259.027C475.159 258.818 474.805 258.517 474.544 258.123C474.286 257.729 474.158 257.246 474.158 256.674C474.158 256.182 474.252 255.777 474.442 255.458C474.631 255.14 474.887 254.888 475.209 254.703C475.531 254.517 475.891 254.377 476.288 254.282C476.686 254.188 477.091 254.116 477.504 254.066C478.027 254.006 478.451 253.956 478.777 253.919C479.103 253.877 479.339 253.811 479.487 253.72C479.635 253.629 479.709 253.481 479.709 253.277V253.237C479.709 252.741 479.569 252.356 479.288 252.083C479.012 251.811 478.599 251.674 478.05 251.674C477.478 251.674 477.027 251.801 476.697 252.055C476.372 252.305 476.146 252.583 476.021 252.89L474.425 252.527C474.614 251.996 474.891 251.568 475.254 251.242C475.622 250.913 476.044 250.674 476.521 250.527C476.998 250.375 477.5 250.299 478.027 250.299C478.375 250.299 478.745 250.341 479.135 250.424C479.529 250.504 479.896 250.652 480.237 250.867C480.582 251.083 480.864 251.392 481.084 251.794C481.303 252.191 481.413 252.708 481.413 253.345V259.14H479.754V257.947H479.686C479.576 258.167 479.411 258.383 479.192 258.595C478.972 258.807 478.69 258.983 478.345 259.123C478 259.263 477.587 259.333 477.106 259.333ZM477.476 257.97C477.945 257.97 478.347 257.877 478.68 257.691C479.017 257.506 479.273 257.263 479.447 256.964C479.625 256.661 479.714 256.337 479.714 255.992V254.867C479.654 254.928 479.536 254.985 479.362 255.038C479.192 255.087 478.997 255.131 478.777 255.169C478.557 255.203 478.343 255.235 478.135 255.265C477.926 255.292 477.752 255.314 477.612 255.333C477.283 255.375 476.981 255.445 476.709 255.544C476.44 255.642 476.224 255.784 476.061 255.97C475.902 256.152 475.822 256.394 475.822 256.697C475.822 257.117 475.978 257.436 476.288 257.652C476.599 257.864 476.995 257.97 477.476 257.97ZM482.594 251.879V250.413H489.957V251.879H487.111V259.14H485.452V251.879H482.594ZM493.033 253.413H495.567C496.635 253.413 497.457 253.678 498.033 254.208C498.608 254.739 498.896 255.422 498.896 256.26C498.896 256.805 498.767 257.296 498.51 257.731C498.252 258.167 497.875 258.511 497.379 258.765C496.883 259.015 496.279 259.14 495.567 259.14H491.754V250.413H493.419V257.674H495.567C496.055 257.674 496.457 257.547 496.771 257.294C497.086 257.036 497.243 256.708 497.243 256.311C497.243 255.89 497.086 255.547 496.771 255.282C496.457 255.013 496.055 254.879 495.567 254.879H493.033V253.413ZM505.035 259.14V250.413H508.655C509.64 250.413 510.42 250.623 510.996 251.044C511.571 251.46 511.859 252.027 511.859 252.742C511.859 253.254 511.696 253.659 511.371 253.958C511.045 254.258 510.613 254.458 510.075 254.561C510.465 254.606 510.823 254.724 511.149 254.913C511.475 255.099 511.736 255.349 511.933 255.663C512.134 255.977 512.234 256.352 512.234 256.788C512.234 257.25 512.115 257.659 511.876 258.015C511.638 258.367 511.291 258.644 510.837 258.845C510.386 259.042 509.842 259.14 509.206 259.14H505.035ZM506.632 257.72H509.206C509.626 257.72 509.956 257.619 510.194 257.419C510.433 257.218 510.552 256.945 510.552 256.6C510.552 256.195 510.433 255.877 510.194 255.646C509.956 255.411 509.626 255.294 509.206 255.294H506.632V257.72ZM506.632 254.049H508.672C508.99 254.049 509.263 254.004 509.49 253.913C509.721 253.822 509.897 253.693 510.018 253.527C510.143 253.356 510.206 253.155 510.206 252.924C510.206 252.587 510.068 252.324 509.791 252.135C509.515 251.945 509.136 251.85 508.655 251.85H506.632V254.049ZM516.638 259.333C516.085 259.333 515.585 259.231 515.138 259.027C514.691 258.818 514.337 258.517 514.075 258.123C513.818 257.729 513.689 257.246 513.689 256.674C513.689 256.182 513.783 255.777 513.973 255.458C514.162 255.14 514.418 254.888 514.74 254.703C515.062 254.517 515.422 254.377 515.819 254.282C516.217 254.188 516.623 254.116 517.035 254.066C517.558 254.006 517.982 253.956 518.308 253.919C518.634 253.877 518.871 253.811 519.018 253.72C519.166 253.629 519.24 253.481 519.24 253.277V253.237C519.24 252.741 519.1 252.356 518.819 252.083C518.543 251.811 518.13 251.674 517.581 251.674C517.009 251.674 516.558 251.801 516.229 252.055C515.903 252.305 515.677 252.583 515.552 252.89L513.956 252.527C514.145 251.996 514.422 251.568 514.785 251.242C515.153 250.913 515.575 250.674 516.052 250.527C516.53 250.375 517.032 250.299 517.558 250.299C517.907 250.299 518.276 250.341 518.666 250.424C519.06 250.504 519.427 250.652 519.768 250.867C520.113 251.083 520.395 251.392 520.615 251.794C520.835 252.191 520.944 252.708 520.944 253.345V259.14H519.285V257.947H519.217C519.107 258.167 518.943 258.383 518.723 258.595C518.503 258.807 518.221 258.983 517.876 259.123C517.532 259.263 517.119 259.333 516.638 259.333ZM517.007 257.97C517.477 257.97 517.878 257.877 518.212 257.691C518.549 257.506 518.804 257.263 518.979 256.964C519.157 256.661 519.246 256.337 519.246 255.992V254.867C519.185 254.928 519.068 254.985 518.893 255.038C518.723 255.087 518.528 255.131 518.308 255.169C518.088 255.203 517.874 255.235 517.666 255.265C517.458 255.292 517.283 255.314 517.143 255.333C516.814 255.375 516.513 255.445 516.24 255.544C515.971 255.642 515.755 255.784 515.592 255.97C515.433 256.152 515.354 256.394 515.354 256.697C515.354 257.117 515.509 257.436 515.819 257.652C516.13 257.864 516.526 257.97 517.007 257.97ZM523.207 250.413H524.872V257.669H527.889V250.413H529.554V257.669H532.571V250.413H534.236V259.14H523.207V250.413ZM537.266 262.413C537.012 262.413 536.781 262.392 536.572 262.35C536.364 262.313 536.209 262.271 536.106 262.225L536.516 260.833C536.826 260.917 537.103 260.953 537.345 260.941C537.587 260.93 537.801 260.839 537.987 260.669C538.176 260.498 538.343 260.22 538.487 259.833L538.697 259.254L535.504 250.413H537.322L539.533 257.186H539.623L541.834 250.413H543.658L540.061 260.305C539.894 260.76 539.682 261.144 539.425 261.458C539.167 261.777 538.86 262.015 538.504 262.174C538.148 262.333 537.735 262.413 537.266 262.413ZM553.165 259.316C552.32 259.316 551.593 259.125 550.983 258.742C550.377 258.356 549.911 257.824 549.585 257.146C549.259 256.468 549.096 255.691 549.096 254.816C549.096 253.93 549.263 253.148 549.596 252.47C549.93 251.788 550.399 251.256 551.006 250.873C551.612 250.491 552.326 250.299 553.148 250.299C553.81 250.299 554.401 250.422 554.92 250.669C555.439 250.911 555.858 251.252 556.176 251.691C556.498 252.131 556.689 252.644 556.75 253.231H555.096C555.006 252.822 554.797 252.47 554.471 252.174C554.149 251.879 553.718 251.731 553.176 251.731C552.703 251.731 552.288 251.856 551.932 252.106C551.579 252.352 551.305 252.705 551.108 253.163C550.911 253.617 550.812 254.155 550.812 254.777C550.812 255.413 550.909 255.962 551.102 256.424C551.295 256.886 551.568 257.244 551.92 257.498C552.276 257.752 552.695 257.879 553.176 257.879C553.498 257.879 553.79 257.82 554.051 257.703C554.316 257.581 554.538 257.409 554.716 257.186C554.898 256.962 555.024 256.693 555.096 256.379H556.75C556.689 256.943 556.506 257.447 556.199 257.89C555.892 258.333 555.481 258.682 554.966 258.936C554.454 259.189 553.854 259.316 553.165 259.316ZM557.906 251.879V250.413H565.27V251.879H562.423V259.14H560.764V251.879H557.906ZM568.141 262.413C567.887 262.413 567.656 262.392 567.447 262.35C567.239 262.313 567.084 262.271 566.981 262.225L567.391 260.833C567.701 260.917 567.978 260.953 568.22 260.941C568.462 260.93 568.676 260.839 568.862 260.669C569.051 260.498 569.218 260.22 569.362 259.833L569.572 259.254L566.379 250.413H568.197L570.408 257.186H570.498L572.709 250.413H574.533L570.936 260.305C570.769 260.76 570.557 261.144 570.3 261.458C570.042 261.777 569.735 262.015 569.379 262.174C569.023 262.333 568.61 262.413 568.141 262.413ZM574.558 261.657V257.669H575.268C575.45 257.502 575.604 257.303 575.729 257.072C575.857 256.841 575.965 256.566 576.052 256.248C576.143 255.93 576.219 255.559 576.28 255.135C576.34 254.706 576.393 254.218 576.439 253.669L576.712 250.413H582.643V257.669H583.984V261.657H582.325V259.14H576.24V261.657H574.558ZM577.087 257.669H580.984V251.867H578.234L578.052 253.669C577.965 254.585 577.855 255.381 577.723 256.055C577.59 256.725 577.378 257.263 577.087 257.669ZM589.406 259.316C588.546 259.316 587.806 259.133 587.185 258.765C586.567 258.394 586.09 257.873 585.753 257.203C585.419 256.528 585.253 255.739 585.253 254.833C585.253 253.939 585.419 253.152 585.753 252.47C586.09 251.788 586.56 251.256 587.162 250.873C587.768 250.491 588.476 250.299 589.287 250.299C589.779 250.299 590.257 250.381 590.719 250.544C591.181 250.706 591.596 250.962 591.963 251.311C592.33 251.659 592.62 252.112 592.832 252.669C593.044 253.222 593.15 253.894 593.15 254.686V255.288H586.213V254.015H591.486C591.486 253.568 591.395 253.172 591.213 252.828C591.031 252.479 590.775 252.205 590.446 252.004C590.12 251.803 589.738 251.703 589.298 251.703C588.821 251.703 588.404 251.82 588.048 252.055C587.696 252.286 587.423 252.589 587.23 252.964C587.041 253.335 586.946 253.739 586.946 254.174V255.169C586.946 255.752 587.048 256.248 587.253 256.657C587.461 257.066 587.751 257.379 588.122 257.595C588.493 257.807 588.927 257.913 589.423 257.913C589.745 257.913 590.039 257.867 590.304 257.777C590.569 257.682 590.798 257.542 590.991 257.356C591.185 257.171 591.332 256.941 591.435 256.669L593.042 256.958C592.914 257.432 592.683 257.847 592.349 258.203C592.02 258.555 591.605 258.83 591.105 259.027C590.609 259.22 590.042 259.316 589.406 259.316ZM600.95 254.044V255.515H596.223V254.044H600.95ZM596.7 250.413V259.14H595.035V250.413H596.7ZM602.138 250.413V259.14H600.479V250.413H602.138ZM611.416 250.413V259.14H609.757V250.413H611.416ZM610.694 254.464V255.93C610.433 256.036 610.157 256.131 609.865 256.214C609.573 256.294 609.266 256.356 608.944 256.402C608.623 256.447 608.287 256.47 607.939 256.47C606.859 256.47 606.001 256.206 605.365 255.68C604.729 255.15 604.41 254.339 604.41 253.248V250.396H606.064V253.248C606.064 253.661 606.14 253.996 606.291 254.254C606.443 254.511 606.658 254.701 606.939 254.822C607.219 254.943 607.552 255.004 607.939 255.004C608.45 255.004 608.922 254.956 609.354 254.862C609.789 254.763 610.236 254.631 610.694 254.464ZM617.437 259.316C616.578 259.316 615.837 259.133 615.216 258.765C614.598 258.394 614.121 257.873 613.784 257.203C613.451 256.528 613.284 255.739 613.284 254.833C613.284 253.939 613.451 253.152 613.784 252.47C614.121 251.788 614.591 251.256 615.193 250.873C615.799 250.491 616.507 250.299 617.318 250.299C617.81 250.299 618.288 250.381 618.75 250.544C619.212 250.706 619.627 250.962 619.994 251.311C620.362 251.659 620.651 252.112 620.864 252.669C621.076 253.222 621.182 253.894 621.182 254.686V255.288H614.244V254.015H619.517C619.517 253.568 619.426 253.172 619.244 252.828C619.062 252.479 618.807 252.205 618.477 252.004C618.151 251.803 617.769 251.703 617.329 251.703C616.852 251.703 616.435 251.82 616.079 252.055C615.727 252.286 615.454 252.589 615.261 252.964C615.072 253.335 614.977 253.739 614.977 254.174V255.169C614.977 255.752 615.079 256.248 615.284 256.657C615.492 257.066 615.782 257.379 616.153 257.595C616.524 257.807 616.958 257.913 617.454 257.913C617.776 257.913 618.07 257.867 618.335 257.777C618.6 257.682 618.829 257.542 619.023 257.356C619.216 257.171 619.364 256.941 619.466 256.669L621.074 256.958C620.945 257.432 620.714 257.847 620.381 258.203C620.051 258.555 619.636 258.83 619.136 259.027C618.64 259.22 618.074 259.316 617.437 259.316ZM626.743 259.316C625.898 259.316 625.171 259.125 624.561 258.742C623.955 258.356 623.489 257.824 623.163 257.146C622.837 256.468 622.675 255.691 622.675 254.816C622.675 253.93 622.841 253.148 623.175 252.47C623.508 251.788 623.978 251.256 624.584 250.873C625.19 250.491 625.904 250.299 626.726 250.299C627.389 250.299 627.98 250.422 628.498 250.669C629.017 250.911 629.436 251.252 629.754 251.691C630.076 252.131 630.267 252.644 630.328 253.231H628.675C628.584 252.822 628.375 252.47 628.05 252.174C627.728 251.879 627.296 251.731 626.754 251.731C626.281 251.731 625.866 251.856 625.51 252.106C625.158 252.352 624.883 252.705 624.686 253.163C624.489 253.617 624.391 254.155 624.391 254.777C624.391 255.413 624.487 255.962 624.68 256.424C624.873 256.886 625.146 257.244 625.498 257.498C625.855 257.752 626.273 257.879 626.754 257.879C627.076 257.879 627.368 257.82 627.629 257.703C627.894 257.581 628.116 257.409 628.294 257.186C628.476 256.962 628.603 256.693 628.675 256.379H630.328C630.267 256.943 630.084 257.447 629.777 257.89C629.47 258.333 629.059 258.682 628.544 258.936C628.033 259.189 627.432 259.316 626.743 259.316ZM632.145 259.14V250.413H633.844V254.072H634.662L637.542 250.413H639.645L636.264 254.657L639.685 259.14H637.577L634.946 255.652H633.844V259.14H632.145ZM642.125 262.413C641.871 262.413 641.64 262.392 641.432 262.35C641.223 262.313 641.068 262.271 640.966 262.225L641.375 260.833C641.685 260.917 641.962 260.953 642.204 260.941C642.447 260.93 642.661 260.839 642.846 260.669C643.036 260.498 643.203 260.22 643.346 259.833L643.557 259.254L640.364 250.413H642.182L644.392 257.186H644.483L646.693 250.413H648.517L644.92 260.305C644.754 260.76 644.542 261.144 644.284 261.458C644.026 261.777 643.72 262.015 643.364 262.174C643.007 262.333 642.595 262.413 642.125 262.413ZM654.506 254.106V255.583H649.852V254.106H654.506ZM651.233 250.413V259.14H649.534V250.413H651.233ZM657.165 259.316C656.354 259.316 655.646 259.127 655.04 258.748C654.434 258.369 653.964 257.843 653.631 257.169C653.297 256.491 653.131 255.705 653.131 254.811C653.131 253.909 653.297 253.121 653.631 252.447C653.964 251.769 654.434 251.242 655.04 250.867C655.646 250.489 656.354 250.299 657.165 250.299C657.979 250.299 658.687 250.489 659.29 250.867C659.896 251.242 660.365 251.769 660.699 252.447C661.036 253.121 661.204 253.909 661.204 254.811C661.204 255.705 661.036 256.491 660.699 257.169C660.365 257.843 659.896 258.369 659.29 258.748C658.687 259.127 657.979 259.316 657.165 259.316ZM657.165 257.862C657.714 257.862 658.163 257.724 658.511 257.447C658.864 257.167 659.123 256.796 659.29 256.333C659.456 255.871 659.54 255.364 659.54 254.811C659.54 254.254 659.456 253.744 659.29 253.282C659.123 252.816 658.864 252.443 658.511 252.163C658.163 251.883 657.714 251.742 657.165 251.742C656.619 251.742 656.17 251.883 655.818 252.163C655.466 252.443 655.206 252.816 655.04 253.282C654.873 253.744 654.79 254.254 654.79 254.811C654.79 255.364 654.873 255.871 655.04 256.333C655.206 256.796 655.466 257.167 655.818 257.447C656.17 257.724 656.619 257.862 657.165 257.862ZM527.291 278.14L530.672 273.674L527.331 269.413H529.308L532.007 273.038H532.615V269.413H534.314V273.038H534.905L537.604 269.413H539.581L536.257 273.674L539.621 278.14H537.604L534.882 274.504H534.314V278.14H532.615V274.504H532.047L529.308 278.14H527.291ZM543.013 275.76L546.859 269.413H548.689V278.14H547.024V271.788L543.194 278.14H541.348V269.413H543.013V275.76ZM550.456 275.833H552.194C552.217 276.189 552.378 276.464 552.677 276.657C552.98 276.85 553.373 276.947 553.854 276.947C554.342 276.947 554.759 276.843 555.104 276.635C555.448 276.422 555.621 276.095 555.621 275.652C555.621 275.386 555.554 275.155 555.422 274.958C555.293 274.758 555.109 274.602 554.871 274.492C554.636 274.383 554.357 274.328 554.035 274.328H552.615V272.992H554.035C554.516 272.992 554.876 272.883 555.115 272.663C555.354 272.443 555.473 272.169 555.473 271.839C555.473 271.483 555.344 271.197 555.087 270.981C554.833 270.761 554.479 270.652 554.024 270.652C553.562 270.652 553.177 270.756 552.871 270.964C552.564 271.169 552.403 271.434 552.388 271.76H550.672C550.683 271.271 550.831 270.843 551.115 270.475C551.403 270.104 551.789 269.816 552.274 269.612C552.763 269.403 553.318 269.299 553.939 269.299C554.587 269.299 555.147 269.403 555.621 269.612C556.094 269.82 556.46 270.108 556.717 270.475C556.979 270.843 557.109 271.265 557.109 271.742C557.109 272.224 556.965 272.617 556.677 272.924C556.393 273.227 556.022 273.445 555.564 273.578V273.669C555.901 273.691 556.2 273.794 556.462 273.975C556.723 274.157 556.927 274.398 557.075 274.697C557.223 274.996 557.297 275.335 557.297 275.714C557.297 276.248 557.149 276.71 556.854 277.1C556.562 277.491 556.157 277.792 555.638 278.004C555.123 278.212 554.533 278.316 553.871 278.316C553.227 278.316 552.649 278.216 552.138 278.015C551.63 277.811 551.227 277.523 550.927 277.152C550.632 276.78 550.475 276.341 550.456 275.833ZM564.966 273.044V274.515H560.239V273.044H564.966ZM560.716 269.413V278.14H559.051V269.413H560.716ZM566.153 269.413V278.14H564.494V269.413H566.153ZM569.704 272.413H572.239C573.307 272.413 574.129 272.678 574.704 273.208C575.28 273.739 575.568 274.422 575.568 275.26C575.568 275.805 575.439 276.296 575.182 276.731C574.924 277.167 574.547 277.511 574.051 277.765C573.555 278.015 572.951 278.14 572.239 278.14H568.426V269.413H570.091V276.674H572.239C572.727 276.674 573.129 276.547 573.443 276.294C573.757 276.036 573.915 275.708 573.915 275.311C573.915 274.89 573.757 274.547 573.443 274.282C573.129 274.013 572.727 273.879 572.239 273.879H569.704V272.413ZM579.615 266.504L579.467 274.794H577.893L577.746 266.504H579.615ZM578.683 278.248C578.369 278.248 578.1 278.138 577.876 277.919C577.653 277.695 577.543 277.426 577.547 277.112C577.543 276.801 577.653 276.536 577.876 276.316C578.1 276.093 578.369 275.981 578.683 275.981C578.99 275.981 579.255 276.093 579.479 276.316C579.702 276.536 579.816 276.801 579.819 277.112C579.816 277.32 579.761 277.511 579.655 277.686C579.552 277.856 579.416 277.992 579.246 278.095C579.075 278.197 578.888 278.248 578.683 278.248Z" fill="#2D3342"/>
<path d="M535.32 205.413V193.413H537.707V194.879H537.815C537.921 194.644 538.074 194.405 538.275 194.163C538.479 193.917 538.744 193.712 539.07 193.549C539.4 193.383 539.809 193.299 540.297 193.299C540.934 193.299 541.521 193.466 542.059 193.799C542.597 194.129 543.027 194.627 543.349 195.294C543.671 195.956 543.832 196.788 543.832 197.788C543.832 198.761 543.674 199.583 543.36 200.254C543.049 200.921 542.625 201.426 542.087 201.771C541.553 202.112 540.955 202.282 540.292 202.282C539.822 202.282 539.422 202.205 539.093 202.049C538.767 201.894 538.5 201.699 538.292 201.464C538.083 201.225 537.924 200.985 537.815 200.742H537.741V205.413H535.32ZM537.69 197.777C537.69 198.296 537.761 198.748 537.905 199.135C538.049 199.521 538.258 199.822 538.53 200.038C538.803 200.25 539.135 200.356 539.525 200.356C539.919 200.356 540.252 200.248 540.525 200.032C540.797 199.813 541.004 199.51 541.144 199.123C541.288 198.733 541.36 198.284 541.36 197.777C541.36 197.273 541.29 196.83 541.15 196.447C541.01 196.064 540.803 195.765 540.53 195.549C540.258 195.333 539.922 195.225 539.525 195.225C539.131 195.225 538.797 195.33 538.525 195.538C538.256 195.746 538.049 196.042 537.905 196.424C537.761 196.807 537.69 197.258 537.69 197.777ZM546.658 205.413C546.351 205.413 546.064 205.388 545.795 205.339C545.529 205.294 545.31 205.235 545.136 205.163L545.681 203.356C545.965 203.443 546.221 203.491 546.448 203.498C546.679 203.506 546.878 203.453 547.045 203.339C547.215 203.225 547.353 203.032 547.459 202.76L547.601 202.39L544.471 193.413H547.016L548.823 199.822H548.914L550.738 193.413H553.3L549.908 203.083C549.745 203.553 549.524 203.962 549.243 204.311C548.967 204.663 548.617 204.934 548.192 205.123C547.768 205.316 547.257 205.413 546.658 205.413ZM554.539 202.14V193.413H556.959V196.799H557.641L560.016 193.413H562.857L559.772 197.742L562.891 202.14H560.016L557.863 199.044H556.959V202.14H554.539ZM567.498 202.311C566.615 202.311 565.852 202.123 565.208 201.748C564.568 201.369 564.074 200.843 563.725 200.169C563.377 199.491 563.202 198.705 563.202 197.811C563.202 196.909 563.377 196.121 563.725 195.447C564.074 194.769 564.568 194.242 565.208 193.867C565.852 193.489 566.615 193.299 567.498 193.299C568.38 193.299 569.142 193.489 569.782 193.867C570.426 194.242 570.922 194.769 571.27 195.447C571.619 196.121 571.793 196.909 571.793 197.811C571.793 198.705 571.619 199.491 571.27 200.169C570.922 200.843 570.426 201.369 569.782 201.748C569.142 202.123 568.38 202.311 567.498 202.311ZM567.509 200.436C567.911 200.436 568.246 200.322 568.515 200.095C568.784 199.864 568.986 199.549 569.123 199.152C569.263 198.754 569.333 198.301 569.333 197.794C569.333 197.286 569.263 196.833 569.123 196.436C568.986 196.038 568.784 195.724 568.515 195.492C568.246 195.261 567.911 195.146 567.509 195.146C567.104 195.146 566.763 195.261 566.486 195.492C566.214 195.724 566.007 196.038 565.867 196.436C565.731 196.833 565.663 197.286 565.663 197.794C565.663 198.301 565.731 198.754 565.867 199.152C566.007 199.549 566.214 199.864 566.486 200.095C566.763 200.322 567.104 200.436 567.509 200.436ZM573.367 202.14V193.413H577.089C578.164 193.413 579.015 193.617 579.64 194.027C580.265 194.436 580.577 195.017 580.577 195.771C580.577 196.244 580.401 196.638 580.049 196.953C579.697 197.267 579.208 197.479 578.583 197.589C579.106 197.627 579.551 197.746 579.918 197.947C580.289 198.144 580.572 198.4 580.765 198.714C580.962 199.028 581.06 199.377 581.06 199.76C581.06 200.256 580.928 200.682 580.663 201.038C580.401 201.394 580.017 201.667 579.509 201.856C579.005 202.046 578.39 202.14 577.663 202.14H573.367ZM575.623 200.328H577.663C578 200.328 578.263 200.248 578.452 200.089C578.645 199.926 578.742 199.705 578.742 199.424C578.742 199.114 578.645 198.869 578.452 198.691C578.263 198.513 578 198.424 577.663 198.424H575.623V200.328ZM575.623 197.004H577.14C577.382 197.004 577.589 196.97 577.759 196.902C577.933 196.83 578.066 196.727 578.157 196.595C578.252 196.462 578.299 196.305 578.299 196.123C578.299 195.854 578.191 195.644 577.975 195.492C577.759 195.341 577.464 195.265 577.089 195.265H575.623V197.004ZM586.529 202.311C585.646 202.311 584.883 202.123 584.239 201.748C583.599 201.369 583.105 200.843 582.756 200.169C582.408 199.491 582.234 198.705 582.234 197.811C582.234 196.909 582.408 196.121 582.756 195.447C583.105 194.769 583.599 194.242 584.239 193.867C584.883 193.489 585.646 193.299 586.529 193.299C587.412 193.299 588.173 193.489 588.813 193.867C589.457 194.242 589.953 194.769 590.302 195.447C590.65 196.121 590.824 196.909 590.824 197.811C590.824 198.705 590.65 199.491 590.302 200.169C589.953 200.843 589.457 201.369 588.813 201.748C588.173 202.123 587.412 202.311 586.529 202.311ZM586.54 200.436C586.942 200.436 587.277 200.322 587.546 200.095C587.815 199.864 588.018 199.549 588.154 199.152C588.294 198.754 588.364 198.301 588.364 197.794C588.364 197.286 588.294 196.833 588.154 196.436C588.018 196.038 587.815 195.724 587.546 195.492C587.277 195.261 586.942 195.146 586.54 195.146C586.135 195.146 585.794 195.261 585.518 195.492C585.245 195.724 585.038 196.038 584.898 196.436C584.762 196.833 584.694 197.286 584.694 197.794C584.694 198.301 584.762 198.754 584.898 199.152C585.038 199.549 585.245 199.864 585.518 200.095C585.794 200.322 586.135 200.436 586.54 200.436ZM591.716 204.697V200.22H592.387C592.58 200.099 592.735 199.905 592.853 199.64C592.974 199.375 593.073 199.063 593.148 198.703C593.228 198.343 593.288 197.955 593.33 197.538C593.376 197.117 593.415 196.693 593.449 196.265L593.677 193.413H600.37V200.22H601.722V204.697H599.415V202.14H594.08V204.697H591.716ZM594.796 200.22H598.086V195.277H595.734L595.643 196.265C595.578 197.197 595.485 197.989 595.364 198.64C595.243 199.288 595.054 199.814 594.796 200.22ZM607.076 202.311C606.182 202.311 605.413 202.121 604.769 201.742C604.129 201.36 603.636 200.83 603.292 200.152C602.951 199.474 602.78 198.693 602.78 197.811C602.78 196.917 602.953 196.133 603.297 195.458C603.646 194.78 604.14 194.252 604.78 193.873C605.421 193.491 606.182 193.299 607.065 193.299C607.826 193.299 608.493 193.438 609.065 193.714C609.636 193.991 610.089 194.379 610.422 194.879C610.756 195.379 610.94 195.966 610.974 196.64H608.69C608.625 196.205 608.455 195.854 608.178 195.589C607.905 195.32 607.547 195.186 607.104 195.186C606.729 195.186 606.402 195.288 606.121 195.492C605.845 195.693 605.629 195.987 605.474 196.373C605.318 196.76 605.241 197.227 605.241 197.777C605.241 198.333 605.316 198.807 605.468 199.197C605.623 199.587 605.841 199.885 606.121 200.089C606.402 200.294 606.729 200.396 607.104 200.396C607.381 200.396 607.629 200.339 607.849 200.225C608.072 200.112 608.256 199.947 608.4 199.731C608.547 199.511 608.644 199.248 608.69 198.941H610.974C610.936 199.608 610.754 200.195 610.428 200.703C610.106 201.206 609.661 201.6 609.093 201.885C608.525 202.169 607.852 202.311 607.076 202.311ZM611.928 195.316V193.413H619.837V195.316H617.025V202.14H614.718V195.316H611.928ZM621.305 202.14V193.413H625.026C626.102 193.413 626.952 193.617 627.577 194.027C628.202 194.436 628.515 195.017 628.515 195.771C628.515 196.244 628.339 196.638 627.986 196.953C627.634 197.267 627.145 197.479 626.52 197.589C627.043 197.627 627.488 197.746 627.856 197.947C628.227 198.144 628.509 198.4 628.702 198.714C628.899 199.028 628.998 199.377 628.998 199.76C628.998 200.256 628.865 200.682 628.6 201.038C628.339 201.394 627.954 201.667 627.447 201.856C626.943 202.046 626.327 202.14 625.6 202.14H621.305ZM623.56 200.328H625.6C625.937 200.328 626.2 200.248 626.39 200.089C626.583 199.926 626.68 199.705 626.68 199.424C626.68 199.114 626.583 198.869 626.39 198.691C626.2 198.513 625.937 198.424 625.6 198.424H623.56V200.328ZM623.56 197.004H625.077C625.32 197.004 625.526 196.97 625.697 196.902C625.871 196.83 626.003 196.727 626.094 196.595C626.189 196.462 626.236 196.305 626.236 196.123C626.236 195.854 626.128 195.644 625.913 195.492C625.697 195.341 625.401 195.265 625.026 195.265H623.56V197.004ZM634.466 202.311C633.584 202.311 632.821 202.123 632.177 201.748C631.537 201.369 631.042 200.843 630.694 200.169C630.345 199.491 630.171 198.705 630.171 197.811C630.171 196.909 630.345 196.121 630.694 195.447C631.042 194.769 631.537 194.242 632.177 193.867C632.821 193.489 633.584 193.299 634.466 193.299C635.349 193.299 636.11 193.489 636.751 193.867C637.395 194.242 637.891 194.769 638.239 195.447C638.588 196.121 638.762 196.909 638.762 197.811C638.762 198.705 638.588 199.491 638.239 200.169C637.891 200.843 637.395 201.369 636.751 201.748C636.11 202.123 635.349 202.311 634.466 202.311ZM634.478 200.436C634.879 200.436 635.215 200.322 635.484 200.095C635.752 199.864 635.955 199.549 636.091 199.152C636.232 198.754 636.302 198.301 636.302 197.794C636.302 197.286 636.232 196.833 636.091 196.436C635.955 196.038 635.752 195.724 635.484 195.492C635.215 195.261 634.879 195.146 634.478 195.146C634.073 195.146 633.732 195.261 633.455 195.492C633.182 195.724 632.976 196.038 632.836 196.436C632.699 196.833 632.631 197.286 632.631 197.794C632.631 198.301 632.699 198.754 632.836 199.152C632.976 199.549 633.182 199.864 633.455 200.095C633.732 200.322 634.073 200.436 634.478 200.436Z" fill="#5955B3"/>
<path d="M56.6411 188.541C58.6415 188.541 60.2632 186.919 60.2632 184.919C60.2632 182.918 58.6415 181.297 56.6411 181.297C54.6408 181.297 53.0191 182.918 53.0191 184.919C53.0191 186.919 54.6408 188.541 56.6411 188.541Z" stroke="#6663CF" stroke-width="2"/>
<path d="M63.7385 185.288C71.0442 184.536 82.5076 185.425 83.8625 191.076C85.2174 196.727 80.0435 198.794 77.2874 199.121C66.7937 200.789 52.8796 200.004 52.8796 191.076" stroke="#6663CF" stroke-width="2" stroke-linecap="round"/>
<path d="M61.0989 193.835C61.5605 193.835 61.9347 193.46 61.9347 192.999C61.9347 192.537 61.5605 192.163 61.0989 192.163C60.6373 192.163 60.263 192.537 60.263 192.999C60.263 193.46 60.6373 193.835 61.0989 193.835Z" stroke="#6663CF" stroke-width="2"/>
<path d="M69.1788 192.999C69.1788 193.405 68.8005 193.835 68.2037 193.835C67.6068 193.835 67.2285 193.405 67.2285 192.999C67.2285 192.593 67.6068 192.163 68.2037 192.163C68.8005 192.163 69.1788 192.593 69.1788 192.999Z" stroke="#6663CF" stroke-width="2"/>
<path d="M75.3085 193.835C75.7701 193.835 76.1443 193.46 76.1443 192.999C76.1443 192.537 75.7701 192.163 75.3085 192.163C74.8468 192.163 74.4726 192.537 74.4726 192.999C74.4726 193.46 74.8468 193.835 75.3085 193.835Z" stroke="#6663CF" stroke-width="2"/>
<path d="M331.496 86.5673C333.342 86.5673 334.839 85.0704 334.839 83.2239C334.839 81.3774 333.342 79.8805 331.496 79.8805C329.649 79.8805 328.153 81.3774 328.153 83.2239C328.153 85.0704 329.649 86.5673 331.496 86.5673Z" stroke="#6663CF" stroke-width="2"/>
<path d="M338.064 80.2985C340.514 80.2985 347.515 80.2985 350.808 80.2985C353.476 80.2985 354.76 80.8886 354.76 85.0188C354.76 89.0317 354.727 94.2299 354.76 96.3278C354.783 97.8028 354.048 99.4352 351.598 99.6712C349.148 99.9072 339.316 99.7696 334.705 99.6712C332.993 99.6712 329.963 98.7005 329.963 94.7542V90.329" stroke="#6663CF" stroke-width="2" stroke-linecap="round"/>
<path d="M336.372 87.2639L342.501 91.4431" stroke="#6663CF" stroke-width="2" stroke-linecap="round"/>
<path d="M342.501 91.4431L353.646 81.1343" stroke="#6663CF" stroke-width="2" stroke-linecap="round"/>
<path d="M345.326 88.9356L348.371 92.0004L351.417 95.0652" stroke="#6663CF" stroke-width="2" stroke-linecap="round"/>
<path d="M334.143 95.0652L338.636 88.9356" stroke="#6663CF" stroke-width="2" stroke-linecap="round"/>
<path d="M119.19 251.388C118.189 247.521 114.863 240.39 109.573 242.8C104.284 245.211 107.369 249.53 109.573 251.388C111.056 252.393 114.245 253.467 115.133 249.731C116.021 245.994 112.278 244.458 111.226 246.115C110.671 246.768 110.045 248.405 111.978 249.731" stroke="#6663CF" stroke-width="2" stroke-linecap="round"/>
<path d="M145.997 62.608L147.457 63.3648C148.625 63.9708 150.018 63.9628 151.179 63.3435L152.63 62.57C154.093 61.7903 155.815 63.0263 155.544 64.6617L155.276 66.2839C155.06 67.5828 155.498 68.9043 156.446 69.8178L157.63 70.9588C158.824 72.1091 158.18 74.1287 156.541 74.3765L154.916 74.6222C153.614 74.819 152.492 75.6437 151.916 76.8276L151.197 78.3063C150.472 79.7969 148.352 79.8091 147.61 78.3268L146.874 76.8565C146.285 75.6793 145.154 74.8675 143.85 74.6856L142.221 74.4585C140.579 74.2295 139.913 72.2173 141.093 71.0535L142.264 69.899C143.202 68.9747 143.624 67.6482 143.394 66.352L143.107 64.7329C142.817 63.1008 144.525 61.845 145.997 62.608Z" stroke="#6663CF" stroke-width="2"/>
<path d="M228.826 188.517V212.2" stroke="#2B2B2B" stroke-width="2" stroke-linecap="round"/>
<path d="M246.657 191.303V213.871" stroke="#2B2B2B" stroke-width="2" stroke-linecap="round"/>
<path d="M204.951 293.858C199.063 294.591 185.279 297.295 182.259 302.793C181.354 304.443 180.303 308.457 183.346 311.316C186.39 314.175 191.952 313.424 194.352 312.691L208.348 307.055" stroke="#2B2B2B" stroke-width="2" stroke-linecap="round"/>
<path d="M285.19 252.365C274.203 252.719 225.679 276.21 202.79 287.912C200.841 300.807 209.066 310.065 213.423 313.082C236.238 306.459 283.063 293.035 287.848 292.328C292.633 291.622 297.373 288.207 299.144 286.588C311.549 272.104 302.393 259.799 296.265 255.456C291.902 252.365 288.136 252.27 285.19 252.365Z" fill="#2B2B2B"/>
<path d="M182.278 249.079C190.062 249.598 224.02 262.759 240.11 269.657L203.313 288.044C186.845 292.873 176.729 291.283 173.639 290.242C155.806 281.65 162.793 260.453 169.878 252.601C174.445 248.715 179.489 248.893 182.278 249.079Z" fill="#2B2B2B"/>
<path d="M268.915 296.365C273.78 298.703 276.41 301.766 277.744 304.278C280.602 310.82 275.47 314.752 269.611 312.904C266.372 311.882 265.609 311.197 263.894 309.775C263.024 309.053 258.959 305.276 254.319 300.816" stroke="#2B2B2B" stroke-width="2" stroke-linecap="round"/>
<path d="M175.904 192.238L178.851 245.795C179.143 251.097 183.527 255.246 188.836 255.246H279.007C284.53 255.246 289.007 250.769 289.007 245.246V190.434C289.007 184.858 284.447 180.36 278.872 180.435L185.754 181.69C180.069 181.767 175.592 186.561 175.904 192.238Z" fill="#2B2B2B"/>
<rect x="178.675" y="256.221" width="110.332" height="5.29371" rx="2.64685" fill="#2B2B2B"/>
<path d="M246.936 150.904C256.641 150.765 278.001 158.148 286.499 181.412" stroke="#2B2B2B" stroke-width="2" stroke-linecap="round"/>
<path d="M225.622 150.765C203.472 155.083 192.884 164.556 184.526 182.806" stroke="#2B2B2B" stroke-width="2" stroke-linecap="round"/>
<path d="M299.734 172.799L305.167 163.744" stroke="#2B2B2B" stroke-width="2" stroke-linecap="round"/>
<path d="M305.167 175.307L312.55 169.177" stroke="#2B2B2B" stroke-width="2" stroke-linecap="round"/>
<path d="M306.281 179.486C307.72 180.043 310.989 180.572 312.55 178.232" stroke="#2B2B2B" stroke-width="2" stroke-linecap="round"/>
<path d="M163.769 171.104L155.41 162.467" stroke="#2B2B2B" stroke-width="2" stroke-linecap="round"/>
<path d="M172.267 169.711L167.252 156.755" stroke="#2B2B2B" stroke-width="2" stroke-linecap="round"/>
<path d="M161.679 175.979L155.41 173.611" stroke="#2B2B2B" stroke-width="2" stroke-linecap="round"/>
<path d="M292.072 197.039C297.226 205.119 303.077 214.731 292.072 232.817" stroke="#2B2B2B" stroke-width="2" stroke-linecap="round"/>
<path d="M247.075 151.6C248.329 147.978 247.187 145.541 246.072 145.077C239.386 151.206 229.244 148.931 225.482 145.216C224.145 146.442 224.925 150.068 225.482 151.183C232.726 159.207 243.035 154.712 247.075 151.6Z" fill="#2B2B2B"/>
<path d="M217.403 173.89L217.964 173.028C221.118 168.186 227.257 166.254 232.616 168.414V168.414C237.427 170.355 242.94 169.009 246.317 165.07L250.697 159.959" stroke="#2B2B2B" stroke-width="2" stroke-linecap="round"/>
<path d="M173.799 202.169C171.71 207.092 169.23 219.026 176.028 227.384" stroke="#2B2B2B" stroke-width="2" stroke-linecap="round"/>
<path d="M263.432 121.363V121.363C262.042 121.363 247.219 108.393 242.124 104.224C237.029 100.055 229.209 89.3463 225.155 86.6218C225.31 96.7254 219.89 106.54 219.89 106.54C218.471 108.876 217.11 109.783 217.11 116.219C217.11 123.551 215.946 122.113 214.975 120.494C212.18 111.478 207.008 114.863 205.067 117.194C198.057 92.2291 217.534 75.2553 224.522 75.9678C229.802 71.46 239.584 74.5665 244.44 76.431C263.432 83.7227 263.432 102.839 263.432 121.363Z" fill="url(#paint1_linear_1_5)"/>
<path d="M216.161 127.382C218.668 142.691 238.503 150.383 247.683 139.892C254.168 132.48 254.631 126.919 254.168 109.319" stroke="#2B2B2B" stroke-width="2" stroke-linecap="round"/>
<path d="M206.242 115.271C204.71 119.032 206.147 127.367 216.161 127.367" stroke="#2B2B2B" stroke-width="2" stroke-linecap="round"/>
<path d="M210.659 117.337C210.437 118.141 210.614 120.048 213.096 121.237" stroke="#2B2B2B" stroke-width="2" stroke-linecap="round"/>
<path d="M254.168 125.416C257.436 124.054 259.74 119.008 258.854 110.928" stroke="#2B2B2B" stroke-width="2" stroke-linecap="round"/>
<path d="M234.249 134.797C237.453 135.632 239.229 135.888 241.661 133.87" stroke="#2B2B2B" stroke-width="2" stroke-linecap="round"/>
<circle cx="246.901" cy="115.149" r="2.08962" fill="#2B2B2B"/>
<circle cx="228.512" cy="115.428" r="2.08962" fill="#2B2B2B"/>
<path d="M223.962 110.65C224.402 109.355 226.299 106.96 230.37 107.737" stroke="#2B2B2B" stroke-width="2" stroke-linecap="round"/>
<path d="M243.465 108.142C244.436 107.301 247.077 106.124 249.873 108.142" stroke="#2B2B2B" stroke-width="2" stroke-linecap="round"/>
<path d="M236.724 113.993C236.4 116.744 236.179 122.323 237.893 122.63" stroke="#2B2B2B" stroke-width="2" stroke-linecap="round"/>
<path d="M317.008 240.363C354.203 250.672 421.015 262.513 390.702 227.408C381.136 217.981 367.019 206.93 344.312 197.178" stroke="#6663CF" stroke-width="2" stroke-linecap="round"/>
<path d="M357.268 168.338C380.393 153.525 417.644 122.923 381.647 119.023C345.649 115.122 312.782 128.635 300.848 135.879" stroke="#6663CF" stroke-width="2" stroke-linecap="round"/>
<path d="M263.262 142.985C278.585 109.969 303.382 41.541 279.978 31.9566C250.724 19.9761 212.832 54.5245 181.906 136.995" stroke="#6663CF" stroke-width="2" stroke-linecap="round"/>
<path d="M152.256 118.25C117.987 99.4895 48.0261 70.6342 42.3423 105.294C36.6586 139.954 106.099 168.865 141.53 178.988" stroke="#6663CF" stroke-width="2" stroke-linecap="round"/>
<path d="M150.627 197.178C100.615 222.671 37.9516 257.929 72.6616 276.305C86.8708 283.828 123.23 279.23 139.947 272.404" stroke="#6663CF" stroke-width="2" stroke-linecap="round"/>
<ellipse cx="232.448" cy="364.069" rx="68.9575" ry="8.35848" fill="#6663CF"/>
<path d="M350.276 289.14C352.422 289.529 357.345 289.391 359.863 285.72" stroke="#6663CF" stroke-width="2" stroke-linecap="round"/>
<path d="M344.616 283.677C345.973 284.166 349.347 284.507 351.985 281.965" stroke="#6663CF" stroke-width="2" stroke-linecap="round"/>
<path d="M340.036 276.745C342.378 276.998 347.611 277.119 349.804 275.582" stroke="#6663CF" stroke-width="2" stroke-linecap="round"/>
<path d="M354.708 298.255C340.959 296.765 332.766 280.986 329.71 271.31C329.319 270.075 330.259 268.858 331.554 268.843L352.905 268.6C353.684 268.591 354.391 269.038 354.764 269.722C359.094 277.649 368.3 284.08 375.027 287.735C376.643 288.613 376.502 291.132 374.758 291.717L355.519 298.164C355.259 298.251 354.981 298.284 354.708 298.255Z" stroke="#6663CF" stroke-width="2" stroke-linecap="round"/>
<defs>
<linearGradient id="paint0_linear_1_5" x1="530.52" y1="72.2621" x2="604.005" y2="98.546" gradientUnits="userSpaceOnUse">
<stop stop-color="#5955B3"/>
<stop offset="1" stop-color="#6563CE"/>
</linearGradient>
<linearGradient id="paint1_linear_1_5" x1="233.809" y1="73.6414" x2="233.809" y2="121.802" gradientUnits="userSpaceOnUse">
<stop stop-color="#2A2A2A"/>
<stop offset="0.825" stop-color="#5955B3"/>
</linearGradient>
</defs>
</svg>
