<svg width="23" height="17" viewBox="0 0 23 17" fill="none" xmlns="http://www.w3.org/2000/svg">
<path fill-rule="evenodd" clip-rule="evenodd" d="M11.3866 10.414L11.4995 10.414L11.7521 10.4149C13.6827 10.4276 18.0946 10.6226 18.0946 13.613C18.0946 16.5837 13.8365 16.7775 11.7822 16.7901L11.0211 16.7901C9.09038 16.7774 4.6776 16.5826 4.6776 13.596C4.6776 10.6215 9.09038 10.4275 11.0211 10.4149L11.2737 10.414C11.3129 10.414 11.3505 10.414 11.3866 10.414ZM11.3866 11.914C9.0106 11.914 6.1776 12.206 6.1776 13.596C6.1776 14.9545 8.84151 15.2722 11.1694 15.2902L11.3866 15.291C13.7626 15.291 16.5946 15 16.5946 13.613C16.5946 12.209 13.7626 11.914 11.3866 11.914ZM19.3402 10.0082C21.7632 10.3712 22.2722 11.5092 22.2722 12.4002C22.2722 12.9442 22.0582 13.9372 20.6282 14.4822C20.5402 14.5152 20.4502 14.5312 20.3612 14.5312C20.0592 14.5312 19.7742 14.3472 19.6602 14.0482C19.5122 13.6612 19.7072 13.2272 20.0942 13.0802C20.7722 12.8222 20.7722 12.5372 20.7722 12.4002C20.7722 11.9622 20.2152 11.6562 19.1172 11.4922C18.7082 11.4302 18.4252 11.0492 18.4862 10.6382C18.5472 10.2282 18.9272 9.9552 19.3402 10.0082ZM4.286 10.6382C4.347 11.0492 4.064 11.4302 3.655 11.4922C2.557 11.6562 2 11.9622 2 12.4002C2 12.5372 2 12.8212 2.679 13.0802C3.066 13.2272 3.261 13.6612 3.113 14.0482C2.999 14.3472 2.714 14.5312 2.412 14.5312C2.323 14.5312 2.233 14.5152 2.145 14.4822C0.714 13.9362 0.5 12.9432 0.5 12.4002C0.5 11.5102 1.009 10.3712 3.433 10.0082C3.846 9.9562 4.224 10.2282 4.286 10.6382ZM11.3866 0C13.9066 0 15.9556 2.05 15.9556 4.569C15.9556 7.088 13.9066 9.138 11.3866 9.138H11.3596C10.1396 9.134 8.9966 8.656 8.1406 7.792C7.2826 6.929 6.8136 5.783 6.81856 4.566C6.81856 2.05 8.8676 0 11.3866 0ZM11.3866 1.5C9.6946 1.5 8.31858 2.877 8.31858 4.569C8.3156 5.389 8.6296 6.156 9.2046 6.735C9.7796 7.314 10.5456 7.635 11.3616 7.638L11.3866 8.388V7.638C13.0786 7.638 14.4556 6.262 14.4556 4.569C14.4556 2.877 13.0786 1.5 11.3866 1.5ZM17.5756 0.9795C19.3336 1.2685 20.6106 2.7725 20.6106 4.5555C20.6066 6.3505 19.2656 7.8905 17.4906 8.1395C17.4556 8.1445 17.4206 8.1465 17.3866 8.1465C17.0186 8.1465 16.6976 7.8755 16.6446 7.5005C16.5876 7.0895 16.8726 6.7105 17.2836 6.6535C18.3236 6.5075 19.1086 5.6055 19.1106 4.5535C19.1106 3.5105 18.3626 2.6285 17.3316 2.4595C16.9236 2.3925 16.6466 2.0065 16.7136 1.5975C16.7816 1.1885 17.1646 0.9145 17.5756 0.9795ZM6.0596 1.5975C6.1266 2.0065 5.8496 2.3925 5.4416 2.4595C4.4106 2.6285 3.6626 3.5105 3.6626 4.5555C3.6646 5.6055 4.4496 6.5085 5.4886 6.6535C5.8996 6.7105 6.1846 7.0895 6.1276 7.5005C6.0746 7.8755 5.7536 8.1465 5.3856 8.1465C5.3516 8.1465 5.3166 8.1445 5.2816 8.1395C3.5066 7.8905 2.1666 6.3505 2.1626 4.5575C2.1626 2.7725 3.4396 1.2685 5.1976 0.9795C5.6186 0.9135 5.9916 1.1905 6.0596 1.5975Z" fill="#D1D0FB"/>
</svg>
