<svg width="217" height="56" viewBox="0 0 217 56" fill="none" xmlns="http://www.w3.org/2000/svg">
<rect x="0.5" width="55" height="56" rx="8" fill="#5B57B7"/>
<path d="M18.8314 7.00037L37.1647 49.0004M18.373 49.0004C14.5227 49.0004 12.5975 49.0004 11.1269 48.2374C9.83325 47.5663 8.78151 46.4954 8.12238 45.1783C7.37305 43.6809 7.37305 41.7207 7.37305 37.8004V18.2004C7.37305 14.28 7.37305 12.3198 8.12238 10.8224C8.78151 9.5053 9.83325 8.43443 11.1269 7.76332C12.5975 7.00037 14.5227 7.00037 18.373 7.00037L20.4997 10.8224L37.6231 7.00037C41.4734 7.00037 43.3986 7.00037 44.8692 7.76332C46.1628 8.43443 47.2146 9.5053 47.8737 10.8224C48.623 12.3198 48.6231 14.28 48.6231 18.2004V37.8004C48.6231 41.7207 48.623 43.6809 47.8737 45.1783C47.2146 46.4954 46.1628 47.5663 44.8692 48.2374C43.3986 49.0004 41.4734 49.0004 37.623 49.0004L34.109 42L18.373 49.0004Z" stroke="white" stroke-width="2" stroke-linecap="round" stroke-linejoin="round"/>
<path d="M42.9618 18.1172V13.9996M39.7265 39.1588V35.0412M40.9397 16.0584H44.9839M37.7044 37.1H41.7486M33.2559 13.176L32.6214 14.4681C32.4067 14.9054 32.2993 15.124 32.1559 15.3135C32.0286 15.4816 31.8806 15.6323 31.7155 15.7619C31.5294 15.9079 31.3147 16.0172 30.8852 16.2359L29.6162 16.8819L30.8852 17.5279C31.3147 17.7466 31.5294 17.8559 31.7155 18.0019C31.8806 18.1315 32.0286 18.2822 32.1559 18.4504C32.2993 18.6398 32.4067 18.8585 32.6214 19.2957L33.2559 20.5878L33.8904 19.2957C34.1051 18.8585 34.2125 18.6398 34.3559 18.4504C34.4832 18.2822 34.6312 18.1315 34.7964 18.0019C34.9824 17.8559 35.1972 17.7466 35.6266 17.5279L36.8956 16.8819L35.6266 16.2359C35.1972 16.0172 34.9824 15.9079 34.7964 15.7619C34.6312 15.6323 34.4832 15.4816 34.3559 15.3135C34.2125 15.124 34.1051 14.9054 33.8904 14.4681L33.2559 13.176ZM38.9177 22.9779L38.1484 24.5444C37.9337 24.9817 37.8263 25.2003 37.6829 25.3898C37.5556 25.5579 37.4075 25.7086 37.2424 25.8382C37.0563 25.9843 36.8416 26.0936 36.4121 26.3122L34.8736 27.0955L36.4121 27.8788C36.8416 28.0974 37.0563 28.2068 37.2424 28.3528C37.4075 28.4824 37.5556 28.6331 37.6829 28.8012C37.8263 28.9907 37.9337 29.2093 38.1484 29.6466L38.9177 31.2132L39.687 29.6466C39.9017 29.2093 40.0091 28.9907 40.1525 28.8012C40.2798 28.6331 40.4278 28.4824 40.5929 28.3528C40.779 28.2068 40.9937 28.0974 41.4232 27.8788L42.9618 27.0955L41.4232 26.3122C40.9937 26.0936 40.779 25.9843 40.5929 25.8382C40.4278 25.7087 40.2798 25.5579 40.1525 25.3898C40.0091 25.2003 39.9017 24.9817 39.687 24.5444L38.9177 22.9779Z" stroke="white" stroke-linecap="round" stroke-linejoin="round"/>
<path d="M16.7487 22.1954C16.6431 22.3182 16.5497 22.4567 16.4717 22.6099C15.9586 23.6178 16.3069 24.8796 17.2496 25.4281C18.1924 25.9766 19.3726 25.6043 19.8857 24.5964C19.9721 24.4266 20.0341 24.2496 20.0729 24.0701M16.7487 22.1954C17.6076 21.8645 19.4749 21.7761 20.0729 24.0701M16.7487 22.1954C16.9292 21.9856 17.1453 21.8215 17.3814 21.7082M20.0729 24.0701C20.1666 23.6368 20.1254 23.1884 19.9672 22.79M17.3814 21.7082C17.9162 21.4515 18.5531 21.4555 19.1077 21.7782C19.5085 22.0114 19.8018 22.3734 19.9672 22.79M17.3814 21.7082C17.8878 21.6421 19.1141 21.7659 19.9672 22.79" stroke="white" stroke-linecap="round"/>
<path d="M15.5869 29.2887C16.7388 29.2887 19.3018 29.1274 20.3385 28.4821C21.6344 27.6755 12.5632 43.4043 20.7704 40.5812" stroke="white" stroke-width="2" stroke-linecap="round"/>
<path d="M61.7642 21V6.45455H67.5028C68.6061 6.45455 69.5459 6.66525 70.3224 7.08665C71.099 7.50331 71.6908 8.08333 72.098 8.8267C72.5099 9.56534 72.7159 10.4176 72.7159 11.3835C72.7159 12.3494 72.5076 13.2017 72.0909 13.9403C71.6742 14.679 71.0705 15.2543 70.2798 15.6662C69.4938 16.0781 68.5421 16.2841 67.4247 16.2841H63.767V13.8196H66.9276C67.5194 13.8196 68.0071 13.7178 68.3906 13.5142C68.7789 13.3059 69.0677 13.0194 69.2571 12.6548C69.4512 12.2855 69.5483 11.8617 69.5483 11.3835C69.5483 10.9006 69.4512 10.4792 69.2571 10.1193C69.0677 9.75473 68.7789 9.47301 68.3906 9.27415C68.0024 9.07055 67.5099 8.96875 66.9134 8.96875H64.8395V21H61.7642ZM76.5245 25.0909C76.141 25.0909 75.7811 25.0601 75.445 24.9986C75.1135 24.9418 74.8389 24.8684 74.6211 24.7784L75.3029 22.5199C75.658 22.6288 75.9776 22.688 76.2617 22.6974C76.5505 22.7069 76.7991 22.6406 77.0075 22.4986C77.2205 22.3565 77.3933 22.1151 77.5259 21.7741L77.7035 21.3125L73.7901 10.0909H76.9719L79.2305 18.1023H79.3441L81.6239 10.0909H84.8271L80.587 22.179C80.3834 22.7661 80.1064 23.2775 79.756 23.7131C79.4104 24.1534 78.9724 24.492 78.4421 24.7287C77.9118 24.9702 77.2726 25.0909 76.5245 25.0909ZM86.3754 21V10.0909H89.4009V14.3239H90.2532L93.2219 10.0909H96.7731L92.9165 15.5028L96.8157 21H93.2219L90.5302 17.1293H89.4009V21H86.3754ZM102.574 21.2131C101.471 21.2131 100.517 20.9787 99.7116 20.5099C98.9115 20.0365 98.2936 19.3783 97.858 18.5355C97.4223 17.688 97.2045 16.7055 97.2045 15.5881C97.2045 14.4612 97.4223 13.4763 97.858 12.6335C98.2936 11.786 98.9115 11.1278 99.7116 10.6591C100.517 10.1856 101.471 9.94886 102.574 9.94886C103.677 9.94886 104.629 10.1856 105.429 10.6591C106.234 11.1278 106.854 11.786 107.29 12.6335C107.725 13.4763 107.943 14.4612 107.943 15.5881C107.943 16.7055 107.725 17.688 107.29 18.5355C106.854 19.3783 106.234 20.0365 105.429 20.5099C104.629 20.9787 103.677 21.2131 102.574 21.2131ZM102.588 18.8693C103.09 18.8693 103.509 18.7273 103.845 18.4432C104.181 18.1544 104.435 17.7614 104.605 17.2642C104.78 16.767 104.868 16.2012 104.868 15.5668C104.868 14.9323 104.78 14.3665 104.605 13.8693C104.435 13.3722 104.181 12.9792 103.845 12.6903C103.509 12.4015 103.09 12.2571 102.588 12.2571C102.081 12.2571 101.655 12.4015 101.31 12.6903C100.969 12.9792 100.711 13.3722 100.536 13.8693C100.365 14.3665 100.28 14.9323 100.28 15.5668C100.28 16.2012 100.365 16.767 100.536 17.2642C100.711 17.7614 100.969 18.1544 101.31 18.4432C101.655 18.7273 102.081 18.8693 102.588 18.8693ZM109.911 21V10.0909H114.562C115.907 10.0909 116.97 10.3466 117.751 10.858C118.533 11.3693 118.923 12.0961 118.923 13.0384C118.923 13.6302 118.703 14.1226 118.263 14.5156C117.822 14.9086 117.212 15.1738 116.43 15.3111C117.084 15.3584 117.64 15.5076 118.099 15.7585C118.563 16.0047 118.916 16.3243 119.158 16.7173C119.404 17.1103 119.527 17.5459 119.527 18.0241C119.527 18.6444 119.361 19.1771 119.03 19.6222C118.703 20.0672 118.223 20.4081 117.588 20.6449C116.958 20.8816 116.189 21 115.28 21H109.911ZM112.73 18.7344H115.28C115.701 18.7344 116.03 18.6349 116.267 18.4361C116.509 18.2325 116.629 17.9555 116.629 17.6051C116.629 17.2169 116.509 16.9115 116.267 16.6889C116.03 16.4664 115.701 16.3551 115.28 16.3551H112.73V18.7344ZM112.73 14.5795H114.626C114.929 14.5795 115.188 14.5369 115.401 14.4517C115.618 14.3617 115.784 14.2339 115.898 14.0682C116.016 13.9025 116.075 13.706 116.075 13.4787C116.075 13.1425 115.94 12.8797 115.67 12.6903C115.401 12.5009 115.031 12.4062 114.562 12.4062H112.73V14.5795ZM126.363 21.2131C125.26 21.2131 124.306 20.9787 123.501 20.5099C122.701 20.0365 122.083 19.3783 121.647 18.5355C121.211 17.688 120.994 16.7055 120.994 15.5881C120.994 14.4612 121.211 13.4763 121.647 12.6335C122.083 11.786 122.701 11.1278 123.501 10.6591C124.306 10.1856 125.26 9.94886 126.363 9.94886C127.466 9.94886 128.418 10.1856 129.218 10.6591C130.023 11.1278 130.643 11.786 131.079 12.6335C131.514 13.4763 131.732 14.4612 131.732 15.5881C131.732 16.7055 131.514 17.688 131.079 18.5355C130.643 19.3783 130.023 20.0365 129.218 20.5099C128.418 20.9787 127.466 21.2131 126.363 21.2131ZM126.377 18.8693C126.879 18.8693 127.298 18.7273 127.634 18.4432C127.97 18.1544 128.224 17.7614 128.394 17.2642C128.569 16.767 128.657 16.2012 128.657 15.5668C128.657 14.9323 128.569 14.3665 128.394 13.8693C128.224 13.3722 127.97 12.9792 127.634 12.6903C127.298 12.4015 126.879 12.2571 126.377 12.2571C125.871 12.2571 125.444 12.4015 125.099 12.6903C124.758 12.9792 124.5 13.3722 124.325 13.8693C124.154 14.3665 124.069 14.9323 124.069 15.5668C124.069 16.2012 124.154 16.767 124.325 17.2642C124.5 17.7614 124.758 18.1544 125.099 18.4432C125.444 18.7273 125.871 18.8693 126.377 18.8693ZM132.847 24.196V18.5994H133.685C133.927 18.4479 134.121 18.2064 134.268 17.875C134.419 17.5436 134.542 17.1529 134.637 16.7031C134.737 16.2533 134.812 15.768 134.864 15.2472C134.921 14.7216 134.971 14.1913 135.013 13.6562L135.298 10.0909H143.664V18.5994H145.354V24.196H142.471V21H135.802V24.196H132.847ZM136.697 18.5994H140.809V12.4205H137.869L137.755 13.6562C137.674 14.821 137.558 15.8106 137.407 16.625C137.255 17.4347 137.019 18.0928 136.697 18.5994ZM152.047 21.2131C150.929 21.2131 149.968 20.9763 149.163 20.5028C148.363 20.0246 147.747 19.3617 147.316 18.5142C146.89 17.6667 146.677 16.6913 146.677 15.5881C146.677 14.4706 146.893 13.4905 147.324 12.6477C147.759 11.8002 148.377 11.1397 149.177 10.6662C149.977 10.188 150.929 9.94886 152.032 9.94886C152.984 9.94886 153.817 10.1217 154.532 10.4673C155.247 10.813 155.813 11.2983 156.23 11.9233C156.646 12.5483 156.876 13.2822 156.919 14.125H154.064C153.983 13.5805 153.77 13.1425 153.424 12.8111C153.083 12.4749 152.636 12.3068 152.082 12.3068C151.613 12.3068 151.204 12.4347 150.853 12.6903C150.508 12.9413 150.238 13.3082 150.044 13.7912C149.85 14.2741 149.752 14.8589 149.752 15.5455C149.752 16.2415 149.847 16.8333 150.037 17.321C150.231 17.8087 150.503 18.1804 150.853 18.4361C151.204 18.6918 151.613 18.8196 152.082 18.8196C152.428 18.8196 152.738 18.7486 153.012 18.6065C153.292 18.4645 153.521 18.2585 153.701 17.9886C153.886 17.714 154.007 17.3849 154.064 17.0014H156.919C156.871 17.8348 156.644 18.5687 156.237 19.2031C155.834 19.8329 155.278 20.3253 154.568 20.6804C153.858 21.0355 153.017 21.2131 152.047 21.2131ZM158.112 12.4702V10.0909H167.998V12.4702H164.483V21H161.599V12.4702H158.112ZM169.832 21V10.0909H174.484C175.829 10.0909 176.892 10.3466 177.673 10.858C178.455 11.3693 178.845 12.0961 178.845 13.0384C178.845 13.6302 178.625 14.1226 178.185 14.5156C177.744 14.9086 177.134 15.1738 176.352 15.3111C177.006 15.3584 177.562 15.5076 178.021 15.7585C178.485 16.0047 178.838 16.3243 179.08 16.7173C179.326 17.1103 179.449 17.5459 179.449 18.0241C179.449 18.6444 179.283 19.1771 178.952 19.6222C178.625 20.0672 178.144 20.4081 177.51 20.6449C176.88 20.8816 176.111 21 175.202 21H169.832ZM172.652 18.7344H175.202C175.623 18.7344 175.952 18.6349 176.189 18.4361C176.43 18.2325 176.551 17.9555 176.551 17.6051C176.551 17.2169 176.43 16.9115 176.189 16.6889C175.952 16.4664 175.623 16.3551 175.202 16.3551H172.652V18.7344ZM172.652 14.5795H174.548C174.851 14.5795 175.109 14.5369 175.322 14.4517C175.54 14.3617 175.706 14.2339 175.82 14.0682C175.938 13.9025 175.997 13.706 175.997 13.4787C175.997 13.1425 175.862 12.8797 175.592 12.6903C175.322 12.5009 174.953 12.4062 174.484 12.4062H172.652V14.5795ZM186.285 21.2131C185.182 21.2131 184.228 20.9787 183.423 20.5099C182.622 20.0365 182.004 19.3783 181.569 18.5355C181.133 17.688 180.915 16.7055 180.915 15.5881C180.915 14.4612 181.133 13.4763 181.569 12.6335C182.004 11.786 182.622 11.1278 183.423 10.6591C184.228 10.1856 185.182 9.94886 186.285 9.94886C187.388 9.94886 188.34 10.1856 189.14 10.6591C189.945 11.1278 190.565 11.786 191.001 12.6335C191.436 13.4763 191.654 14.4612 191.654 15.5881C191.654 16.7055 191.436 17.688 191.001 18.5355C190.565 19.3783 189.945 20.0365 189.14 20.5099C188.34 20.9787 187.388 21.2131 186.285 21.2131ZM186.299 18.8693C186.801 18.8693 187.22 18.7273 187.556 18.4432C187.892 18.1544 188.146 17.7614 188.316 17.2642C188.491 16.767 188.579 16.2012 188.579 15.5668C188.579 14.9323 188.491 14.3665 188.316 13.8693C188.146 13.3722 187.892 12.9792 187.556 12.6903C187.22 12.4015 186.801 12.2571 186.299 12.2571C185.792 12.2571 185.366 12.4015 185.021 12.6903C184.68 12.9792 184.422 13.3722 184.246 13.8693C184.076 14.3665 183.991 14.9323 183.991 15.5668C183.991 16.2012 184.076 16.767 184.246 17.2642C184.422 17.7614 184.68 18.1544 185.021 18.4432C185.366 18.7273 185.792 18.8693 186.299 18.8693ZM61.7074 49V38.0909H71.2457V49H68.3551V40.4702H64.5625V49H61.7074ZM78.6321 49.2131C77.5099 49.2131 76.544 48.9858 75.7344 48.5312C74.9295 48.072 74.3092 47.4233 73.8736 46.5852C73.438 45.7424 73.2202 44.7457 73.2202 43.5952C73.2202 42.473 73.438 41.4882 73.8736 40.6406C74.3092 39.7931 74.9223 39.1326 75.7131 38.6591C76.5085 38.1856 77.4413 37.9489 78.5114 37.9489C79.2311 37.9489 79.901 38.0649 80.5213 38.2969C81.1463 38.5241 81.6908 38.8674 82.1548 39.3267C82.6236 39.786 82.9882 40.3636 83.2486 41.0597C83.509 41.7509 83.6392 42.5606 83.6392 43.4886V44.3196H74.4276V42.4446H80.7912C80.7912 42.009 80.6965 41.6231 80.5071 41.2869C80.3177 40.9508 80.0549 40.688 79.7188 40.4986C79.3873 40.3045 79.0014 40.2074 78.5611 40.2074C78.1018 40.2074 77.6946 40.3139 77.3395 40.527C76.9891 40.7353 76.7145 41.017 76.5156 41.3722C76.3168 41.7225 76.215 42.1132 76.2102 42.544V44.3267C76.2102 44.8665 76.3097 45.3329 76.5085 45.7259C76.7121 46.1188 76.9986 46.4219 77.3679 46.6349C77.7372 46.848 78.1752 46.9545 78.6818 46.9545C79.018 46.9545 79.3258 46.9072 79.6051 46.8125C79.8845 46.7178 80.1236 46.5758 80.3224 46.3864C80.5213 46.197 80.6728 45.965 80.777 45.6903L83.5753 45.875C83.4332 46.5473 83.142 47.1345 82.7017 47.6364C82.2661 48.1335 81.7027 48.5218 81.0114 48.8011C80.3248 49.0758 79.5317 49.2131 78.6321 49.2131ZM85.6136 53.0909V38.0909H88.5966V39.9233H88.7315C88.8641 39.6297 89.0559 39.3314 89.3068 39.0284C89.5625 38.7206 89.8939 38.465 90.3011 38.2614C90.7131 38.053 91.2244 37.9489 91.8352 37.9489C92.6307 37.9489 93.3646 38.1572 94.0369 38.5739C94.7093 38.9858 95.2467 39.6084 95.6491 40.4418C96.0516 41.2704 96.2528 42.3097 96.2528 43.5597C96.2528 44.7765 96.0563 45.804 95.6634 46.642C95.2751 47.4754 94.7448 48.1075 94.0724 48.5384C93.4048 48.9645 92.6567 49.1776 91.8281 49.1776C91.241 49.1776 90.7415 49.0805 90.3295 48.8864C89.9223 48.6922 89.5885 48.4484 89.3281 48.1548C89.0677 47.8565 88.8688 47.5559 88.7315 47.2528H88.6392V53.0909H85.6136ZM88.5753 43.5455C88.5753 44.1941 88.6652 44.7599 88.8452 45.2429C89.0251 45.7259 89.2855 46.1023 89.6264 46.3722C89.9673 46.6373 90.3816 46.7699 90.8693 46.7699C91.3617 46.7699 91.7784 46.6349 92.1193 46.3651C92.4602 46.0904 92.7183 45.7116 92.8935 45.2287C93.0734 44.741 93.1634 44.1799 93.1634 43.5455C93.1634 42.9157 93.0758 42.3617 92.9006 41.8835C92.7254 41.4053 92.4673 41.0312 92.1264 40.7614C91.7855 40.4915 91.3665 40.3565 90.8693 40.3565C90.3769 40.3565 89.9602 40.4867 89.6193 40.7472C89.2831 41.0076 89.0251 41.3769 88.8452 41.8551C88.6652 42.3333 88.5753 42.8968 88.5753 43.5455ZM98.2699 49V38.0909H102.922C104.267 38.0909 105.33 38.3466 106.111 38.858C106.892 39.3693 107.283 40.0961 107.283 41.0384C107.283 41.6302 107.063 42.1226 106.622 42.5156C106.182 42.9086 105.571 43.1738 104.79 43.3111C105.443 43.3584 106 43.5076 106.459 43.7585C106.923 44.0047 107.276 44.3243 107.517 44.7173C107.763 45.1103 107.886 45.5459 107.886 46.0241C107.886 46.6444 107.721 47.1771 107.389 47.6222C107.063 48.0672 106.582 48.4081 105.947 48.6449C105.318 48.8816 104.548 49 103.639 49H98.2699ZM101.089 46.7344H103.639C104.061 46.7344 104.39 46.6349 104.626 46.4361C104.868 46.2325 104.989 45.9555 104.989 45.6051C104.989 45.2169 104.868 44.9115 104.626 44.6889C104.39 44.4664 104.061 44.3551 103.639 44.3551H101.089V46.7344ZM101.089 42.5795H102.986C103.289 42.5795 103.547 42.5369 103.76 42.4517C103.978 42.3617 104.143 42.2339 104.257 42.0682C104.375 41.9025 104.435 41.706 104.435 41.4787C104.435 41.1425 104.3 40.8797 104.03 40.6903C103.76 40.5009 103.391 40.4062 102.922 40.4062H101.089V42.5795ZM114.722 49.2131C113.619 49.2131 112.665 48.9787 111.86 48.5099C111.06 48.0365 110.442 47.3783 110.006 46.5355C109.571 45.688 109.353 44.7055 109.353 43.5881C109.353 42.4612 109.571 41.4763 110.006 40.6335C110.442 39.786 111.06 39.1278 111.86 38.6591C112.665 38.1856 113.619 37.9489 114.722 37.9489C115.826 37.9489 116.777 38.1856 117.577 38.6591C118.382 39.1278 119.003 39.786 119.438 40.6335C119.874 41.4763 120.092 42.4612 120.092 43.5881C120.092 44.7055 119.874 45.688 119.438 46.5355C119.003 47.3783 118.382 48.0365 117.577 48.5099C116.777 48.9787 115.826 49.2131 114.722 49.2131ZM114.737 46.8693C115.238 46.8693 115.657 46.7273 115.994 46.4432C116.33 46.1544 116.583 45.7614 116.754 45.2642C116.929 44.767 117.016 44.2012 117.016 43.5668C117.016 42.9323 116.929 42.3665 116.754 41.8693C116.583 41.3722 116.33 40.9792 115.994 40.6903C115.657 40.4015 115.238 40.2571 114.737 40.2571C114.23 40.2571 113.804 40.4015 113.458 40.6903C113.117 40.9792 112.859 41.3722 112.684 41.8693C112.513 42.3665 112.428 42.9323 112.428 43.5668C112.428 44.2012 112.513 44.767 112.684 45.2642C112.859 45.7614 113.117 46.1544 113.458 46.4432C113.804 46.7273 114.23 46.8693 114.737 46.8693ZM122.059 49V38.0909H125.085V42.3239H125.937L128.906 38.0909H132.457L128.6 43.5028L132.499 49H128.906L126.214 45.1293H125.085V49H122.059ZM135.821 53.0909C135.438 53.0909 135.078 53.0601 134.742 52.9986C134.41 52.9418 134.136 52.8684 133.918 52.7784L134.6 50.5199C134.955 50.6288 135.275 50.688 135.559 50.6974C135.847 50.7069 136.096 50.6406 136.304 50.4986C136.517 50.3565 136.69 50.1151 136.823 49.7741L137 49.3125L133.087 38.0909H136.269L138.527 46.1023H138.641L140.921 38.0909H144.124L139.884 50.179C139.68 50.7661 139.403 51.2775 139.053 51.7131C138.707 52.1534 138.269 52.492 137.739 52.7287C137.209 52.9702 136.569 53.0909 135.821 53.0909ZM145.672 53.0909V38.0909H148.655V39.9233H148.79C148.923 39.6297 149.114 39.3314 149.365 39.0284C149.621 38.7206 149.953 38.465 150.36 38.2614C150.772 38.053 151.283 37.9489 151.894 37.9489C152.689 37.9489 153.423 38.1572 154.096 38.5739C154.768 38.9858 155.305 39.6084 155.708 40.4418C156.11 41.2704 156.311 42.3097 156.311 43.5597C156.311 44.7765 156.115 45.804 155.722 46.642C155.334 47.4754 154.803 48.1075 154.131 48.5384C153.463 48.9645 152.715 49.1776 151.887 49.1776C151.3 49.1776 150.8 49.0805 150.388 48.8864C149.981 48.6922 149.647 48.4484 149.387 48.1548C149.126 47.8565 148.927 47.5559 148.79 47.2528H148.698V53.0909H145.672ZM148.634 43.5455C148.634 44.1941 148.724 44.7599 148.904 45.2429C149.084 45.7259 149.344 46.1023 149.685 46.3722C150.026 46.6373 150.44 46.7699 150.928 46.7699C151.42 46.7699 151.837 46.6349 152.178 46.3651C152.519 46.0904 152.777 45.7116 152.952 45.2287C153.132 44.741 153.222 44.1799 153.222 43.5455C153.222 42.9157 153.134 42.3617 152.959 41.8835C152.784 41.4053 152.526 41.0312 152.185 40.7614C151.844 40.4915 151.425 40.3565 150.928 40.3565C150.435 40.3565 150.019 40.4867 149.678 40.7472C149.342 41.0076 149.084 41.3769 148.904 41.8551C148.724 42.3333 148.634 42.8968 148.634 43.5455ZM163.257 49.2131C162.14 49.2131 161.179 48.9763 160.374 48.5028C159.574 48.0246 158.958 47.3617 158.527 46.5142C158.101 45.6667 157.888 44.6913 157.888 43.5881C157.888 42.4706 158.104 41.4905 158.534 40.6477C158.97 39.8002 159.588 39.1397 160.388 38.6662C161.188 38.188 162.14 37.9489 163.243 37.9489C164.195 37.9489 165.028 38.1217 165.743 38.4673C166.458 38.813 167.024 39.2983 167.441 39.9233C167.857 40.5483 168.087 41.2822 168.13 42.125H165.275C165.194 41.5805 164.981 41.1425 164.635 40.8111C164.294 40.4749 163.847 40.3068 163.293 40.3068C162.824 40.3068 162.415 40.4347 162.064 40.6903C161.719 40.9413 161.449 41.3082 161.255 41.7912C161.06 42.2741 160.963 42.8589 160.963 43.5455C160.963 44.2415 161.058 44.8333 161.248 45.321C161.442 45.8087 161.714 46.1804 162.064 46.4361C162.415 46.6918 162.824 46.8196 163.293 46.8196C163.639 46.8196 163.949 46.7486 164.223 46.6065C164.503 46.4645 164.732 46.2585 164.912 45.9886C165.097 45.714 165.218 45.3849 165.275 45.0014H168.13C168.082 45.8348 167.855 46.5687 167.448 47.2031C167.045 47.8329 166.489 48.3253 165.779 48.6804C165.069 49.0355 164.228 49.2131 163.257 49.2131ZM177.659 42.3381V44.7173H171.963V42.3381H177.659ZM172.957 38.0909V49H170.067V38.0909H172.957ZM179.555 38.0909V49H176.686V38.0909H179.555ZM184.793 45.0085L188.721 38.0909H191.704V49H188.82V42.0611L184.907 49H181.903V38.0909H184.793V45.0085ZM194.129 49V38.0909H197.155V42.3239H198.007L200.976 38.0909H204.527L200.67 43.5028L204.57 49H200.976L198.284 45.1293H197.155V49H194.129ZM208.959 49.206C208.263 49.206 207.643 49.0852 207.098 48.8438C206.554 48.5975 206.123 48.2353 205.805 47.7571C205.493 47.2741 205.337 46.6728 205.337 45.9531C205.337 45.3471 205.448 44.8381 205.67 44.4261C205.893 44.0142 206.196 43.6828 206.58 43.4318C206.963 43.1809 207.399 42.9915 207.886 42.8636C208.379 42.7358 208.895 42.6458 209.435 42.5938C210.069 42.5275 210.58 42.4659 210.969 42.4091C211.357 42.3475 211.639 42.2576 211.814 42.1392C211.989 42.0208 212.077 41.8456 212.077 41.6136V41.571C212.077 41.1212 211.935 40.7732 211.651 40.527C211.371 40.2808 210.973 40.1577 210.457 40.1577C209.913 40.1577 209.48 40.2784 209.158 40.5199C208.836 40.7566 208.623 41.0549 208.518 41.4148L205.72 41.1875C205.862 40.5246 206.142 39.9517 206.558 39.4688C206.975 38.9811 207.512 38.607 208.17 38.3466C208.833 38.0814 209.6 37.9489 210.472 37.9489C211.078 37.9489 211.658 38.0199 212.212 38.1619C212.77 38.304 213.265 38.5241 213.696 38.8224C214.132 39.1207 214.475 39.5043 214.726 39.973C214.977 40.437 215.102 40.9934 215.102 41.642V49H212.233V47.4872H212.148C211.973 47.8281 211.738 48.1288 211.445 48.3892C211.151 48.6449 210.798 48.8461 210.386 48.9929C209.974 49.1349 209.499 49.206 208.959 49.206ZM209.825 47.1179C210.27 47.1179 210.663 47.0303 211.004 46.8551C211.345 46.6752 211.613 46.4337 211.807 46.1307C212.001 45.8277 212.098 45.4844 212.098 45.1009V43.9432C212.003 44.0047 211.873 44.0616 211.707 44.1136C211.546 44.161 211.364 44.206 211.161 44.2486C210.957 44.2865 210.753 44.322 210.55 44.3551C210.346 44.3835 210.161 44.4096 209.996 44.4332C209.641 44.4853 209.33 44.5682 209.065 44.6818C208.8 44.7955 208.594 44.9493 208.447 45.1435C208.301 45.3329 208.227 45.5696 208.227 45.8537C208.227 46.2656 208.376 46.5805 208.675 46.7983C208.978 47.0114 209.361 47.1179 209.825 47.1179Z" fill="#5B57B7"/>
</svg>
