<svg width="48" height="48" viewBox="0 0 48 48" fill="none" xmlns="http://www.w3.org/2000/svg">
<circle cx="24" cy="24" r="24" fill="#F1F2F7"/>
<path d="M25.8964 19.8325C25.8964 20.1256 25.6553 20.3633 25.3579 20.3633C25.0605 20.3633 24.8194 20.1256 24.8194 19.8325C24.8194 19.5394 25.0605 19.3017 25.3579 19.3017C25.6553 19.3017 25.8964 19.5394 25.8964 19.8325Z" fill="black" fill-opacity="0.84"/>
<path d="M18.2853 19.8325C18.2853 20.1256 18.0441 20.3633 17.7467 20.3633C17.4493 20.3633 17.2082 20.1256 17.2082 19.8325C17.2082 19.5394 17.4493 19.3017 17.7467 19.3017C18.0441 19.3017 18.2853 19.5394 18.2853 19.8325Z" fill="black" fill-opacity="0.84"/>
<path d="M35.6176 18.5888C35.6856 18.8133 35.7514 19.0377 35.8151 19.2619M35.6176 18.5888L30.1003 20.8122M35.6176 18.5888C35.5656 18.3576 35.5097 18.131 35.4502 17.909M23.1184 7.677C23.0814 7.67624 23.0473 7.67291 23.0108 7.6665C22.7063 7.6129 22.3775 7.5699 22.0304 7.54104M23.1184 7.677C23.7468 7.68993 24.5042 7.77807 25.3335 7.96735M23.1184 7.677L21.1779 10.6913M11.9851 34.3724C12.0577 34.0314 12.1257 33.7056 12.1892 33.3941M11.9851 34.3724L19.4152 31.5037M11.9851 34.3724C11.9267 34.6469 11.8405 34.9419 11.7385 35.25M10.5909 40.184C10.6746 40.4498 10.9778 40.5481 11.2514 40.4782C11.6082 40.3872 12.0348 40.2892 12.4984 40.1939M10.5909 40.184C10.5047 39.91 10.4843 39.6 10.5109 39.2656M10.5909 40.184L19.0617 36.3845M19.9244 32.076C19.9055 31.7968 19.6899 31.575 19.4152 31.5037M19.9244 32.076L11.7385 35.25M19.9244 32.076C19.9425 32.3419 19.9464 32.6047 19.9379 32.8638M19.4152 31.5037C19.129 31.4294 18.8071 31.3296 18.4692 31.2005M14.7065 27.3154C14.699 27.2746 14.696 27.234 14.6971 27.1926C14.7024 26.9845 14.707 26.7617 14.7109 26.5267M14.7065 27.3154L12.9974 27.75M14.7065 27.3154C14.7693 27.6566 14.8696 27.9734 15 28.2672M14.6955 17.2774C14.6955 17.1479 14.7073 17.002 14.7307 16.8425M14.6955 17.2774L11.9946 16.2653M14.6955 17.2774C14.6955 17.3709 14.6964 17.5236 14.6979 17.7252M21.1779 10.6913C21.3213 10.7066 21.4541 10.776 21.5539 10.8786M21.1779 10.6913C21.025 10.6749 20.8744 10.6663 20.7262 10.6651M21.5539 10.8786L22.2173 11.5609M21.5539 10.8786L25.3335 7.96735M29.846 19.4071C29.95 19.514 30.0138 19.6516 30.0259 19.7992M29.846 19.4071L35.0039 16.5M29.846 19.4071L29.5004 19.0516M30.0259 19.7992C30.0376 19.9403 30.0494 20.0912 30.0612 20.25M30.0259 19.7992L35.2591 17.25M34.0833 39.6248C33.385 39.4614 32.6905 39.3386 32.1889 39.2656C32.1078 39.2538 32.0295 39.2279 31.958 39.1884L31.8687 39.139C31.7702 39.0845 31.6563 39.0568 31.5434 39.0528C31.1583 39.0389 30.7989 38.9792 30.4637 38.8807M34.0833 39.6248C34.6247 39.7515 35.1683 39.9026 35.6263 40.0737C36.0979 40.25 36.7548 40.0036 36.8476 39.5153C36.8816 39.3365 36.9153 39.1491 36.9483 38.9537M34.0833 39.6248L36.9483 38.9537M36.9483 38.9537C36.967 38.8429 36.9855 38.7295 37.0038 38.6135M37.059 38.25H29.1848M37.059 38.25C37.0409 38.3738 37.0225 38.495 37.0038 38.6135M37.059 38.25C37.1015 37.9591 37.1423 37.6539 37.1808 37.3353M29.1848 38.25C29.565 38.5247 29.9901 38.7415 30.4637 38.8807M29.1848 38.25C28.8844 38.033 28.6121 37.7797 28.3659 37.5M30.4637 38.8807L37.0038 38.6135M37.1808 37.3353L28.3659 37.5M37.1808 37.3353C37.2135 37.0649 37.2444 36.7849 37.2733 36.4959M28.3659 37.5C28.2339 37.3499 28.1094 37.1922 27.9921 37.0284M27.9921 37.0284L37.2733 36.4959M27.9921 37.0284C27.8448 36.8224 27.7089 36.6068 27.584 36.3845M37.2733 36.4959C37.2999 36.2294 37.3247 35.9551 37.3475 35.6736M37.3475 35.6736L27.584 36.3845M37.3475 35.6736C37.3714 35.3773 37.393 35.073 37.4119 34.7612M27.584 36.3845C27.4543 36.1537 27.3364 35.9156 27.2297 35.6736M27.2297 35.6736L37.4119 34.7612M27.2297 35.6736C27.1111 35.4047 27.0063 35.1309 26.9144 34.8568M37.4119 34.7612C37.4516 34.1072 37.4795 33.42 37.4922 32.7043M37.4624 33.75L26.9144 34.8568M26.9144 34.8568C26.731 34.3096 26.5991 33.7611 26.5121 33.2474M26.679 34.0474L37.4922 32.7043M37.4922 32.7043C37.4975 32.4088 37.5001 32.1085 37.5 31.8036M37.5 31.8036L26.5121 33.2474M37.5 31.8036C37.4998 31.458 37.496 31.1067 37.4883 30.75M26.5121 33.2474C26.4718 33.0093 26.4411 32.7788 26.4194 32.5592M26.4194 32.5592L37.4883 30.75M26.4194 32.5592C26.3925 32.2882 26.3794 32.034 26.3786 31.8036M37.4883 30.75C37.4838 30.543 37.4779 30.3341 37.4707 30.1236M37.4707 30.1236L26.3786 31.8036M37.4707 30.1236C37.4587 29.7753 37.4429 29.4224 37.4229 29.0652M26.3786 31.8036C26.3778 31.5506 26.3919 31.3262 26.4194 31.1393M26.4194 31.1393C26.461 30.8553 26.5334 30.6579 26.6306 30.5787C26.8991 30.3598 27.1729 30.1215 27.4434 29.8691M26.4194 31.1393L37.4229 29.0652M37.4229 29.0652C37.4056 28.7547 37.3851 28.441 37.3612 28.1244M37.3612 28.1244L27.4434 29.8691M37.3612 28.1244C37.3379 27.8144 37.3114 27.5017 37.2815 27.1864M27.4434 29.8691C27.7173 29.6136 27.9878 29.3437 28.2457 29.0652M28.2457 29.0652L37.2815 27.1864M28.2457 29.0652C28.5727 28.7121 28.8795 28.3451 29.1476 27.976M37.2815 27.1864C37.2486 26.8402 37.2117 26.491 37.1704 26.139M37.1704 26.139L29.1476 27.976M37.1704 26.139C37.1355 25.8412 37.0975 25.5416 37.0563 25.2402M29.1476 27.976C29.339 27.7125 29.5106 27.4479 29.6557 27.1864M29.6557 27.1864C29.8019 26.9231 29.9212 26.6629 30.0067 26.4103C30.0133 26.3908 30.0197 26.3705 30.0259 26.3493M29.6557 27.1864L37.0563 25.2402M37.0563 25.2402C37.0268 25.0246 36.9956 24.8081 36.9627 24.5909M36.9627 24.5909L30.0259 26.3493M36.9627 24.5909C36.9249 24.341 36.8848 24.0901 36.8424 23.8383M30.0259 26.3493C30.0776 26.1741 30.1171 25.9433 30.1464 25.6714M30.1464 25.6714L36.8424 23.8383M30.1464 25.6714C30.1684 25.4667 30.1846 25.2386 30.1959 24.9934M36.8424 23.8383C36.7918 23.5382 36.7378 23.2367 36.6804 22.9341M36.6804 22.9341L30.1959 24.9934M36.6804 22.9341C36.6266 22.6505 36.5697 22.366 36.5097 22.0805M30.1959 24.9934C30.2067 24.7595 30.213 24.5099 30.2155 24.2501M30.2155 24.2501L36.5097 22.0805M30.2155 24.2501C30.2172 24.0705 30.2171 23.886 30.2155 23.6984M36.5097 22.0805C36.466 21.8729 36.4206 21.6648 36.3735 21.4564M36.3735 21.4564L30.2155 23.6984M36.3735 21.4564C36.3172 21.207 36.2584 20.9571 36.197 20.7067M30.2155 23.6984C30.2133 23.4479 30.2083 23.1917 30.2011 22.9341M30.2011 22.9341L36.197 20.7067M30.2011 22.9341C30.195 22.7138 30.1872 22.4925 30.1782 22.2728M36.197 20.7067C36.134 20.4499 36.0684 20.1927 36 19.9351M36 19.9351L30.1782 22.2728M36 19.9351C35.9405 19.7109 35.8789 19.4865 35.8151 19.2619M30.1782 22.2728C30.1688 22.0443 30.1581 21.8175 30.1464 21.5955M30.1464 21.5955L35.8151 19.2619M30.1464 21.5955C30.1322 21.3257 30.1166 21.0628 30.1003 20.8122M30.1003 20.8122C30.0875 20.6165 30.0744 20.4282 30.0612 20.25M30.0612 20.25L35.4502 17.909M35.4502 17.909C35.3902 17.6847 35.3264 17.4651 35.2591 17.25M35.2591 17.25C35.1789 16.9936 35.0937 16.7437 35.0039 16.5M35.0039 16.5C34.9289 16.2969 34.8508 16.0981 34.7695 15.9036M34.7695 15.9036L29.5004 19.0516M34.7695 15.9036C34.6831 15.6968 34.5932 15.4947 34.5 15.2975M29.5004 19.0516L29.0504 18.5888M29.0504 18.5888L34.5 15.2975M29.0504 18.5888L28.6344 18.1609M34.5 15.2975C34.3987 15.083 34.2936 14.8742 34.1848 14.6708M34.1848 14.6708L28.6344 18.1609M34.1848 14.6708C34.084 14.4822 33.9801 14.2984 33.8733 14.1191M28.6344 18.1609L28.2107 17.7252M28.2107 17.7252L33.8733 14.1191M28.2107 17.7252L27.7487 17.25M33.8733 14.1191C33.7466 13.9063 33.6159 13.7 33.4814 13.5M33.4814 13.5L27.7487 17.25M33.4814 13.5C33.345 13.297 33.2047 13.1004 33.061 12.9102M27.7487 17.25L27.3526 16.8425M27.3526 16.8425L33.061 12.9102M27.3526 16.8425L26.7913 16.2653M33.061 12.9102C32.9218 12.7259 32.7794 12.5475 32.6341 12.3749M32.6341 12.3749L26.7913 16.2653M32.6341 12.3749C32.5082 12.2252 32.38 12.0798 32.25 11.9387M26.7913 16.2653L26.2903 15.75M26.2903 15.75L32.25 11.9387M26.2903 15.75L25.8503 15.2975M32.25 11.9387C32.0832 11.7577 31.9133 11.5837 31.7407 11.4165M31.7407 11.4165L25.8503 15.2975M31.7407 11.4165C31.547 11.2288 31.3499 11.0496 31.1502 10.8786M25.8503 15.2975L25.3335 14.7659M25.3335 14.7659L31.1502 10.8786M25.3335 14.7659L24.8319 14.25M31.1502 10.8786C30.9489 10.7063 30.7449 10.5424 30.5389 10.3864M30.5389 10.3864L24.8319 14.25M30.5389 10.3864C30.3395 10.2355 30.1381 10.092 29.9355 9.95579M24.8319 14.25L24.3968 13.8025M24.3968 13.8025L29.9355 9.95579M24.3968 13.8025L23.8649 13.2555M29.9355 9.95579C29.6425 9.75878 29.3468 9.57689 29.0504 9.40925M29.0504 9.40925L23.8649 13.2555M29.0504 9.40925C28.828 9.28351 28.6053 9.16578 28.3829 9.05571M23.8649 13.2555L23.5292 12.9102M23.5292 12.9102L28.3829 9.05571M23.5292 12.9102L22.8808 12.2433M28.3829 9.05571C28.0375 8.88474 27.6931 8.73222 27.3526 8.5968M27.3526 8.5968L22.8808 12.2433M27.3526 8.5968C26.9929 8.45374 26.6376 8.32975 26.2903 8.22322M22.8808 12.2433L22.2173 11.5609M22.2173 11.5609L26.2903 8.22322M26.2903 8.22322C25.9633 8.12291 25.6434 8.03807 25.3335 7.96735M22.0304 7.54104L20.7262 10.6651M22.0304 7.54104C21.7016 7.51369 21.3564 7.49903 21 7.50005M20.7262 10.6651C20.6196 10.6642 20.5141 10.6672 20.4099 10.6738M20.4099 10.6738L21 7.50005M20.4099 10.6738C20.1708 10.689 19.9383 10.7235 19.7126 10.7751M21 7.50005C20.5835 7.50124 20.1516 7.52384 19.7126 7.57265M19.7126 7.57265L20.0468 10.6651M19.7126 7.57265C19.4726 7.59933 19.2303 7.63386 18.9873 7.677M19.7126 10.7751L18.9873 7.677M19.7126 10.7751C19.5365 10.8153 19.3646 10.866 19.1968 10.9261M18.9873 7.677C18.5831 7.74875 18.1768 7.84433 17.7743 7.96735M17.7743 7.96735L19.1968 10.9261M17.7743 7.96735C17.4629 8.06254 17.1539 8.17416 16.8501 8.30387M19.1968 10.9261C18.9946 10.9986 18.7986 11.0848 18.6089 11.183M18.6089 11.183L16.8501 8.30387M18.6089 11.183C18.3935 11.2944 18.1863 11.4213 17.9874 11.5609M16.8501 8.30387C16.5403 8.43614 16.2359 8.58722 15.94 8.75889M15.94 8.75889L17.9874 11.5609M15.94 8.75889C15.711 8.89171 15.4871 9.03686 15.2697 9.19514M17.9874 11.5609C17.8202 11.6783 17.6589 11.8047 17.5036 11.9387M17.5036 11.9387L15.2697 9.19514M17.5036 11.9387C17.3436 12.0767 17.19 12.2226 17.0429 12.3749M15.2697 9.19514C15.0368 9.36468 14.8113 9.5493 14.5949 9.75M14.5949 9.75L17.0429 12.3749M14.5949 9.75C14.3843 9.94538 14.1824 10.156 13.9907 10.3828M17.0429 12.3749C16.8775 12.5461 16.7202 12.7254 16.5714 12.9102M16.5714 12.9102L13.9907 10.3828M16.5714 12.9102C16.4172 13.1017 16.272 13.2991 16.1359 13.5M13.9907 10.3828C13.7818 10.6299 13.585 10.8963 13.4025 11.183M13.4025 11.183L16.1359 13.5M13.4025 11.183C13.2513 11.4207 13.1098 11.6723 12.9792 11.9387M16.1359 13.5C16.021 13.6696 15.9127 13.8417 15.811 14.0146M15.811 14.0146L12.9792 11.9387M15.811 14.0146C15.6856 14.2279 15.5703 14.4424 15.4654 14.6552M12.9792 11.9387C12.8535 12.1953 12.7379 12.4655 12.6335 12.75M12.6335 12.75L15.4654 14.6552M12.6335 12.75C12.5455 12.9898 12.4654 13.2396 12.394 13.5M15.4654 14.6552C15.3418 14.9059 15.2327 15.1541 15.1382 15.3952M15.1382 15.3952L12.394 13.5M15.1382 15.3952C15.0187 15.7 14.9228 15.9933 14.8513 16.2653M12.394 13.5C12.3279 13.7409 12.2691 13.9908 12.2182 14.25M12.2182 14.25L14.8513 16.2653M12.2182 14.25C12.1527 14.5836 12.1001 14.9325 12.0616 15.2975M14.8513 16.2653C14.797 16.4714 14.7567 16.6653 14.7307 16.8425M14.7307 16.8425L12.0616 15.2975M12.0616 15.2975C12.0289 15.6083 12.0063 15.9308 11.9946 16.2653M11.9946 16.2653C11.9883 16.4431 11.9851 16.6243 11.9851 16.809C11.9851 17.9369 12.0085 18.9066 12.0482 19.7496M14.6979 17.7252L12 17.25L11.9851 18L14.7022 18.2549M14.6979 17.7252C14.699 17.8758 14.7005 18.0537 14.7022 18.2549M14.7022 18.2549C14.7034 18.4072 14.7048 18.5729 14.7063 18.75M14.7063 18.75H12L12.0482 19.7496M14.7063 18.75C14.7086 19.0198 14.711 19.3163 14.7134 19.6329M12.0482 19.7496L14.7134 19.6329M12.0482 19.7496C12.0586 19.9715 12.0702 20.1846 12.0827 20.3896M14.7134 19.6329C14.7149 19.8312 14.7164 20.0374 14.7179 20.25M12.0827 20.3896L14.7179 20.25M12.0827 20.3896C12.1006 20.6805 12.1204 20.955 12.1419 21.2145M14.7179 20.25C14.7193 20.452 14.7206 20.6598 14.7219 20.8719M14.7219 20.8719L12.1419 21.2145M14.7219 20.8719C14.7236 21.1578 14.7252 21.4516 14.7265 21.75M12.1419 21.2145C12.1689 21.5404 12.1984 21.8427 12.2299 22.1249M12.2299 22.1249L14.7265 21.75M12.2299 22.1249C12.2604 22.3995 12.2928 22.655 12.3262 22.8944M14.7265 21.75C14.7272 21.9223 14.7279 22.0962 14.7285 22.2709M14.7285 22.2709L12.3262 22.8944M14.7285 22.2709C14.7294 22.5361 14.73 22.8034 14.7304 23.0705M12.3262 22.8944C12.3586 23.1265 12.392 23.3434 12.4258 23.548M12.4258 23.548L14.7304 23.0705M12.4258 23.548C12.4951 23.9671 12.5661 24.3341 12.6335 24.6726M14.7304 23.0705C14.7308 23.3812 14.7309 23.6917 14.7304 23.9985M14.7304 23.9985L12.6335 24.6726M14.7304 23.9985C14.7299 24.3278 14.7289 24.6529 14.7271 24.9693M12.6335 24.6726C12.6916 24.9646 12.747 25.2353 12.7963 25.5M12.7963 25.5L14.7271 24.9693M12.7963 25.5C12.8324 25.6934 12.8652 25.8835 12.8934 26.0762M14.7271 24.9693C14.7254 25.2716 14.7231 25.5661 14.7201 25.8488M14.7201 25.8488L12.8934 26.0762M14.7201 25.8488C14.7176 26.0836 14.7145 26.3103 14.7109 26.5267M12.8934 26.0762C12.9297 26.3238 12.9584 26.5757 12.9768 26.8445M12.9768 26.8445L14.7109 26.5267M12.9768 26.8445C12.9958 27.1235 13.0038 27.4207 12.9974 27.75M12.9974 27.75C12.9923 28.0126 12.9782 28.2956 12.9533 28.6062M12.9533 28.6062L15 28.2672M12.9533 28.6062C12.9277 28.9268 12.8907 29.2767 12.8406 29.6638M15 28.2672C15.1277 28.5548 15.2842 28.8203 15.4628 29.0652M12.8406 29.6638L15.4628 29.0652M12.8406 29.6638C12.8107 29.8947 12.7761 30.1388 12.7365 30.3977M15.4628 29.0652C15.5532 29.1892 15.6492 29.3079 15.75 29.4215M15.75 29.4215L12.7365 30.3977M15.75 29.4215C15.9542 29.6516 16.1779 29.8607 16.4135 30.0503M12.7365 30.3977C12.7006 30.6323 12.6606 30.8791 12.6161 31.1393M12.6161 31.1393L16.4135 30.0503M12.6161 31.1393C12.5799 31.3516 12.5407 31.5728 12.4984 31.8036M16.4135 30.0503C16.6138 30.2115 16.8228 30.3586 17.0359 30.4925M17.0359 30.4925L12.4984 31.8036M17.0359 30.4925C17.2462 30.6247 17.4605 30.744 17.6744 30.8513M12.4984 31.8036C12.4459 32.0905 12.3885 32.3922 12.3262 32.71M12.3262 32.71L17.6744 30.8513M12.3262 32.71C12.283 32.9301 12.2374 33.158 12.1892 33.3941M17.6744 30.8513C17.9429 30.986 18.2108 31.1018 18.4692 31.2005M18.4692 31.2005L12.1892 33.3941M11.7385 35.25C11.6296 35.579 11.5027 35.9229 11.3724 36.2726M11.3724 36.2726L19.9379 32.8638M11.3724 36.2726C11.2605 36.5731 11.1462 36.8779 11.0387 37.1813M19.9379 32.8638C19.928 33.1645 19.9011 33.4603 19.8598 33.75M19.8598 33.75L11.0387 37.1813M19.8598 33.75C19.8234 34.0048 19.7758 34.2551 19.7185 34.5M11.0387 37.1813C10.9106 37.5428 10.7922 37.9022 10.6993 38.25M10.6993 38.25L19.7185 34.5M10.6993 38.25C10.6046 38.604 10.5363 38.946 10.5109 39.2656M19.7185 34.5C19.6586 34.756 19.5882 35.0062 19.5091 35.25M19.5091 35.25L10.5109 39.2656M19.5091 35.25C19.3804 35.6464 19.2287 36.0256 19.0617 36.3845M19.0617 36.3845C18.8396 36.8618 18.5906 37.3031 18.3331 37.7009M18.3331 37.7009L12.4984 40.1939M18.3331 37.7009C18.0687 38.1094 17.7954 38.472 17.5331 38.7805M12.4984 40.1939C13.4269 40.0029 14.5035 39.8225 15.4628 39.7297M15.4628 39.7297C15.7977 39.6973 16.1184 39.6756 16.4135 39.6679C16.5638 39.664 16.7086 39.6163 16.8205 39.5174C17.0356 39.3274 17.2791 39.0793 17.5331 38.7805M15.4628 39.7297L17.5331 38.7805M21.098 22.987C21.5368 22.5546 21.5273 20.6728 21.6411 19.6185M25.3579 20.3633C25.6553 20.3633 25.8964 20.1256 25.8964 19.8325C25.8964 19.5394 25.6553 19.3017 25.3579 19.3017M25.3579 20.3633C25.0605 20.3633 24.8194 20.1256 24.8194 19.8325C24.8194 19.5394 25.0605 19.3017 25.3579 19.3017M25.3579 20.3633V19.3017M17.7467 20.3633C18.0441 20.3633 18.2853 20.1256 18.2853 19.8325C18.2853 19.5394 18.0441 19.3017 17.7467 19.3017M17.7467 20.3633C17.4493 20.3633 17.2082 20.1256 17.2082 19.8325C17.2082 19.5394 17.4493 19.3017 17.7467 19.3017M17.7467 20.3633V19.3017M16.5 16.814C17.0364 16.4176 17.8411 16.3736 18.6904 16.8142M24.2285 16.8138C25.2119 16.4613 26.4636 16.8138 27 17.6066M23.3112 26.2091C22.6478 27.4349 21.0979 27.0147 20.3602 26.4251" stroke="black" stroke-opacity="0.84" stroke-linecap="round"/>
</svg>
