<svg width="40" height="24" viewBox="0 0 40 24" fill="none" xmlns="http://www.w3.org/2000/svg">
<path fill-rule="evenodd" clip-rule="evenodd" d="M7.00008 17.8334C10.2217 17.8334 12.8334 15.2217 12.8334 12C12.8334 8.77836 10.2217 6.16669 7.00008 6.16669C3.77842 6.16669 1.16675 8.77836 1.16675 12C1.16675 15.2217 3.77842 17.8334 7.00008 17.8334Z" stroke="#D0D1D2" stroke-width="1.16667" stroke-linecap="round" stroke-linejoin="round"/>
<path d="M1.16675 12H12.8334" stroke="#D0D1D2" stroke-width="1.16667" stroke-linecap="round" stroke-linejoin="round"/>
<path fill-rule="evenodd" clip-rule="evenodd" d="M7.00008 6.16669C8.45916 7.76406 9.28835 9.83704 9.33341 12C9.28835 14.163 8.45916 16.236 7.00008 17.8334C5.541 16.236 4.71181 14.163 4.66675 12C4.71181 9.83704 5.541 7.76406 7.00008 6.16669V6.16669Z" stroke="#D0D1D2" stroke-width="1.16667" stroke-linecap="round" stroke-linejoin="round"/>
<path d="M18.4091 18V6.36364H22.3409C23.25 6.36364 23.9962 6.51894 24.5795 6.82955C25.1629 7.13636 25.5947 7.55871 25.875 8.09659C26.1553 8.63447 26.2955 9.24621 26.2955 9.93182C26.2955 10.6174 26.1553 11.2254 25.875 11.7557C25.5947 12.286 25.1648 12.7027 24.5852 13.0057C24.0057 13.3049 23.2652 13.4545 22.3636 13.4545H19.1818V12.1818H22.3182C22.9394 12.1818 23.4394 12.0909 23.8182 11.9091C24.2008 11.7273 24.4773 11.4697 24.6477 11.1364C24.822 10.7992 24.9091 10.3977 24.9091 9.93182C24.9091 9.46591 24.822 9.05871 24.6477 8.71023C24.4735 8.36174 24.1951 8.0928 23.8125 7.90341C23.4299 7.71023 22.9242 7.61364 22.2955 7.61364H19.8182V18H18.4091ZM23.8864 12.7727L26.75 18H25.1136L22.2955 12.7727H23.8864ZM36.5798 6.36364H37.9889V14.0682C37.9889 14.8636 37.8014 15.5739 37.4264 16.1989C37.0552 16.8201 36.5306 17.3106 35.8526 17.6705C35.1745 18.0265 34.3791 18.2045 33.4662 18.2045C32.5533 18.2045 31.7579 18.0265 31.0798 17.6705C30.4018 17.3106 29.8753 16.8201 29.5003 16.1989C29.1291 15.5739 28.9435 14.8636 28.9435 14.0682V6.36364H30.3526V13.9545C30.3526 14.5227 30.4776 15.0284 30.7276 15.4716C30.9776 15.911 31.3336 16.2576 31.7957 16.5114C32.2616 16.7614 32.8185 16.8864 33.4662 16.8864C34.1139 16.8864 34.6707 16.7614 35.1366 16.5114C35.6026 16.2576 35.9586 15.911 36.2048 15.4716C36.4548 15.0284 36.5798 14.5227 36.5798 13.9545V6.36364Z" fill="#C1C4CC"/>
</svg>
