<svg width="63" height="64" viewBox="0 0 63 64" fill="none" xmlns="http://www.w3.org/2000/svg">
<g filter="url(#filter0_d_526_5587)">
<rect x="4" width="55" height="56" rx="8" fill="white"/>
<path d="M22.3316 7.00037L40.665 49.0004M21.8733 49.0004C18.0229 49.0004 16.0977 49.0004 14.6271 48.2374C13.3335 47.5663 12.2818 46.4954 11.6226 45.1783C10.8733 43.6809 10.8733 41.7207 10.8733 37.8004V18.2004C10.8733 14.28 10.8733 12.3198 11.6226 10.8224C12.2818 9.5053 13.3335 8.43443 14.6271 7.76332C16.0977 7.00037 18.0229 7.00037 21.8733 7.00037L24 10.8224L41.1233 7.00037C44.9737 7.00037 46.8988 7.00037 48.3695 7.76332C49.6631 8.43443 50.7148 9.5053 51.374 10.8224C52.1233 12.3198 52.1233 14.28 52.1233 18.2004V37.8004C52.1233 41.7207 52.1233 43.6809 51.374 45.1783C50.7148 46.4954 49.6631 47.5663 48.3695 48.2374C46.8988 49.0004 44.9737 49.0004 41.1233 49.0004L37.6092 42L21.8733 49.0004Z" stroke="#5955B3" stroke-width="2" stroke-linecap="round" stroke-linejoin="round"/>
<path d="M46.4618 18.1172V13.9996M43.2265 39.1588V35.0412M44.4397 16.0584H48.4839M41.2044 37.1H45.2486M36.7559 13.176L36.1214 14.4681C35.9067 14.9054 35.7993 15.124 35.6559 15.3135C35.5286 15.4816 35.3806 15.6323 35.2155 15.7619C35.0294 15.9079 34.8147 16.0172 34.3852 16.2359L33.1162 16.8819L34.3852 17.5279C34.8147 17.7466 35.0294 17.8559 35.2155 18.0019C35.3806 18.1315 35.5286 18.2822 35.6559 18.4504C35.7993 18.6398 35.9067 18.8585 36.1214 19.2957L36.7559 20.5878L37.3904 19.2957C37.6051 18.8585 37.7125 18.6398 37.8559 18.4504C37.9832 18.2822 38.1312 18.1315 38.2964 18.0019C38.4824 17.8559 38.6972 17.7466 39.1266 17.5279L40.3956 16.8819L39.1266 16.2359C38.6972 16.0172 38.4824 15.9079 38.2964 15.7619C38.1312 15.6323 37.9832 15.4816 37.8559 15.3135C37.7125 15.124 37.6051 14.9054 37.3904 14.4681L36.7559 13.176ZM42.4177 22.9779L41.6484 24.5444C41.4337 24.9817 41.3263 25.2003 41.1829 25.3898C41.0556 25.5579 40.9075 25.7086 40.7424 25.8382C40.5563 25.9843 40.3416 26.0936 39.9121 26.3122L38.3736 27.0955L39.9121 27.8788C40.3416 28.0974 40.5563 28.2068 40.7424 28.3528C40.9075 28.4824 41.0556 28.6331 41.1829 28.8012C41.3263 28.9907 41.4337 29.2093 41.6484 29.6466L42.4177 31.2132L43.187 29.6466C43.4017 29.2093 43.5091 28.9907 43.6525 28.8012C43.7798 28.6331 43.9278 28.4824 44.0929 28.3528C44.279 28.2068 44.4937 28.0974 44.9232 27.8788L46.4618 27.0955L44.9232 26.3122C44.4937 26.0936 44.279 25.9843 44.0929 25.8382C43.9278 25.7087 43.7798 25.5579 43.6525 25.3898C43.5091 25.2003 43.4017 24.9817 43.187 24.5444L42.4177 22.9779Z" stroke="#5955B3" stroke-linecap="round" stroke-linejoin="round"/>
<path d="M20.2484 22.1954C20.1428 22.3182 20.0494 22.4567 19.9714 22.6099C19.4583 23.6178 19.8066 24.8796 20.7494 25.4281C21.6922 25.9766 22.8724 25.6043 23.3855 24.5964C23.4719 24.4266 23.5339 24.2496 23.5727 24.0701M20.2484 22.1954C21.1073 21.8645 22.9747 21.7761 23.5727 24.0701M20.2484 22.1954C20.4289 21.9856 20.6451 21.8215 20.8811 21.7082M23.5727 24.0701C23.6664 23.6368 23.6252 23.1884 23.467 22.79M20.8811 21.7082C21.416 21.4515 22.0528 21.4555 22.6075 21.7782C23.0082 22.0114 23.3015 22.3734 23.467 22.79M20.8811 21.7082C21.3876 21.6421 22.6138 21.7659 23.467 22.79" stroke="#5955B3" stroke-linecap="round"/>
<path d="M19.0867 29.2887C20.2386 29.2887 22.8015 29.1274 23.8382 28.4821C25.1341 27.6755 16.0629 43.4043 24.2702 40.5812" stroke="#5955B3" stroke-width="2" stroke-linecap="round"/>
</g>
<defs>
<filter id="filter0_d_526_5587" x="0" y="0" width="63" height="64" filterUnits="userSpaceOnUse" color-interpolation-filters="sRGB">
<feFlood flood-opacity="0" result="BackgroundImageFix"/>
<feColorMatrix in="SourceAlpha" type="matrix" values="0 0 0 0 0 0 0 0 0 0 0 0 0 0 0 0 0 0 127 0" result="hardAlpha"/>
<feOffset dy="4"/>
<feGaussianBlur stdDeviation="2"/>
<feComposite in2="hardAlpha" operator="out"/>
<feColorMatrix type="matrix" values="0 0 0 0 0 0 0 0 0 0 0 0 0 0 0 0 0 0 0.25 0"/>
<feBlend mode="normal" in2="BackgroundImageFix" result="effect1_dropShadow_526_5587"/>
<feBlend mode="normal" in="SourceGraphic" in2="effect1_dropShadow_526_5587" result="shape"/>
</filter>
</defs>
</svg>
