<svg width="216" height="56" viewBox="0 0 216 56" fill="none" xmlns="http://www.w3.org/2000/svg">
<rect width="55" height="56" rx="8" fill="white"/>
<path d="M18.3316 7.00037L36.665 49.0004M17.8733 49.0004C14.0229 49.0004 12.0977 49.0004 10.6271 48.2374C9.33349 47.5663 8.28175 46.4954 7.62262 45.1783C6.87329 43.6809 6.87329 41.7207 6.87329 37.8004V18.2004C6.87329 14.28 6.87329 12.3198 7.62262 10.8224C8.28175 9.5053 9.33349 8.43443 10.6271 7.76332C12.0977 7.00037 14.0229 7.00037 17.8733 7.00037L20 10.8224L37.1233 7.00037C40.9737 7.00037 42.8988 7.00037 44.3695 7.76332C45.6631 8.43443 46.7148 9.5053 47.374 10.8224C48.1233 12.3198 48.1233 14.28 48.1233 18.2004V37.8004C48.1233 41.7207 48.1233 43.6809 47.374 45.1783C46.7148 46.4954 45.6631 47.5663 44.3695 48.2374C42.8988 49.0004 40.9737 49.0004 37.1233 49.0004L33.6092 42L17.8733 49.0004Z" stroke="#5955B3" stroke-width="2" stroke-linecap="round" stroke-linejoin="round"/>
<path d="M42.4618 18.1172V13.9996M39.2265 39.1588V35.0412M40.4397 16.0584H44.4839M37.2044 37.1H41.2486M32.7559 13.176L32.1214 14.4681C31.9067 14.9054 31.7993 15.124 31.6559 15.3135C31.5286 15.4816 31.3806 15.6323 31.2155 15.7619C31.0294 15.9079 30.8147 16.0172 30.3852 16.2359L29.1162 16.8819L30.3852 17.5279C30.8147 17.7466 31.0294 17.8559 31.2155 18.0019C31.3806 18.1315 31.5286 18.2822 31.6559 18.4504C31.7993 18.6398 31.9067 18.8585 32.1214 19.2957L32.7559 20.5878L33.3904 19.2957C33.6051 18.8585 33.7125 18.6398 33.8559 18.4504C33.9832 18.2822 34.1312 18.1315 34.2964 18.0019C34.4824 17.8559 34.6972 17.7466 35.1266 17.5279L36.3956 16.8819L35.1266 16.2359C34.6972 16.0172 34.4824 15.9079 34.2964 15.7619C34.1312 15.6323 33.9832 15.4816 33.8559 15.3135C33.7125 15.124 33.6051 14.9054 33.3904 14.4681L32.7559 13.176ZM38.4177 22.9779L37.6484 24.5444C37.4337 24.9817 37.3263 25.2003 37.1829 25.3898C37.0556 25.5579 36.9075 25.7086 36.7424 25.8382C36.5563 25.9843 36.3416 26.0936 35.9121 26.3122L34.3736 27.0955L35.9121 27.8788C36.3416 28.0974 36.5563 28.2068 36.7424 28.3528C36.9075 28.4824 37.0556 28.6331 37.1829 28.8012C37.3263 28.9907 37.4337 29.2093 37.6484 29.6466L38.4177 31.2132L39.187 29.6466C39.4017 29.2093 39.5091 28.9907 39.6525 28.8012C39.7798 28.6331 39.9278 28.4824 40.0929 28.3528C40.279 28.2068 40.4937 28.0974 40.9232 27.8788L42.4618 27.0955L40.9232 26.3122C40.4937 26.0936 40.279 25.9843 40.0929 25.8382C39.9278 25.7087 39.7798 25.5579 39.6525 25.3898C39.5091 25.2003 39.4017 24.9817 39.187 24.5444L38.4177 22.9779Z" stroke="#5955B3" stroke-linecap="round" stroke-linejoin="round"/>
<path d="M16.2484 22.1954C16.1428 22.3182 16.0494 22.4567 15.9714 22.6099C15.4583 23.6178 15.8066 24.8796 16.7494 25.4281C17.6922 25.9766 18.8724 25.6043 19.3855 24.5964C19.4719 24.4266 19.5339 24.2496 19.5727 24.0701M16.2484 22.1954C17.1073 21.8645 18.9747 21.7761 19.5727 24.0701M16.2484 22.1954C16.4289 21.9856 16.6451 21.8215 16.8811 21.7082M19.5727 24.0701C19.6664 23.6368 19.6252 23.1884 19.467 22.79M16.8811 21.7082C17.416 21.4515 18.0528 21.4555 18.6075 21.7782C19.0082 22.0114 19.3015 22.3734 19.467 22.79M16.8811 21.7082C17.3876 21.6421 18.6138 21.7659 19.467 22.79" stroke="#5955B3" stroke-linecap="round"/>
<path d="M15.0867 29.2887C16.2386 29.2887 18.8015 29.1274 19.8382 28.4821C21.1341 27.6755 12.0629 43.4043 20.2702 40.5812" stroke="#5955B3" stroke-width="2" stroke-linecap="round"/>
<path d="M61.2642 21V6.45455H67.0028C68.1061 6.45455 69.0459 6.66525 69.8224 7.08665C70.599 7.50331 71.1908 8.08333 71.598 8.8267C72.0099 9.56534 72.2159 10.4176 72.2159 11.3835C72.2159 12.3494 72.0076 13.2017 71.5909 13.9403C71.1742 14.679 70.5705 15.2543 69.7798 15.6662C68.9938 16.0781 68.0421 16.2841 66.9247 16.2841H63.267V13.8196H66.4276C67.0194 13.8196 67.5071 13.7178 67.8906 13.5142C68.2789 13.3059 68.5677 13.0194 68.7571 12.6548C68.9512 12.2855 69.0483 11.8617 69.0483 11.3835C69.0483 10.9006 68.9512 10.4792 68.7571 10.1193C68.5677 9.75473 68.2789 9.47301 67.8906 9.27415C67.5024 9.07055 67.0099 8.96875 66.4134 8.96875H64.3395V21H61.2642ZM76.0245 25.0909C75.641 25.0909 75.2811 25.0601 74.945 24.9986C74.6135 24.9418 74.3389 24.8684 74.1211 24.7784L74.8029 22.5199C75.158 22.6288 75.4776 22.688 75.7617 22.6974C76.0505 22.7069 76.2991 22.6406 76.5075 22.4986C76.7205 22.3565 76.8933 22.1151 77.0259 21.7741L77.2035 21.3125L73.2901 10.0909H76.4719L78.7305 18.1023H78.8441L81.1239 10.0909H84.3271L80.087 22.179C79.8834 22.7661 79.6064 23.2775 79.256 23.7131C78.9104 24.1534 78.4724 24.492 77.9421 24.7287C77.4118 24.9702 76.7726 25.0909 76.0245 25.0909ZM85.8754 21V10.0909H88.9009V14.3239H89.7532L92.7219 10.0909H96.2731L92.4165 15.5028L96.3157 21H92.7219L90.0302 17.1293H88.9009V21H85.8754ZM102.074 21.2131C100.971 21.2131 100.017 20.9787 99.2116 20.5099C98.4115 20.0365 97.7936 19.3783 97.358 18.5355C96.9223 17.688 96.7045 16.7055 96.7045 15.5881C96.7045 14.4612 96.9223 13.4763 97.358 12.6335C97.7936 11.786 98.4115 11.1278 99.2116 10.6591C100.017 10.1856 100.971 9.94886 102.074 9.94886C103.177 9.94886 104.129 10.1856 104.929 10.6591C105.734 11.1278 106.354 11.786 106.79 12.6335C107.225 13.4763 107.443 14.4612 107.443 15.5881C107.443 16.7055 107.225 17.688 106.79 18.5355C106.354 19.3783 105.734 20.0365 104.929 20.5099C104.129 20.9787 103.177 21.2131 102.074 21.2131ZM102.088 18.8693C102.59 18.8693 103.009 18.7273 103.345 18.4432C103.681 18.1544 103.935 17.7614 104.105 17.2642C104.28 16.767 104.368 16.2012 104.368 15.5668C104.368 14.9323 104.28 14.3665 104.105 13.8693C103.935 13.3722 103.681 12.9792 103.345 12.6903C103.009 12.4015 102.59 12.2571 102.088 12.2571C101.581 12.2571 101.155 12.4015 100.81 12.6903C100.469 12.9792 100.211 13.3722 100.036 13.8693C99.8651 14.3665 99.7798 14.9323 99.7798 15.5668C99.7798 16.2012 99.8651 16.767 100.036 17.2642C100.211 17.7614 100.469 18.1544 100.81 18.4432C101.155 18.7273 101.581 18.8693 102.088 18.8693ZM109.411 21V10.0909H114.062C115.407 10.0909 116.47 10.3466 117.251 10.858C118.033 11.3693 118.423 12.0961 118.423 13.0384C118.423 13.6302 118.203 14.1226 117.763 14.5156C117.322 14.9086 116.712 15.1738 115.93 15.3111C116.584 15.3584 117.14 15.5076 117.599 15.7585C118.063 16.0047 118.416 16.3243 118.658 16.7173C118.904 17.1103 119.027 17.5459 119.027 18.0241C119.027 18.6444 118.861 19.1771 118.53 19.6222C118.203 20.0672 117.723 20.4081 117.088 20.6449C116.458 20.8816 115.689 21 114.78 21H109.411ZM112.23 18.7344H114.78C115.201 18.7344 115.53 18.6349 115.767 18.4361C116.009 18.2325 116.129 17.9555 116.129 17.6051C116.129 17.2169 116.009 16.9115 115.767 16.6889C115.53 16.4664 115.201 16.3551 114.78 16.3551H112.23V18.7344ZM112.23 14.5795H114.126C114.429 14.5795 114.688 14.5369 114.901 14.4517C115.118 14.3617 115.284 14.2339 115.398 14.0682C115.516 13.9025 115.575 13.706 115.575 13.4787C115.575 13.1425 115.44 12.8797 115.17 12.6903C114.901 12.5009 114.531 12.4062 114.062 12.4062H112.23V14.5795ZM125.863 21.2131C124.76 21.2131 123.806 20.9787 123.001 20.5099C122.201 20.0365 121.583 19.3783 121.147 18.5355C120.711 17.688 120.494 16.7055 120.494 15.5881C120.494 14.4612 120.711 13.4763 121.147 12.6335C121.583 11.786 122.201 11.1278 123.001 10.6591C123.806 10.1856 124.76 9.94886 125.863 9.94886C126.966 9.94886 127.918 10.1856 128.718 10.6591C129.523 11.1278 130.143 11.786 130.579 12.6335C131.014 13.4763 131.232 14.4612 131.232 15.5881C131.232 16.7055 131.014 17.688 130.579 18.5355C130.143 19.3783 129.523 20.0365 128.718 20.5099C127.918 20.9787 126.966 21.2131 125.863 21.2131ZM125.877 18.8693C126.379 18.8693 126.798 18.7273 127.134 18.4432C127.47 18.1544 127.724 17.7614 127.894 17.2642C128.069 16.767 128.157 16.2012 128.157 15.5668C128.157 14.9323 128.069 14.3665 127.894 13.8693C127.724 13.3722 127.47 12.9792 127.134 12.6903C126.798 12.4015 126.379 12.2571 125.877 12.2571C125.371 12.2571 124.944 12.4015 124.599 12.6903C124.258 12.9792 124 13.3722 123.825 13.8693C123.654 14.3665 123.569 14.9323 123.569 15.5668C123.569 16.2012 123.654 16.767 123.825 17.2642C124 17.7614 124.258 18.1544 124.599 18.4432C124.944 18.7273 125.371 18.8693 125.877 18.8693ZM132.347 24.196V18.5994H133.185C133.427 18.4479 133.621 18.2064 133.768 17.875C133.919 17.5436 134.042 17.1529 134.137 16.7031C134.237 16.2533 134.312 15.768 134.364 15.2472C134.421 14.7216 134.471 14.1913 134.513 13.6562L134.798 10.0909H143.164V18.5994H144.854V24.196H141.971V21H135.302V24.196H132.347ZM136.197 18.5994H140.309V12.4205H137.369L137.255 13.6562C137.174 14.821 137.058 15.8106 136.907 16.625C136.755 17.4347 136.519 18.0928 136.197 18.5994ZM151.547 21.2131C150.429 21.2131 149.468 20.9763 148.663 20.5028C147.863 20.0246 147.247 19.3617 146.816 18.5142C146.39 17.6667 146.177 16.6913 146.177 15.5881C146.177 14.4706 146.393 13.4905 146.824 12.6477C147.259 11.8002 147.877 11.1397 148.677 10.6662C149.477 10.188 150.429 9.94886 151.532 9.94886C152.484 9.94886 153.317 10.1217 154.032 10.4673C154.747 10.813 155.313 11.2983 155.73 11.9233C156.146 12.5483 156.376 13.2822 156.419 14.125H153.564C153.483 13.5805 153.27 13.1425 152.924 12.8111C152.583 12.4749 152.136 12.3068 151.582 12.3068C151.113 12.3068 150.704 12.4347 150.353 12.6903C150.008 12.9413 149.738 13.3082 149.544 13.7912C149.35 14.2741 149.252 14.8589 149.252 15.5455C149.252 16.2415 149.347 16.8333 149.537 17.321C149.731 17.8087 150.003 18.1804 150.353 18.4361C150.704 18.6918 151.113 18.8196 151.582 18.8196C151.928 18.8196 152.238 18.7486 152.512 18.6065C152.792 18.4645 153.021 18.2585 153.201 17.9886C153.386 17.714 153.507 17.3849 153.564 17.0014H156.419C156.371 17.8348 156.144 18.5687 155.737 19.2031C155.334 19.8329 154.778 20.3253 154.068 20.6804C153.358 21.0355 152.517 21.2131 151.547 21.2131ZM157.612 12.4702V10.0909H167.498V12.4702H163.983V21H161.099V12.4702H157.612ZM169.332 21V10.0909H173.984C175.329 10.0909 176.392 10.3466 177.173 10.858C177.955 11.3693 178.345 12.0961 178.345 13.0384C178.345 13.6302 178.125 14.1226 177.685 14.5156C177.244 14.9086 176.634 15.1738 175.852 15.3111C176.506 15.3584 177.062 15.5076 177.521 15.7585C177.985 16.0047 178.338 16.3243 178.58 16.7173C178.826 17.1103 178.949 17.5459 178.949 18.0241C178.949 18.6444 178.783 19.1771 178.452 19.6222C178.125 20.0672 177.644 20.4081 177.01 20.6449C176.38 20.8816 175.611 21 174.702 21H169.332ZM172.152 18.7344H174.702C175.123 18.7344 175.452 18.6349 175.689 18.4361C175.93 18.2325 176.051 17.9555 176.051 17.6051C176.051 17.2169 175.93 16.9115 175.689 16.6889C175.452 16.4664 175.123 16.3551 174.702 16.3551H172.152V18.7344ZM172.152 14.5795H174.048C174.351 14.5795 174.609 14.5369 174.822 14.4517C175.04 14.3617 175.206 14.2339 175.32 14.0682C175.438 13.9025 175.497 13.706 175.497 13.4787C175.497 13.1425 175.362 12.8797 175.092 12.6903C174.822 12.5009 174.453 12.4062 173.984 12.4062H172.152V14.5795ZM185.785 21.2131C184.682 21.2131 183.728 20.9787 182.923 20.5099C182.122 20.0365 181.504 19.3783 181.069 18.5355C180.633 17.688 180.415 16.7055 180.415 15.5881C180.415 14.4612 180.633 13.4763 181.069 12.6335C181.504 11.786 182.122 11.1278 182.923 10.6591C183.728 10.1856 184.682 9.94886 185.785 9.94886C186.888 9.94886 187.84 10.1856 188.64 10.6591C189.445 11.1278 190.065 11.786 190.501 12.6335C190.936 13.4763 191.154 14.4612 191.154 15.5881C191.154 16.7055 190.936 17.688 190.501 18.5355C190.065 19.3783 189.445 20.0365 188.64 20.5099C187.84 20.9787 186.888 21.2131 185.785 21.2131ZM185.799 18.8693C186.301 18.8693 186.72 18.7273 187.056 18.4432C187.392 18.1544 187.646 17.7614 187.816 17.2642C187.991 16.767 188.079 16.2012 188.079 15.5668C188.079 14.9323 187.991 14.3665 187.816 13.8693C187.646 13.3722 187.392 12.9792 187.056 12.6903C186.72 12.4015 186.301 12.2571 185.799 12.2571C185.292 12.2571 184.866 12.4015 184.521 12.6903C184.18 12.9792 183.922 13.3722 183.746 13.8693C183.576 14.3665 183.491 14.9323 183.491 15.5668C183.491 16.2012 183.576 16.767 183.746 17.2642C183.922 17.7614 184.18 18.1544 184.521 18.4432C184.866 18.7273 185.292 18.8693 185.799 18.8693ZM61.2074 49V38.0909H70.7457V49H67.8551V40.4702H64.0625V49H61.2074ZM78.1321 49.2131C77.0099 49.2131 76.044 48.9858 75.2344 48.5312C74.4295 48.072 73.8092 47.4233 73.3736 46.5852C72.938 45.7424 72.7202 44.7457 72.7202 43.5952C72.7202 42.473 72.938 41.4882 73.3736 40.6406C73.8092 39.7931 74.4223 39.1326 75.2131 38.6591C76.0085 38.1856 76.9413 37.9489 78.0114 37.9489C78.7311 37.9489 79.401 38.0649 80.0213 38.2969C80.6463 38.5241 81.1908 38.8674 81.6548 39.3267C82.1236 39.786 82.4882 40.3636 82.7486 41.0597C83.009 41.7509 83.1392 42.5606 83.1392 43.4886V44.3196H73.9276V42.4446H80.2912C80.2912 42.009 80.1965 41.6231 80.0071 41.2869C79.8177 40.9508 79.5549 40.688 79.2188 40.4986C78.8873 40.3045 78.5014 40.2074 78.0611 40.2074C77.6018 40.2074 77.1946 40.3139 76.8395 40.527C76.4891 40.7353 76.2145 41.017 76.0156 41.3722C75.8168 41.7225 75.715 42.1132 75.7102 42.544V44.3267C75.7102 44.8665 75.8097 45.3329 76.0085 45.7259C76.2121 46.1188 76.4986 46.4219 76.8679 46.6349C77.2372 46.848 77.6752 46.9545 78.1818 46.9545C78.518 46.9545 78.8258 46.9072 79.1051 46.8125C79.3845 46.7178 79.6236 46.5758 79.8224 46.3864C80.0213 46.197 80.1728 45.965 80.277 45.6903L83.0753 45.875C82.9332 46.5473 82.642 47.1345 82.2017 47.6364C81.7661 48.1335 81.2027 48.5218 80.5114 48.8011C79.8248 49.0758 79.0317 49.2131 78.1321 49.2131ZM85.1136 53.0909V38.0909H88.0966V39.9233H88.2315C88.3641 39.6297 88.5559 39.3314 88.8068 39.0284C89.0625 38.7206 89.3939 38.465 89.8011 38.2614C90.2131 38.053 90.7244 37.9489 91.3352 37.9489C92.1307 37.9489 92.8646 38.1572 93.5369 38.5739C94.2093 38.9858 94.7467 39.6084 95.1491 40.4418C95.5516 41.2704 95.7528 42.3097 95.7528 43.5597C95.7528 44.7765 95.5563 45.804 95.1634 46.642C94.7751 47.4754 94.2448 48.1075 93.5724 48.5384C92.9048 48.9645 92.1567 49.1776 91.3281 49.1776C90.741 49.1776 90.2415 49.0805 89.8295 48.8864C89.4223 48.6922 89.0885 48.4484 88.8281 48.1548C88.5677 47.8565 88.3688 47.5559 88.2315 47.2528H88.1392V53.0909H85.1136ZM88.0753 43.5455C88.0753 44.1941 88.1652 44.7599 88.3452 45.2429C88.5251 45.7259 88.7855 46.1023 89.1264 46.3722C89.4673 46.6373 89.8816 46.7699 90.3693 46.7699C90.8617 46.7699 91.2784 46.6349 91.6193 46.3651C91.9602 46.0904 92.2183 45.7116 92.3935 45.2287C92.5734 44.741 92.6634 44.1799 92.6634 43.5455C92.6634 42.9157 92.5758 42.3617 92.4006 41.8835C92.2254 41.4053 91.9673 41.0312 91.6264 40.7614C91.2855 40.4915 90.8665 40.3565 90.3693 40.3565C89.8769 40.3565 89.4602 40.4867 89.1193 40.7472C88.7831 41.0076 88.5251 41.3769 88.3452 41.8551C88.1652 42.3333 88.0753 42.8968 88.0753 43.5455ZM97.7699 49V38.0909H102.422C103.767 38.0909 104.83 38.3466 105.611 38.858C106.392 39.3693 106.783 40.0961 106.783 41.0384C106.783 41.6302 106.563 42.1226 106.122 42.5156C105.682 42.9086 105.071 43.1738 104.29 43.3111C104.943 43.3584 105.5 43.5076 105.959 43.7585C106.423 44.0047 106.776 44.3243 107.017 44.7173C107.263 45.1103 107.386 45.5459 107.386 46.0241C107.386 46.6444 107.221 47.1771 106.889 47.6222C106.563 48.0672 106.082 48.4081 105.447 48.6449C104.818 48.8816 104.048 49 103.139 49H97.7699ZM100.589 46.7344H103.139C103.561 46.7344 103.89 46.6349 104.126 46.4361C104.368 46.2325 104.489 45.9555 104.489 45.6051C104.489 45.2169 104.368 44.9115 104.126 44.6889C103.89 44.4664 103.561 44.3551 103.139 44.3551H100.589V46.7344ZM100.589 42.5795H102.486C102.789 42.5795 103.047 42.5369 103.26 42.4517C103.478 42.3617 103.643 42.2339 103.757 42.0682C103.875 41.9025 103.935 41.706 103.935 41.4787C103.935 41.1425 103.8 40.8797 103.53 40.6903C103.26 40.5009 102.891 40.4062 102.422 40.4062H100.589V42.5795ZM114.222 49.2131C113.119 49.2131 112.165 48.9787 111.36 48.5099C110.56 48.0365 109.942 47.3783 109.506 46.5355C109.071 45.688 108.853 44.7055 108.853 43.5881C108.853 42.4612 109.071 41.4763 109.506 40.6335C109.942 39.786 110.56 39.1278 111.36 38.6591C112.165 38.1856 113.119 37.9489 114.222 37.9489C115.326 37.9489 116.277 38.1856 117.077 38.6591C117.882 39.1278 118.503 39.786 118.938 40.6335C119.374 41.4763 119.592 42.4612 119.592 43.5881C119.592 44.7055 119.374 45.688 118.938 46.5355C118.503 47.3783 117.882 48.0365 117.077 48.5099C116.277 48.9787 115.326 49.2131 114.222 49.2131ZM114.237 46.8693C114.738 46.8693 115.157 46.7273 115.494 46.4432C115.83 46.1544 116.083 45.7614 116.254 45.2642C116.429 44.767 116.516 44.2012 116.516 43.5668C116.516 42.9323 116.429 42.3665 116.254 41.8693C116.083 41.3722 115.83 40.9792 115.494 40.6903C115.157 40.4015 114.738 40.2571 114.237 40.2571C113.73 40.2571 113.304 40.4015 112.958 40.6903C112.617 40.9792 112.359 41.3722 112.184 41.8693C112.013 42.3665 111.928 42.9323 111.928 43.5668C111.928 44.2012 112.013 44.767 112.184 45.2642C112.359 45.7614 112.617 46.1544 112.958 46.4432C113.304 46.7273 113.73 46.8693 114.237 46.8693ZM121.559 49V38.0909H124.585V42.3239H125.437L128.406 38.0909H131.957L128.1 43.5028L131.999 49H128.406L125.714 45.1293H124.585V49H121.559ZM135.321 53.0909C134.938 53.0909 134.578 53.0601 134.242 52.9986C133.91 52.9418 133.636 52.8684 133.418 52.7784L134.1 50.5199C134.455 50.6288 134.775 50.688 135.059 50.6974C135.347 50.7069 135.596 50.6406 135.804 50.4986C136.017 50.3565 136.19 50.1151 136.323 49.7741L136.5 49.3125L132.587 38.0909H135.769L138.027 46.1023H138.141L140.421 38.0909H143.624L139.384 50.179C139.18 50.7661 138.903 51.2775 138.553 51.7131C138.207 52.1534 137.769 52.492 137.239 52.7287C136.709 52.9702 136.069 53.0909 135.321 53.0909ZM145.172 53.0909V38.0909H148.155V39.9233H148.29C148.423 39.6297 148.614 39.3314 148.865 39.0284C149.121 38.7206 149.453 38.465 149.86 38.2614C150.272 38.053 150.783 37.9489 151.394 37.9489C152.189 37.9489 152.923 38.1572 153.596 38.5739C154.268 38.9858 154.805 39.6084 155.208 40.4418C155.61 41.2704 155.811 42.3097 155.811 43.5597C155.811 44.7765 155.615 45.804 155.222 46.642C154.834 47.4754 154.303 48.1075 153.631 48.5384C152.963 48.9645 152.215 49.1776 151.387 49.1776C150.8 49.1776 150.3 49.0805 149.888 48.8864C149.481 48.6922 149.147 48.4484 148.887 48.1548C148.626 47.8565 148.427 47.5559 148.29 47.2528H148.198V53.0909H145.172ZM148.134 43.5455C148.134 44.1941 148.224 44.7599 148.404 45.2429C148.584 45.7259 148.844 46.1023 149.185 46.3722C149.526 46.6373 149.94 46.7699 150.428 46.7699C150.92 46.7699 151.337 46.6349 151.678 46.3651C152.019 46.0904 152.277 45.7116 152.452 45.2287C152.632 44.741 152.722 44.1799 152.722 43.5455C152.722 42.9157 152.634 42.3617 152.459 41.8835C152.284 41.4053 152.026 41.0312 151.685 40.7614C151.344 40.4915 150.925 40.3565 150.428 40.3565C149.935 40.3565 149.519 40.4867 149.178 40.7472C148.842 41.0076 148.584 41.3769 148.404 41.8551C148.224 42.3333 148.134 42.8968 148.134 43.5455ZM162.757 49.2131C161.64 49.2131 160.679 48.9763 159.874 48.5028C159.074 48.0246 158.458 47.3617 158.027 46.5142C157.601 45.6667 157.388 44.6913 157.388 43.5881C157.388 42.4706 157.604 41.4905 158.034 40.6477C158.47 39.8002 159.088 39.1397 159.888 38.6662C160.688 38.188 161.64 37.9489 162.743 37.9489C163.695 37.9489 164.528 38.1217 165.243 38.4673C165.958 38.813 166.524 39.2983 166.941 39.9233C167.357 40.5483 167.587 41.2822 167.63 42.125H164.775C164.694 41.5805 164.481 41.1425 164.135 40.8111C163.794 40.4749 163.347 40.3068 162.793 40.3068C162.324 40.3068 161.915 40.4347 161.564 40.6903C161.219 40.9413 160.949 41.3082 160.755 41.7912C160.56 42.2741 160.463 42.8589 160.463 43.5455C160.463 44.2415 160.558 44.8333 160.748 45.321C160.942 45.8087 161.214 46.1804 161.564 46.4361C161.915 46.6918 162.324 46.8196 162.793 46.8196C163.139 46.8196 163.449 46.7486 163.723 46.6065C164.003 46.4645 164.232 46.2585 164.412 45.9886C164.597 45.714 164.718 45.3849 164.775 45.0014H167.63C167.582 45.8348 167.355 46.5687 166.948 47.2031C166.545 47.8329 165.989 48.3253 165.279 48.6804C164.569 49.0355 163.728 49.2131 162.757 49.2131ZM177.159 42.3381V44.7173H171.463V42.3381H177.159ZM172.457 38.0909V49H169.567V38.0909H172.457ZM179.055 38.0909V49H176.186V38.0909H179.055ZM184.293 45.0085L188.221 38.0909H191.204V49H188.32V42.0611L184.407 49H181.403V38.0909H184.293V45.0085ZM193.629 49V38.0909H196.655V42.3239H197.507L200.476 38.0909H204.027L200.17 43.5028L204.07 49H200.476L197.784 45.1293H196.655V49H193.629ZM208.459 49.206C207.763 49.206 207.143 49.0852 206.598 48.8438C206.054 48.5975 205.623 48.2353 205.305 47.7571C204.993 47.2741 204.837 46.6728 204.837 45.9531C204.837 45.3471 204.948 44.8381 205.17 44.4261C205.393 44.0142 205.696 43.6828 206.08 43.4318C206.463 43.1809 206.899 42.9915 207.386 42.8636C207.879 42.7358 208.395 42.6458 208.935 42.5938C209.569 42.5275 210.08 42.4659 210.469 42.4091C210.857 42.3475 211.139 42.2576 211.314 42.1392C211.489 42.0208 211.577 41.8456 211.577 41.6136V41.571C211.577 41.1212 211.435 40.7732 211.151 40.527C210.871 40.2808 210.473 40.1577 209.957 40.1577C209.413 40.1577 208.98 40.2784 208.658 40.5199C208.336 40.7566 208.123 41.0549 208.018 41.4148L205.22 41.1875C205.362 40.5246 205.642 39.9517 206.058 39.4688C206.475 38.9811 207.012 38.607 207.67 38.3466C208.333 38.0814 209.1 37.9489 209.972 37.9489C210.578 37.9489 211.158 38.0199 211.712 38.1619C212.27 38.304 212.765 38.5241 213.196 38.8224C213.632 39.1207 213.975 39.5043 214.226 39.973C214.477 40.437 214.602 40.9934 214.602 41.642V49H211.733V47.4872H211.648C211.473 47.8281 211.238 48.1288 210.945 48.3892C210.651 48.6449 210.298 48.8461 209.886 48.9929C209.474 49.1349 208.999 49.206 208.459 49.206ZM209.325 47.1179C209.77 47.1179 210.163 47.0303 210.504 46.8551C210.845 46.6752 211.113 46.4337 211.307 46.1307C211.501 45.8277 211.598 45.4844 211.598 45.1009V43.9432C211.503 44.0047 211.373 44.0616 211.207 44.1136C211.046 44.161 210.864 44.206 210.661 44.2486C210.457 44.2865 210.253 44.322 210.05 44.3551C209.846 44.3835 209.661 44.4096 209.496 44.4332C209.141 44.4853 208.83 44.5682 208.565 44.6818C208.3 44.7955 208.094 44.9493 207.947 45.1435C207.801 45.3329 207.727 45.5696 207.727 45.8537C207.727 46.2656 207.876 46.5805 208.175 46.7983C208.478 47.0114 208.861 47.1179 209.325 47.1179Z" fill="#F8F9FF"/>
</svg>
